SplineFontDB: 3.0
FontName: Pacaya
FullName: Pacaya
FamilyName: Pacaya
Weight: Medium
Copyright: Copyright (c) 2013 by Daniel Johnson. Released under the terms of the SIL Open Font License.
UComments: "2012-6-15: Created." 
Version: 001.000
ItalicAngle: 0
UnderlinePosition: -100
UnderlineWidth: 50
Ascent: 800
Descent: 200
UFOAscent: 800
UFODescent: -200
LayerCount: 2
Layer: 0 0 "Back"  1
Layer: 1 0 "Fore"  0
NeedsXUIDChange: 1
FSType: 0
OS2Version: 0
OS2_WeightWidthSlopeOnly: 0
OS2_UseTypoMetrics: 0
CreationTime: 1362776348
ModificationTime: 1363034983
OS2TypoAscent: 0
OS2TypoAOffset: 1
OS2TypoDescent: 0
OS2TypoDOffset: 1
OS2TypoLinegap: 90
OS2WinAscent: 0
OS2WinAOffset: 1
OS2WinDescent: 0
OS2WinDOffset: 1
HheadAscent: 0
HheadAOffset: 1
HheadDescent: 0
HheadDOffset: 1
Lookup: 258 0 0 "'kern' Horizontal Kerning lookup 0"  {"'kern' Horizontal Kerning lookup 0 subtable"  } ['kern' ('DFLT' <'dflt' > ) ]
Lookup: 258 0 0 "'kern' Horizontal Kerning in Latin lookup 0"  {"'kern' Horizontal Kerning in Latin lookup 0 subtable"  } ['kern' ('latn' <'dflt' > ) ]
MarkAttachClasses: 1
DEI: 91125
LangName: 1033 "" "" "" "" "" "Version 001.000" 
Encoding: UnicodeBmp
Compacted: 1
UnicodeInterp: none
NameList: Adobe Glyph List
DisplaySize: -48
AntiAlias: 1
FitToEm: 1
WinInfo: 54 27 11
BeginPrivate: 2
BlueValues 30 [-8 0 498 504 640 648 656 658]
OtherBlues 11 [-139 -126]
EndPrivate
Grid
-245 957.8 m 25
 -245 -324.2 l 25
EndSplineSet
BeginChars: 65536 339

StartChar: A
Encoding: 65 65 0
Width: 614
VWidth: 0
Flags: W
HStem: 0 21G<24 136.297 469.703 591> 148 69<208 398> 620 20G<250.688 365.281>
LayerCount: 2
Fore
SplineSet
183 148 m 1
 129 0 l 1
 24 0 l 1
 258 640 l 1
 358 640 l 1
 591 0 l 1
 477 0 l 1
 423 148 l 1
 183 148 l 1
208 217 m 1
 398 217 l 1
 303 478 l 1
 208 217 l 1
EndSplineSet
Validated: 1
EndChar

StartChar: AE
Encoding: 198 198 1
Width: 782
VWidth: 0
Flags: W
HStem: 0 85<465 751> 148 69<208 358> 290 85<465 639> 554 86<330 358 465 721>
VStem: 358 107<85 148 217 290 375 554>
LayerCount: 2
Fore
SplineSet
465 85 m 1
 751 85 l 1
 751 0 l 1
 358 0 l 1
 358 148 l 1
 183 148 l 1
 129 0 l 1
 24 0 l 1
 258 640 l 1
 721 640 l 1
 721 554 l 1
 465 554 l 1
 465 375 l 1
 639 375 l 1
 639 290 l 1
 465 290 l 1
 465 85 l 1
358 554 m 1
 330 554 l 1
 208 217 l 1
 358 217 l 1
 358 554 l 1
EndSplineSet
Validated: 1
EndChar

StartChar: Aacute
Encoding: 193 193 2
Width: 646
VWidth: 0
Flags: W
HStem: 0 21<24 136.297 469.703 591> 148 69<208 398> 620 20<250.688 365.281> 660 157
VStem: 260 197
LayerCount: 2
Back
SplineSet
184 148 m 1
 130 0 l 1
 25 0 l 1
 259 640 l 1
 359 640 l 1
 592 0 l 1
 478 0 l 1
 424 148 l 1
 184 148 l 1
209 217 m 1
 399 217 l 1
 304 478 l 1
 209 217 l 1
259 700 m 1
 403 817 l 1
 456 725 l 1
 282 660 l 1
 259 700 l 1
EndSplineSet
Fore
Refer: 281 57345 S 1 0 0 1 528 0 2
Refer: 0 65 N 1 0 0 1 0 0 2
Validated: 1
EndChar

StartChar: Abreve
Encoding: 258 258 3
Width: 614
VWidth: 0
Flags: W
HStem: 0 21<24 136.297 469.703 591> 148 69<208 398> 620 20<250.688 365.281> 667 82<254.82 365.18>
VStem: 187 246
LayerCount: 2
Back
SplineSet
183 148 m 1
 129 0 l 1
 24 0 l 1
 258 640 l 1
 358 640 l 1
 591 0 l 1
 477 0 l 1
 423 148 l 1
 183 148 l 1
208 217 m 1
 398 217 l 1
 303 478 l 1
 208 217 l 1
310 667 m 0
 231 667 190 742 187 799 c 1
 236 799 l 1
 249 765 278 749 310 749 c 0
 342 749 371 765 384 799 c 1
 433 799 l 1
 430 742 389 667 310 667 c 0
EndSplineSet
Fore
Refer: 270 774 S 1 0 0 1 555 108 2
Refer: 0 65 N 1 0 0 1 0 0 2
Validated: 1
EndChar

StartChar: Acircumflex
Encoding: 194 194 4
Width: 646
VWidth: 0
Flags: W
HStem: 0 21<24 136.297 469.703 591> 148 69<208 398> 620 20<250.688 365.281> 660 157
VStem: 162 288
LayerCount: 2
Back
SplineSet
184 148 m 1
 130 0 l 1
 25 0 l 1
 259 640 l 1
 359 640 l 1
 592 0 l 1
 478 0 l 1
 424 148 l 1
 184 148 l 1
209 217 m 1
 399 217 l 1
 304 478 l 1
 209 217 l 1
450 700 m 1
 427 660 l 1
 306 705 l 1
 185 660 l 1
 162 700 l 1
 306 817 l 1
 450 700 l 1
EndSplineSet
Fore
Refer: 267 770 S 1 0 0 1 551 97 2
Refer: 0 65 N 1 0 0 1 0 0 2
Validated: 1
EndChar

StartChar: Adieresis
Encoding: 196 196 5
Width: 646
VWidth: 0
Flags: W
HStem: 0 21<24 136.297 469.703 591> 148 69<208 398> 620 20<250.688 365.281> 688 118<169.662 260.338 361.662 452.338>
VStem: 156 118<701.662 792.338> 348 118<701.662 792.338>
LayerCount: 2
Back
SplineSet
184 148 m 1
 130 0 l 1
 25 0 l 1
 259 640 l 1
 359 640 l 1
 592 0 l 1
 478 0 l 1
 424 148 l 1
 184 148 l 1
209 217 m 1
 399 217 l 1
 304 478 l 1
 209 217 l 1
156 747 m 0
 156 779 183 806 215 806 c 0
 247 806 274 779 274 747 c 0
 274 715 247 688 215 688 c 0
 183 688 156 715 156 747 c 0
348 747 m 0
 348 779 375 806 407 806 c 0
 439 806 466 779 466 747 c 0
 466 715 439 688 407 688 c 0
 375 688 348 715 348 747 c 0
EndSplineSet
Fore
Refer: 272 776 S 1 0 0 1 557 125 2
Refer: 0 65 N 1 0 0 1 0 0 2
Validated: 1
EndChar

StartChar: Agrave
Encoding: 192 192 6
Width: 646
VWidth: 0
Flags: W
HStem: 0 21<24 136.297 469.703 591> 148 69<208 398> 620 20<250.688 365.281> 660 157
VStem: 163 197
LayerCount: 2
Back
SplineSet
184 148 m 1
 130 0 l 1
 25 0 l 1
 259 640 l 1
 359 640 l 1
 592 0 l 1
 478 0 l 1
 424 148 l 1
 184 148 l 1
209 217 m 1
 399 217 l 1
 304 478 l 1
 209 217 l 1
361 700 m 1
 338 660 l 1
 164 725 l 1
 217 817 l 1
 361 700 l 1
EndSplineSet
Fore
Refer: 280 57344 S 1 0 0 1 582 0 2
Refer: 0 65 N 1 0 0 1 0 0 2
Validated: 1
EndChar

StartChar: Aogonek
Encoding: 260 260 7
Width: 614
VWidth: 0
UnlinkRmOvrlpSave: 1
Flags: W
HStem: -194 48<442.049 545.723> 0 21<24 136.297 469.703 591> 0 42<491.499 561> 148 69<208 398> 620 20<250.688 365.281>
VStem: 331 100<-135.513 -43.7122>
LayerCount: 2
Back
SplineSet
208 217 m 1
 398 217 l 1
 303 478 l 1
 208 217 l 1
183 148 m 1
 129 0 l 1
 24 0 l 1
 258 640 l 1
 358 640 l 1
 591 0 l 1
 561 0 l 1
 471 -18 431 -49 431 -86 c 0
 431 -131 457 -146 493 -146 c 0
 525 -146 571 -118 571 -118 c 1
 587 -140 l 1
 587 -140 535 -194 478 -194 c 0
 378 -194 331 -156 331 -86 c 0
 331 -44 392 -1 469 23 c 1
 423 148 l 1
 183 148 l 1
EndSplineSet
Fore
Refer: 279 808 S 1 0 0 1 695 0 2
Refer: 0 65 N 1 0 0 1 0 0 2
Validated: 5
EndChar

StartChar: Aring
Encoding: 197 197 8
Width: 614
VWidth: 0
UnlinkRmOvrlpSave: 1
Flags: W
HStem: 0 21<24 136.297 469.703 591> 148 69<208 398> 602 50<272.069 343.931> 620 20<250.688 365.281> 736 50<272.069 343.931>
VStem: 216 50<658.069 729.931> 350 50<658.069 729.931>
LayerCount: 2
Back
SplineSet
216 694 m 0
 216 744 258 786 308 786 c 0
 358 786 400 744 400 694 c 0
 400 665 386 639 365 622 c 1
 591 0 l 1
 477 0 l 1
 423 148 l 1
 183 148 l 1
 129 0 l 1
 24 0 l 1
 251 622 l 1
 230 639 216 665 216 694 c 0
266 694 m 0
 266 671 285 652 308 652 c 0
 331 652 350 671 350 694 c 0
 350 717 331 736 308 736 c 0
 285 736 266 717 266 694 c 0
208 217 m 1
 398 217 l 1
 303 478 l 1
 208 217 l 1
EndSplineSet
Fore
Refer: 273 778 N 1 0 0 1 553 50 2
Refer: 0 65 N 1 0 0 1 0 0 2
Validated: 5
EndChar

StartChar: Atilde
Encoding: 195 195 9
Width: 646
VWidth: 0
Flags: W
HStem: 0 21<24 136.297 469.703 591> 148 69<208 398> 620 20<250.688 365.281> 660 92<334.516 412.378> 721 92<222.622 300.484>
LayerCount: 2
Back
SplineSet
184 148 m 1
 130 0 l 1
 25 0 l 1
 259 640 l 1
 359 640 l 1
 592 0 l 1
 478 0 l 1
 424 148 l 1
 184 148 l 1
209 217 m 1
 399 217 l 1
 304 478 l 1
 209 217 l 1
244 721 m 0
 232 721 226 706 207 670 c 1
 142 694 l 1
 176 788 201 813 229 813 c 0
 299 813 344 752 391 752 c 0
 403 752 409 767 428 803 c 1
 493 778 l 1
 459 684 434 660 406 660 c 0
 336 660 291 721 244 721 c 0
EndSplineSet
Fore
Refer: 268 771 S 1 0 0 1 569 97 2
Refer: 0 65 N 1 0 0 1 0 0 2
Validated: 1
EndChar

StartChar: B
Encoding: 66 66 10
Width: 495
VWidth: 0
Flags: W
HStem: 0 85<147 321.758> 290 85<147 276.164> 554 86<147 286.111>
VStem: 40 107<85 290 375 554> 318 107<414.026 524.498> 358 107<118.182 242.743>
LayerCount: 2
Fore
SplineSet
257 0 m 2xf4
 40 0 l 1
 40 640 l 1
 227 640 l 2
 325 640 425 580 425 473 c 0xf8
 425 419 398 373 359 341 c 1
 418 307 465 251 465 189 c 0
 465 58 355 0 257 0 c 2xf4
228 290 m 2
 147 290 l 1
 147 85 l 1
 242 85 l 2
 319 85 358 118 358 185 c 0xf4
 358 242 301 290 228 290 c 2
211 554 m 2
 147 554 l 1
 147 375 l 1
 202 375 l 2
 279 375 318 425 318 469 c 0xf8
 318 517 284 554 211 554 c 2
EndSplineSet
Validated: 1
EndChar

StartChar: C
Encoding: 67 67 11
Width: 506
VWidth: 0
Flags: W
HStem: -6 85<194.638 370.134> 498 21G<384 428.023> 561 85<201.235 358.694>
VStem: 32 107<138.295 504.492>
LayerCount: 2
Fore
SplineSet
466 541 m 1
 395 498 l 1
 373 530 348 561 288 561 c 0
 198 561 139 507 139 440 c 2
 139 219 l 2
 139 138 185 79 271 79 c 0
 377 79 401 125 416 143 c 1
 475 92 l 1
 451 54 377 -6 259 -6 c 0
 129 -6 32 68 32 202 c 2
 32 426 l 2
 32 568 138 646 274 646 c 0
 370 646 436 611 466 541 c 1
EndSplineSet
Validated: 1
EndChar

StartChar: Cacute
Encoding: 262 262 12
Width: 506
VWidth: 0
Flags: W
HStem: -6 85<194.638 370.134> 498 21<384 428.023> 561 85<201.235 358.694> 660 157
VStem: 32 107<138.295 504.492> 216 197
LayerCount: 2
Back
SplineSet
466 541 m 1
 395 498 l 1
 373 530 348 561 288 561 c 0
 198 561 139 507 139 440 c 2
 139 219 l 2
 139 138 185 79 271 79 c 0
 377 79 401 125 416 143 c 1
 475 92 l 1
 451 54 377 -6 259 -6 c 0
 129 -6 32 68 32 202 c 2
 32 426 l 2
 32 568 138 646 274 646 c 0
 370 646 436 611 466 541 c 1
216 700 m 1
 360 817 l 1
 413 725 l 1
 239 660 l 1
 216 700 l 1
EndSplineSet
Fore
Refer: 281 57345 S 1 0 0 1 484 0 2
Refer: 11 67 N 1 0 0 1 0 0 2
Validated: 1
EndChar

StartChar: Ccaron
Encoding: 268 268 13
Width: 506
VWidth: 0
UnlinkRmOvrlpSave: 1
Flags: W
HStem: -6 85<194.638 370.134> 498 21<384 428.023> 561 85<201.235 358.694> 591 226
VStem: 32 107<138.295 504.492> 157 235
LayerCount: 2
Back
SplineSet
157 786 m 1
 193 816 l 1
 275 746 l 1
 357 817 l 1
 392 787 l 1
 307 645 l 1
 385 638 440 603 466 541 c 1
 395 498 l 1
 373 530 348 561 288 561 c 0
 198 561 139 507 139 440 c 2
 139 219 l 2
 139 138 185 79 271 79 c 0
 377 79 401 125 416 143 c 1
 475 92 l 1
 451 54 377 -6 259 -6 c 0
 129 -6 32 68 32 202 c 2
 32 426 l 2
 32 557 122 634 243 645 c 1
 157 786 l 1
EndSplineSet
Fore
Refer: 275 780 S 1 0 0 1 520 110 2
Refer: 11 67 N 1 0 0 1 0 0 2
Validated: 5
EndChar

StartChar: Ccedilla
Encoding: 199 199 14
Width: 506
VWidth: 0
UnlinkRmOvrlpSave: 1
Flags: W
HStem: -200 37<174.891 259.714> -158 20<150 173> -6 85<194.638 370.134> 498 21<384 428.023> 561 85<201.235 358.694>
VStem: 32 107<138.295 504.492> 268 82<-158.129 -92.8418>
LayerCount: 2
Back
SplineSet
466 541 m 1
 395 498 l 1
 373 530 348 561 288 561 c 0
 198 561 139 507 139 440 c 2
 139 219 l 2
 139 138 185 79 271 79 c 0
 377 79 401 125 416 143 c 1
 475 92 l 1
 455 61 401 14 317 -1 c 1
 266 -53 l 1
 318 -61 350 -86 350 -122 c 0
 350 -166 316 -200 242 -200 c 0
 200 -200 167 -180 148 -162 c 1
 160 -138 l 1
 186 -157 202 -163 227 -163 c 0
 251 -163 268 -144 268 -120 c 0
 268 -92 213 -76 169 -72 c 1
 225 -4 l 1
 113 8 32 80 32 202 c 2
 32 426 l 2
 32 568 138 646 274 646 c 0
 370 646 436 611 466 541 c 1
EndSplineSet
Fore
Refer: 278 807 S 1 0 0 1 520 0 2
Refer: 11 67 N 1 0 0 1 0 0 2
Validated: 5
EndChar

StartChar: D
Encoding: 68 68 15
Width: 522
VWidth: 0
Flags: W
HStem: 0 85<147 331.824> 555 85<147 324.482>
VStem: 40 107<85 555> 381 107<135.3 502.266>
LayerCount: 2
Fore
SplineSet
266 0 m 2
 40 0 l 1
 40 640 l 1
 253 640 l 2
 403 640 488 555 488 424 c 2
 488 218 l 2
 488 78 405 0 266 0 c 2
237 555 m 2
 147 555 l 1
 147 85 l 1
 251 85 l 2
 353 85 381 152 381 226 c 2
 381 420 l 2
 381 510 329 555 237 555 c 2
EndSplineSet
Validated: 1
EndChar

StartChar: Dcaron
Encoding: 270 270 16
Width: 522
VWidth: 0
UnlinkRmOvrlpSave: 1
Flags: W
HStem: 0 85<147 331.824> 555 85<147 324.482> 591 226
VStem: 40 107<85 555> 124 235 381 107<135.3 502.266>
LayerCount: 2
Back
SplineSet
124 786 m 1
 160 816 l 1
 242 746 l 1
 324 817 l 1
 359 787 l 1
 271 640 l 1
 410 633 488 550 488 424 c 2
 488 218 l 2
 488 78 405 0 266 0 c 2
 40 0 l 1
 40 640 l 1
 212 640 l 1
 124 786 l 1
237 555 m 2
 147 555 l 1
 147 85 l 1
 251 85 l 2
 353 85 381 152 381 226 c 2
 381 420 l 2
 381 510 329 555 237 555 c 2
EndSplineSet
Fore
Refer: 275 780 S 1 0 0 1 487 110 2
Refer: 15 68 N 1 0 0 1 0 0 2
Validated: 5
EndChar

StartChar: E
Encoding: 69 69 18
Width: 464
VWidth: 0
Flags: W
HStem: 0 85<147 433> 290 85<147 321> 554 86<147 403>
VStem: 40 107<85 290 375 554>
LayerCount: 2
Fore
SplineSet
147 85 m 1
 433 85 l 1
 433 0 l 1
 40 0 l 1
 40 640 l 1
 403 640 l 1
 403 554 l 1
 147 554 l 1
 147 375 l 1
 321 375 l 1
 321 290 l 1
 147 290 l 1
 147 85 l 1
EndSplineSet
Validated: 1
EndChar

StartChar: Eacute
Encoding: 201 201 19
Width: 464
VWidth: 0
Flags: W
HStem: 0 85<147 433> 290 85<147 321> 554 86<147 403> 660 157
VStem: 40 107<85 290 375 554> 180 197
LayerCount: 2
Back
SplineSet
147 85 m 1
 433 85 l 1
 433 0 l 1
 40 0 l 1
 40 640 l 1
 403 640 l 1
 403 554 l 1
 147 554 l 1
 147 375 l 1
 321 375 l 1
 321 290 l 1
 147 290 l 1
 147 85 l 1
180 700 m 1
 324 817 l 1
 377 725 l 1
 203 660 l 1
 180 700 l 1
EndSplineSet
Fore
Refer: 281 57345 S 1 0 0 1 448 0 2
Refer: 18 69 N 1 0 0 1 0 0 2
Validated: 1
EndChar

StartChar: Ecaron
Encoding: 282 282 20
Width: 464
VWidth: 0
UnlinkRmOvrlpSave: 1
Flags: W
HStem: 0 85<147 433> 290 85<147 321> 554 86<147 403> 591 226
VStem: 40 107<85 290 375 554> 124 235
LayerCount: 2
Back
SplineSet
124 786 m 1
 160 816 l 1
 242 746 l 1
 324 817 l 1
 359 787 l 1
 271 640 l 1
 403 640 l 1
 403 554 l 1
 147 554 l 1
 147 375 l 1
 321 375 l 1
 321 290 l 1
 147 290 l 1
 147 85 l 1
 433 85 l 1
 433 0 l 1
 40 0 l 1
 40 640 l 1
 212 640 l 1
 124 786 l 1
EndSplineSet
Fore
Refer: 275 780 S 1 0 0 1 487 110 2
Refer: 18 69 N 1 0 0 1 0 0 2
Validated: 5
EndChar

StartChar: Ecircumflex
Encoding: 202 202 21
Width: 464
VWidth: 0
Flags: W
HStem: 0 85<147 433> 290 85<147 321> 554 86<147 403> 660 157
VStem: 40 107<85 290 375 554> 82 288
LayerCount: 2
Back
SplineSet
147 85 m 1
 433 85 l 1
 433 0 l 1
 40 0 l 1
 40 640 l 1
 403 640 l 1
 403 554 l 1
 147 554 l 1
 147 375 l 1
 321 375 l 1
 321 290 l 1
 147 290 l 1
 147 85 l 1
373 700 m 1
 350 660 l 1
 229 705 l 1
 108 660 l 1
 85 700 l 1
 229 817 l 1
 373 700 l 1
EndSplineSet
Fore
Refer: 267 770 S 1 0 0 1 471 97 2
Refer: 18 69 N 1 0 0 1 0 0 2
Validated: 1
EndChar

StartChar: Edieresis
Encoding: 203 203 22
Width: 464
VWidth: 0
Flags: W
HStem: 0 85<147 433> 290 85<147 321> 554 86<147 403> 688 118<89.6616 180.338 281.662 372.338>
VStem: 40 107<85 290 375 554> 76 118<701.662 792.338> 268 118<701.662 792.338>
LayerCount: 2
Back
SplineSet
147 85 m 1
 433 85 l 1
 433 0 l 1
 40 0 l 1
 40 640 l 1
 403 640 l 1
 403 554 l 1
 147 554 l 1
 147 375 l 1
 321 375 l 1
 321 290 l 1
 147 290 l 1
 147 85 l 1
71 747 m 0
 71 779 98 806 130 806 c 0
 162 806 189 779 189 747 c 0
 189 715 162 688 130 688 c 0
 98 688 71 715 71 747 c 0
263 747 m 0
 263 779 290 806 322 806 c 0
 354 806 381 779 381 747 c 0
 381 715 354 688 322 688 c 0
 290 688 263 715 263 747 c 0
EndSplineSet
Fore
Refer: 272 776 S 1 0 0 1 477 125 2
Refer: 18 69 N 1 0 0 1 0 0 2
Validated: 1
EndChar

StartChar: Egrave
Encoding: 200 200 23
Width: 464
VWidth: 0
Flags: W
HStem: 0 85<147 433> 290 85<147 321> 554 86<147 403> 660 157
VStem: 40 107<85 290 375 554> 99 197
LayerCount: 2
Back
SplineSet
147 85 m 1
 433 85 l 1
 433 0 l 1
 40 0 l 1
 40 640 l 1
 403 640 l 1
 403 554 l 1
 147 554 l 1
 147 375 l 1
 321 375 l 1
 321 290 l 1
 147 290 l 1
 147 85 l 1
296 700 m 1
 273 660 l 1
 99 725 l 1
 152 817 l 1
 296 700 l 1
EndSplineSet
Fore
Refer: 280 57344 S 1 0 0 1 518 0 2
Refer: 18 69 N 1 0 0 1 0 0 2
Validated: 1
EndChar

StartChar: Eogonek
Encoding: 280 280 24
Width: 464
VWidth: 0
UnlinkRmOvrlpSave: 1
Flags: W
HStem: -194 48<280.049 383.723> 0 42<329.499 399> 0 85<147 433> 290 85<147 321> 554 86<147 403>
VStem: 40 107<85 290 375 554> 169 100<-135.513 -43.7122>
LayerCount: 2
Back
SplineSet
433 85 m 1
 433 0 l 1
 399 0 l 1
 309 -18 269 -49 269 -86 c 0
 269 -131 295 -146 331 -146 c 0
 363 -146 409 -118 409 -118 c 1
 425 -140 l 1
 425 -140 373 -194 316 -194 c 0
 216 -194 169 -156 169 -86 c 0
 169 -55 201 -24 249 0 c 1
 40 0 l 1
 40 640 l 1
 403 640 l 1
 403 554 l 1
 147 554 l 1
 147 375 l 1
 321 375 l 1
 321 290 l 1
 147 290 l 1
 147 85 l 1
 433 85 l 1
EndSplineSet
Fore
Refer: 279 808 S 1 0 0 1 533 0 2
Refer: 18 69 N 1 0 0 1 0 0 2
Validated: 5
EndChar

StartChar: Eth
Encoding: 208 208 25
Width: 561
VWidth: 0
Flags: W
HStem: 0 85<186 370.824> 282 92<27 79 186 291> 555 85<186 363.482>
VStem: 79 107<85 282 374 555> 420 107<135.3 502.266>
LayerCount: 2
Fore
SplineSet
291 282 m 1
 186 282 l 1
 186 85 l 1
 290 85 l 2
 392 85 420 152 420 226 c 2
 420 420 l 2
 420 510 368 555 276 555 c 2
 186 555 l 1
 186 374 l 1
 291 374 l 1
 291 282 l 1
27 282 m 1
 27 374 l 1
 79 374 l 1
 79 640 l 1
 292 640 l 2
 442 640 527 555 527 424 c 2
 527 218 l 2
 527 78 444 0 305 0 c 2
 79 0 l 1
 79 282 l 1
 27 282 l 1
EndSplineSet
Validated: 1
EndChar

StartChar: Euro
Encoding: 8364 8364 26
Width: 566
VWidth: 0
Flags: W
HStem: -6 85<254.638 430.134> 233 58<29 92 199 383> 367 58<29 92 199 383> 498 21G<444 488.023> 561 85<261.235 418.694>
VStem: 92 107<138.295 233 291 367 425 504.492>
LayerCount: 2
Fore
SplineSet
92 291 m 1
 92 367 l 1
 29 367 l 1
 29 425 l 1
 92 425 l 1
 92 426 l 2
 92 568 198 646 334 646 c 0
 430 646 496 611 526 541 c 1
 455 498 l 1
 433 530 408 561 348 561 c 0
 258 561 199 507 199 440 c 2
 199 425 l 1
 383 425 l 1
 383 367 l 1
 199 367 l 1
 199 291 l 1
 383 291 l 1
 383 233 l 1
 199 233 l 1
 199 219 l 2
 199 138 245 79 331 79 c 0
 437 79 461 125 476 143 c 1
 535 92 l 1
 511 54 437 -6 319 -6 c 0
 189 -6 92 68 92 202 c 2
 92 233 l 1
 29 233 l 1
 29 291 l 1
 92 291 l 1
EndSplineSet
Validated: 1
EndChar

StartChar: F
Encoding: 70 70 27
Width: 439
VWidth: 0
Flags: W
HStem: 0 21G<40 147> 290 85<147 321> 554 86<147 417>
VStem: 40 107<0 290 375 554>
LayerCount: 2
Fore
SplineSet
321 290 m 1
 147 290 l 1
 147 0 l 1
 40 0 l 1
 40 640 l 1
 417 640 l 1
 417 554 l 1
 147 554 l 1
 147 375 l 1
 321 375 l 1
 321 290 l 1
EndSplineSet
Validated: 1
EndChar

StartChar: G
Encoding: 71 71 28
Width: 560
VWidth: 0
Flags: W
HStem: -6 85<208.048 370.638> 266 85<312 433> 498 21G<414 458.023> 561 85<210.214 381.606>
VStem: 32 107<149.067 499.033> 433 95<146.726 266>
LayerCount: 2
Fore
SplineSet
279 -6 m 0
 149 -6 32 68 32 202 c 2
 32 426 l 2
 32 568 153 646 289 646 c 0
 385 646 466 611 496 541 c 1
 425 498 l 1
 403 530 363 561 303 561 c 0
 213 561 139 507 139 440 c 2
 139 219 l 2
 139 138 205 79 291 79 c 0
 416 79 433 179 433 266 c 1
 312 266 l 1
 312 351 l 1
 528 351 l 1
 528 235 l 2
 528 73 426 -6 279 -6 c 0
EndSplineSet
Validated: 1
EndChar

StartChar: Gbreve
Encoding: 286 286 29
Width: 560
VWidth: 0
Flags: W
HStem: -6 85<208.048 370.638> 266 85<312 433> 498 21<414 458.023> 561 85<210.214 381.606> 667 82<239.82 350.18>
VStem: 32 107<149.067 499.033> 172 246 433 95<146.726 266>
LayerCount: 2
Back
SplineSet
279 -6 m 0
 149 -6 32 68 32 202 c 2
 32 426 l 2
 32 568 153 646 289 646 c 0
 385 646 466 611 496 541 c 1
 425 498 l 1
 403 530 363 561 303 561 c 0
 213 561 139 507 139 440 c 2
 139 219 l 2
 139 138 205 79 291 79 c 0
 416 79 433 179 433 266 c 1
 312 266 l 1
 312 351 l 1
 528 351 l 1
 528 235 l 2
 528 73 426 -6 279 -6 c 0
295 667 m 0
 216 667 175 742 172 799 c 1
 221 799 l 1
 234 765 263 749 295 749 c 0
 327 749 356 765 369 799 c 1
 418 799 l 1
 415 742 374 667 295 667 c 0
EndSplineSet
Fore
Refer: 270 774 N 1 0 0 1 540 108 2
Refer: 28 71 N 1 0 0 1 0 0 2
Validated: 1
EndChar

StartChar: H
Encoding: 72 72 30
Width: 528
VWidth: 0
Flags: W
HStem: 0 21G<40 147 381 488> 290 85<147 381> 620 20G<40 147 381 488>
VStem: 40 107<0 290 375 640> 381 107<0 290 375 640>
LayerCount: 2
Fore
SplineSet
147 290 m 1
 147 0 l 1
 40 0 l 1
 40 640 l 1
 147 640 l 1
 147 375 l 1
 381 375 l 1
 381 640 l 1
 488 640 l 1
 488 0 l 1
 381 0 l 1
 381 290 l 1
 147 290 l 1
EndSplineSet
Validated: 1
EndChar

StartChar: I
Encoding: 73 73 31
Width: 264
VWidth: 0
Flags: W
HStem: 0 69<34 79 186 231> 571 69<34 79 186 231>
VStem: 34 197<0 69 571 640>
LayerCount: 2
Fore
SplineSet
34 69 m 1
 79 69 l 1
 79 571 l 1
 34 571 l 1
 34 640 l 1
 231 640 l 1
 231 571 l 1
 186 571 l 1
 186 69 l 1
 231 69 l 1
 231 0 l 1
 34 0 l 1
 34 69 l 1
EndSplineSet
Validated: 1
EndChar

StartChar: Iacute
Encoding: 205 205 32
Width: 264
VWidth: 0
Flags: W
HStem: 0 69<34 79 186 231> 571 69<34 79 186 231> 660 157
VStem: 34 197<0 69 571 640> 45 197
LayerCount: 2
Back
SplineSet
34 69 m 1
 79 69 l 1
 79 571 l 1
 34 571 l 1
 34 640 l 1
 231 640 l 1
 231 571 l 1
 186 571 l 1
 186 69 l 1
 231 69 l 1
 231 0 l 1
 34 0 l 1
 34 69 l 1
44 700 m 1
 188 817 l 1
 241 725 l 1
 67 660 l 1
 44 700 l 1
EndSplineSet
Fore
Refer: 281 57345 N 1 0 0 1 313 0 2
Refer: 31 73 N 1 0 0 1 0 0 2
Validated: 1
EndChar

StartChar: Icircumflex
Encoding: 206 206 33
Width: 320
VWidth: 0
Flags: W
HStem: 0 69<62 107 214 259> 571 69<62 107 214 259> 660 157
VStem: 18 288 62 197<0 69 571 640>
LayerCount: 2
Back
SplineSet
62 69 m 1
 107 69 l 1
 107 571 l 1
 62 571 l 1
 62 640 l 1
 259 640 l 1
 259 571 l 1
 214 571 l 1
 214 69 l 1
 259 69 l 1
 259 0 l 1
 62 0 l 1
 62 69 l 1
306 700 m 1
 283 660 l 1
 162 705 l 1
 41 660 l 1
 18 700 l 1
 162 817 l 1
 306 700 l 1
EndSplineSet
Fore
Refer: 267 770 N 1 0 0 1 407 97 2
Refer: 31 73 N 1 0 0 1 28 0 2
Validated: 1
EndChar

StartChar: Idieresis
Encoding: 207 207 34
Width: 332
VWidth: 0
Flags: W
HStem: 0 69<67 112 219 264> 571 69<67 112 219 264> 688 118<25.6616 116.338 217.662 308.338>
VStem: 12 118<701.662 792.338> 67 197<0 69 571 640> 204 118<701.662 792.338>
LayerCount: 2
Back
SplineSet
67 69 m 1
 112 69 l 1
 112 571 l 1
 67 571 l 1
 67 640 l 1
 264 640 l 1
 264 571 l 1
 219 571 l 1
 219 69 l 1
 264 69 l 1
 264 0 l 1
 67 0 l 1
 67 69 l 1
12 747 m 0
 12 779 39 806 71 806 c 0
 103 806 130 779 130 747 c 0
 130 715 103 688 71 688 c 0
 39 688 12 715 12 747 c 0
204 747 m 0
 204 779 231 806 263 806 c 0
 295 806 322 779 322 747 c 0
 322 715 295 688 263 688 c 0
 231 688 204 715 204 747 c 0
EndSplineSet
Fore
Refer: 272 776 N 1 0 0 1 413 125 2
Refer: 31 73 N 1 0 0 1 33 0 2
Validated: 1
EndChar

StartChar: Idotaccent
Encoding: 304 304 35
Width: 264
VWidth: 0
Flags: W
HStem: 0 69<34 79 186 231> 571 69<34 79 186 231> 688 118<87.6616 178.338>
VStem: 34 197<0 69 571 640> 74 118<701.662 792.338>
LayerCount: 2
Back
SplineSet
34 69 m 1
 79 69 l 1
 79 571 l 1
 34 571 l 1
 34 640 l 1
 231 640 l 1
 231 571 l 1
 186 571 l 1
 186 69 l 1
 231 69 l 1
 231 0 l 1
 34 0 l 1
 34 69 l 1
74 747 m 0
 74 779 101 806 133 806 c 0
 165 806 192 779 192 747 c 0
 192 715 165 688 133 688 c 0
 101 688 74 715 74 747 c 0
EndSplineSet
Fore
Refer: 271 775 S 1 0 0 1 378 125 2
Refer: 31 73 N 1 0 0 1 0 0 2
Validated: 1
EndChar

StartChar: Igrave
Encoding: 204 204 36
Width: 264
VWidth: 0
Flags: W
HStem: 0 69<34 79 186 231> 571 69<34 79 186 231> 660 157
VStem: 24 197 34 197<0 69 571 640>
LayerCount: 2
Back
SplineSet
34 69 m 1
 79 69 l 1
 79 571 l 1
 34 571 l 1
 34 640 l 1
 231 640 l 1
 231 571 l 1
 186 571 l 1
 186 69 l 1
 231 69 l 1
 231 0 l 1
 34 0 l 1
 34 69 l 1
221 700 m 1
 198 660 l 1
 24 725 l 1
 77 817 l 1
 221 700 l 1
EndSplineSet
Fore
Refer: 280 57344 N 1 0 0 1 443 0 2
Refer: 31 73 N 1 0 0 1 0 0 2
Validated: 1
EndChar

StartChar: J
Encoding: 74 74 37
Width: 507
VWidth: 0
Flags: W
HStem: -6 85<131.866 307.362> 620 20G<363 470>
VStem: 363 107<138.295 640>
LayerCount: 2
Fore
SplineSet
363 219 m 2
 363 640 l 1
 470 640 l 1
 470 202 l 2
 470 68 373 -6 243 -6 c 0
 125 -6 51 54 27 92 c 1
 86 143 l 1
 101 125 125 79 231 79 c 0
 317 79 363 138 363 219 c 2
EndSplineSet
Validated: 1
EndChar

StartChar: K
Encoding: 75 75 38
Width: 543
VWidth: 0
Flags: W
HStem: 0 21G<40 147 387.582 519> 620 20G<40 147 371 513>
VStem: 40 107<0 274 396 640>
LayerCount: 2
Fore
SplineSet
147 274 m 1
 147 0 l 1
 40 0 l 1
 40 640 l 1
 147 640 l 1
 147 396 l 1
 391 640 l 1
 513 640 l 1
 259 386 l 1
 519 0 l 1
 401 0 l 1
 189 316 l 1
 147 274 l 1
EndSplineSet
Validated: 1
EndChar

StartChar: L
Encoding: 76 76 39
Width: 461
VWidth: 0
Flags: W
HStem: 0 85<147 433> 620 20G<40 147>
VStem: 40 107<85 640>
LayerCount: 2
Fore
SplineSet
433 85 m 1
 433 0 l 1
 40 0 l 1
 40 640 l 1
 147 640 l 1
 147 85 l 1
 433 85 l 1
EndSplineSet
Validated: 1
EndChar

StartChar: Lacute
Encoding: 313 313 40
Width: 461
VWidth: 0
Flags: W
HStem: 0 85<147 433> 620 20<40 147> 660 157
VStem: 40 107<85 640> 88 197
LayerCount: 2
Back
SplineSet
433 85 m 1
 433 0 l 1
 40 0 l 1
 40 640 l 1
 147 640 l 1
 147 85 l 1
 433 85 l 1
88 700 m 1
 232 817 l 1
 285 725 l 1
 111 660 l 1
 88 700 l 1
EndSplineSet
Fore
Refer: 281 57345 N 1 0 0 1 356 0 2
Refer: 39 76 N 1 0 0 1 0 0 2
Validated: 1
EndChar

StartChar: Lcaron
Encoding: 317 317 41
Width: 461
VWidth: 0
Flags: W
HStem: 0 85<147 433> 458 250 620 20<40 147>
VStem: 40 107<85 640> 278 67<534.461 638>
LayerCount: 2
Back
SplineSet
433 85 m 1
 433 0 l 1
 40 0 l 1
 40 640 l 1
 147 640 l 1
 147 85 l 1
 433 85 l 1
220 649 m 0
 220 687 245 708 283 708 c 0
 331 708 345 662 345 614 c 0
 345 547 288 476 270 458 c 1
 248 472 l 1
 263 501 278 530 278 568 c 0
 278 601 220 601 220 649 c 0
EndSplineSet
Fore
Refer: 282 787 N 1 0 0 1 503 -89 2
Refer: 39 76 N 1 0 0 1 0 0 2
Validated: 1
EndChar

StartChar: Lslash
Encoding: 321 321 42
Width: 533
VWidth: 0
UnlinkRmOvrlpSave: 1
Flags: W
HStem: 0 85<219 505> 620 20<112 219>
VStem: 112 107<85 640>
LayerCount: 2
Back
SplineSet
112 640 m 1
 219 640 l 1
 219 439 l 1
 283 484 l 1
 324 425 l 1
 219 351 l 1
 219 85 l 1
 505 85 l 1
 505 0 l 1
 112 0 l 1
 112 276 l 1
 62 241 l 5
 20 300 l 5
 112 364 l 1
 112 640 l 1
EndSplineSet
Fore
SplineSet
62 241 m 1
 20 300 l 1
 283 484 l 1
 324 425 l 1
 62 241 l 1
EndSplineSet
Refer: 39 76 N 1 0 0 1 72 0 2
Validated: 5
EndChar

StartChar: M
Encoding: 77 77 43
Width: 661
VWidth: 0
Flags: W
HStem: 0 21G<40 147 292.72 368.28 514 621> 620 20G<40 139.421 521.621 621>
VStem: 40 107<0 372> 514 107<0 372>
LayerCount: 2
Fore
SplineSet
514 372 m 1
 360 0 l 1
 301 0 l 1
 147 372 l 1
 147 0 l 1
 40 0 l 1
 40 640 l 1
 131 640 l 1
 331 165 l 1
 530 640 l 1
 621 640 l 1
 621 0 l 1
 514 0 l 1
 514 372 l 1
EndSplineSet
Validated: 1
EndChar

StartChar: N
Encoding: 78 78 44
Width: 542
VWidth: 0
Flags: W
HStem: 0 21G<40 147 382.949 502> 620 20G<40 159.051 395 502>
VStem: 40 107<0 447> 395 107<193 640>
LayerCount: 2
Fore
SplineSet
502 0 m 1
 394 0 l 1
 147 447 l 1
 147 0 l 1
 40 0 l 1
 40 640 l 1
 148 640 l 1
 395 193 l 1
 395 640 l 1
 502 640 l 1
 502 0 l 1
EndSplineSet
Validated: 1
EndChar

StartChar: Nacute
Encoding: 323 323 45
Width: 542
VWidth: 0
Flags: W
HStem: 0 21<40 147 382.949 502> 620 20<40 159.051 395 502> 660 157
VStem: 40 107<0 447> 222 197 395 107<193 640>
LayerCount: 2
Back
SplineSet
502 0 m 1
 394 0 l 1
 147 447 l 1
 147 0 l 1
 40 0 l 1
 40 640 l 1
 148 640 l 1
 395 193 l 1
 395 640 l 1
 502 640 l 1
 502 0 l 1
222 700 m 1
 366 817 l 1
 419 725 l 1
 245 660 l 1
 222 700 l 1
EndSplineSet
Fore
Refer: 281 57345 S 1 0 0 1 490 0 2
Refer: 44 78 N 1 0 0 1 0 0 2
Validated: 1
EndChar

StartChar: Ncaron
Encoding: 327 327 46
Width: 542
VWidth: 0
Flags: W
HStem: 0 21<40 147 382.949 502> 591 226 620 20<40 159.051 395 502>
VStem: 40 107<0 447> 160 235 395 107<193 640>
LayerCount: 2
Back
SplineSet
502 0 m 1
 394 0 l 1
 147 447 l 1
 147 0 l 1
 40 0 l 1
 40 640 l 1
 148 640 l 1
 395 193 l 1
 395 640 l 1
 502 640 l 1
 502 0 l 1
160 786 m 1
 196 816 l 1
 278 746 l 1
 360 817 l 1
 395 787 l 1
 278 591 l 1
 160 786 l 1
EndSplineSet
Fore
Refer: 275 780 N 1 0 0 1 523 110 2
Refer: 44 78 N 1 0 0 1 0 0 2
Validated: 1
EndChar

StartChar: Ntilde
Encoding: 209 209 47
Width: 542
VWidth: 0
Flags: W
HStem: 0 21<40 147 382.949 502> 620 20<40 159.051 395 502> 660 92<289.516 367.378> 721 92<177.622 255.484>
VStem: 40 107<0 447> 395 107<193 640>
LayerCount: 2
Back
SplineSet
502 0 m 1
 394 0 l 1
 147 447 l 1
 147 0 l 1
 40 0 l 1
 40 640 l 1
 148 640 l 1
 395 193 l 1
 395 640 l 1
 502 640 l 1
 502 0 l 1
199 721 m 0
 187 721 181 706 162 670 c 1
 97 694 l 1
 131 788 156 813 184 813 c 0
 254 813 299 752 346 752 c 0
 358 752 364 767 383 803 c 1
 448 778 l 1
 414 684 389 660 361 660 c 0
 291 660 246 721 199 721 c 0
EndSplineSet
Fore
Refer: 268 771 S 1 0 0 1 524 97 2
Refer: 44 78 N 1 0 0 1 0 0 2
Validated: 1
EndChar

StartChar: O
Encoding: 79 79 48
Width: 536
VWidth: 0
Flags: W
HStem: -8 85<185.186 350.247> 563 85<183.753 348.814>
VStem: 33 107<122.004 517.083> 394 107<122.917 517.996>
LayerCount: 2
Fore
SplineSet
394 226 m 2
 394 426 l 2
 394 525 349 563 267 563 c 0
 167 563 140 510 140 414 c 2
 140 214 l 2
 140 115 185 77 267 77 c 0
 367 77 394 130 394 226 c 2
501 462 m 2
 501 194 l 2
 501 66 401 -8 267 -8 c 0
 158 -8 33 46 33 178 c 2
 33 446 l 2
 33 574 133 648 267 648 c 0
 376 648 501 594 501 462 c 2
EndSplineSet
Validated: 1
EndChar

StartChar: OE
Encoding: 338 338 49
Width: 757
VWidth: 0
Flags: W
HStem: -8 85<185.186 332.241> 0 85<440 726> 290 85<440 614> 554 86<440 696> 563 85<183.753 332.123>
VStem: 33 107<122.004 517.083> 333 107<85.2276 290 375 553.812>
LayerCount: 2
Fore
SplineSet
340 640 m 1x36
 696 640 l 1
 696 554 l 1
 440 554 l 1
 440 375 l 1
 614 375 l 1
 614 290 l 1
 440 290 l 1
 440 85 l 1
 726 85 l 1
 726 0 l 1
 341 0 l 1x76
 318 -5 293 -8 267 -8 c 0
 158 -8 33 46 33 178 c 2
 33 446 l 2
 33 574 133 648 267 648 c 0xae
 291 648 316 645 340 640 c 1x36
333 88 m 1
 333 551 l 1
 315 559 293 563 267 563 c 0
 167 563 140 510 140 414 c 2
 140 214 l 2
 140 115 185 77 267 77 c 0xae
 294 77 316 81 333 88 c 1
EndSplineSet
Validated: 1
EndChar

StartChar: Oacute
Encoding: 211 211 50
Width: 536
VWidth: 0
Flags: W
HStem: -8 85<185.186 350.247> 563 85<183.753 348.814> 660 157
VStem: 33 107<122.004 517.083> 216 197 394 107<122.917 517.996>
LayerCount: 2
Back
SplineSet
394 226 m 2
 394 426 l 2
 394 525 349 563 267 563 c 0
 167 563 140 510 140 414 c 2
 140 214 l 2
 140 115 185 77 267 77 c 0
 367 77 394 130 394 226 c 2
501 462 m 2
 501 194 l 2
 501 66 401 -8 267 -8 c 0
 158 -8 33 46 33 178 c 2
 33 446 l 2
 33 574 133 648 267 648 c 0
 376 648 501 594 501 462 c 2
216 700 m 1
 360 817 l 1
 413 725 l 1
 239 660 l 1
 216 700 l 1
EndSplineSet
Fore
Refer: 281 57345 S 1 0 0 1 484 0 2
Refer: 48 79 N 1 0 0 1 0 0 2
Validated: 1
EndChar

StartChar: Ocircumflex
Encoding: 212 212 51
Width: 536
VWidth: 0
Flags: W
HStem: -8 85<185.186 350.247> 563 85<183.753 348.814> 660 157
VStem: 33 107<122.004 517.083> 124 288 394 107<122.917 517.996>
LayerCount: 2
Back
SplineSet
394 226 m 2
 394 426 l 2
 394 525 349 563 267 563 c 0
 167 563 140 510 140 414 c 2
 140 214 l 2
 140 115 185 77 267 77 c 0
 367 77 394 130 394 226 c 2
501 462 m 2
 501 194 l 2
 501 66 401 -8 267 -8 c 0
 158 -8 33 46 33 178 c 2
 33 446 l 2
 33 574 133 648 267 648 c 0
 376 648 501 594 501 462 c 2
412 700 m 1
 389 660 l 1
 268 705 l 1
 147 660 l 1
 124 700 l 1
 268 817 l 1
 412 700 l 1
EndSplineSet
Fore
Refer: 267 770 S 1 0 0 1 513 97 2
Refer: 48 79 N 1 0 0 1 0 0 2
Validated: 1
EndChar

StartChar: Odieresis
Encoding: 214 214 52
Width: 536
VWidth: 0
Flags: W
HStem: -8 85<185.186 350.247> 563 85<183.753 348.814> 688 118<126.662 217.338 318.662 409.338>
VStem: 33 107<122.004 517.083> 113 118<701.662 792.338> 305 118<701.662 792.338> 394 107<122.917 517.996>
LayerCount: 2
Back
SplineSet
394 226 m 2
 394 426 l 2
 394 525 349 563 267 563 c 0
 167 563 140 510 140 414 c 2
 140 214 l 2
 140 115 185 77 267 77 c 0
 367 77 394 130 394 226 c 2
501 462 m 2
 501 194 l 2
 501 66 401 -8 267 -8 c 0
 158 -8 33 46 33 178 c 2
 33 446 l 2
 33 574 133 648 267 648 c 0
 376 648 501 594 501 462 c 2
113 747 m 0
 113 779 140 806 172 806 c 0
 204 806 231 779 231 747 c 0
 231 715 204 688 172 688 c 0
 140 688 113 715 113 747 c 0
305 747 m 0
 305 779 332 806 364 806 c 0
 396 806 423 779 423 747 c 0
 423 715 396 688 364 688 c 0
 332 688 305 715 305 747 c 0
EndSplineSet
Fore
Refer: 272 776 S 1 0 0 1 514 125 2
Refer: 48 79 N 1 0 0 1 0 0 2
Validated: 1
EndChar

StartChar: Ograve
Encoding: 210 210 53
Width: 536
VWidth: 0
Flags: W
HStem: -8 85<185.186 350.247> 563 85<183.753 348.814> 660 157
VStem: 33 107<122.004 517.083> 116 197 394 107<122.917 517.996>
LayerCount: 2
Back
SplineSet
394 226 m 2
 394 426 l 2
 394 525 349 563 267 563 c 0
 167 563 140 510 140 414 c 2
 140 214 l 2
 140 115 185 77 267 77 c 0
 367 77 394 130 394 226 c 2
501 462 m 2
 501 194 l 2
 501 66 401 -8 267 -8 c 0
 158 -8 33 46 33 178 c 2
 33 446 l 2
 33 574 133 648 267 648 c 0
 376 648 501 594 501 462 c 2
312 700 m 1
 289 660 l 1
 115 725 l 1
 168 817 l 1
 312 700 l 1
EndSplineSet
Fore
Refer: 280 57344 S 1 0 0 1 535 0 2
Refer: 48 79 N 1 0 0 1 0 0 2
Validated: 1
EndChar

StartChar: Ohungarumlaut
Encoding: 336 336 54
Width: 536
VWidth: 0
Flags: W
HStem: -8 85<185.186 350.247> 563 85<183.753 348.814> 645 180
VStem: 33 107<122.004 517.083> 163 290 394 107<122.917 517.996>
LayerCount: 2
Back
SplineSet
394 226 m 2
 394 426 l 2
 394 525 349 563 267 563 c 0
 167 563 140 510 140 414 c 2
 140 214 l 2
 140 115 185 77 267 77 c 0
 367 77 394 130 394 226 c 2
501 462 m 2
 501 194 l 2
 501 66 401 -8 267 -8 c 0
 158 -8 33 46 33 178 c 2
 33 446 l 2
 33 574 133 648 267 648 c 0
 376 648 501 594 501 462 c 2
303 660 m 1
 369 825 l 1
 453 780 l 1
 343 645 l 1
 303 660 l 1
163 660 m 1
 229 825 l 1
 313 780 l 1
 203 645 l 1
 163 660 l 1
EndSplineSet
Fore
Refer: 274 779 S 1 0 0 1 509 80 2
Refer: 48 79 N 1 0 0 1 0 0 2
Validated: 1
EndChar

StartChar: Oslash
Encoding: 216 216 55
Width: 536
VWidth: 0
UnlinkRmOvrlpSave: 1
Flags: W
HStem: -8 85<185.186 350.247> 563 85<183.753 348.814>
VStem: 33 107<122.004 517.083> 394 107<122.917 517.996>
LayerCount: 2
Fore
SplineSet
156 -30 m 1
 96 -6 l 1
 370 670 l 1
 429 646 l 1
 156 -30 l 1
EndSplineSet
Refer: 48 79 N 1 0 0 1 0 0 2
Validated: 5
EndChar

StartChar: Otilde
Encoding: 213 213 56
Width: 536
VWidth: 0
Flags: W
HStem: -8 85<185.186 350.247> 563 85<183.753 348.814> 660 92<286.516 364.378> 721 92<174.622 252.484>
VStem: 33 107<122.004 517.083> 394 107<122.917 517.996>
LayerCount: 2
Back
SplineSet
394 226 m 2
 394 426 l 2
 394 525 349 563 267 563 c 0
 167 563 140 510 140 414 c 2
 140 214 l 2
 140 115 185 77 267 77 c 0
 367 77 394 130 394 226 c 2
501 462 m 2
 501 194 l 2
 501 66 401 -8 267 -8 c 0
 158 -8 33 46 33 178 c 2
 33 446 l 2
 33 574 133 648 267 648 c 0
 376 648 501 594 501 462 c 2
196 721 m 0
 184 721 178 706 159 670 c 1
 94 694 l 1
 128 788 153 813 181 813 c 0
 251 813 296 752 343 752 c 0
 355 752 361 767 380 803 c 1
 445 778 l 1
 411 684 386 660 358 660 c 0
 288 660 243 721 196 721 c 0
EndSplineSet
Fore
Refer: 268 771 S 1 0 0 1 521 97 2
Refer: 48 79 N 1 0 0 1 0 0 2
Validated: 1
EndChar

StartChar: P
Encoding: 80 80 57
Width: 494
VWidth: 0
Flags: W
HStem: 0 21G<40 147> 265 86<147 305.573> 555 85<147 321.758>
VStem: 40 107<0 265 351 555> 358 107<398.868 521.818>
LayerCount: 2
Fore
SplineSet
147 0 m 1
 40 0 l 1
 40 640 l 1
 257 640 l 2
 355 640 465 582 465 451 c 0
 465 350 342 265 244 265 c 2
 147 265 l 1
 147 0 l 1
242 555 m 2
 147 555 l 1
 147 351 l 1
 228 351 l 2
 301 351 358 398 358 455 c 0
 358 522 319 555 242 555 c 2
EndSplineSet
Validated: 1
EndChar

StartChar: Q
Encoding: 81 81 58
Width: 556
VWidth: 0
Flags: W
HStem: -148 79<242.858 420.224> -110 52<225 258.346> 563 85<191.558 361.401>
VStem: 33 107<127.563 511.79> 414 107<128.345 512.854>
LayerCount: 2
Fore
SplineSet
521 462 m 2x78
 521 194 l 2
 521 124 486 73 437 36 c 0
 390 1 287 -49 225 -58 c 1x78
 259 -58 273 -69 334 -69 c 0
 394 -69 434 -44 442 -32 c 1
 486 -68 l 1
 470 -98 410 -148 338 -148 c 0xb8
 268 -148 239 -110 149 -110 c 1
 146 -26 l 1
 169 -22 204 -16 240 -6 c 1
 140 5 33 61 33 178 c 2
 33 446 l 2
 33 574 143 648 277 648 c 0
 386 648 521 594 521 462 c 2x78
414 226 m 2
 414 426 l 2
 414 525 359 563 277 563 c 0
 177 563 140 510 140 414 c 2
 140 214 l 2
 140 115 195 77 277 77 c 0
 377 77 414 130 414 226 c 2
EndSplineSet
Validated: 1
EndChar

StartChar: R
Encoding: 82 82 59
Width: 513
VWidth: 0
Flags: W
HStem: 0 21G<40 147 358.5 485> 265 86<147 248.076> 555 85<147 321.758>
VStem: 40 107<0 265 351 555> 358 107<397.319 521.818> 367 118<0 69.5898>
LayerCount: 2
Fore
SplineSet
242 555 m 2xf8
 147 555 l 1
 147 351 l 1
 228 351 l 2
 301 351 358 398 358 455 c 0
 358 522 319 555 242 555 c 2xf8
147 0 m 1
 40 0 l 1
 40 640 l 1
 257 640 l 2
 355 640 465 582 465 451 c 0xf8
 465 377 400 312 327 282 c 1
 400 231 449 139 485 0 c 1
 367 0 l 1xf4
 350 117 300 224 215 265 c 1
 147 265 l 1
 147 0 l 1
EndSplineSet
Validated: 1
EndChar

StartChar: Racute
Encoding: 340 340 60
Width: 513
VWidth: 0
Flags: W
HStem: 0 21<40 147 358.5 485> 265 86<147 248.076> 555 85<147 321.758> 660 157
VStem: 40 107<0 265 351 555> 174 197 358 107<397.319 521.818> 367 118<0 69.5898>
LayerCount: 2
Back
SplineSet
242 555 m 2
 147 555 l 1
 147 351 l 1
 228 351 l 2
 301 351 358 398 358 455 c 0
 358 522 319 555 242 555 c 2
147 0 m 1
 40 0 l 1
 40 640 l 1
 257 640 l 2
 355 640 465 582 465 451 c 0
 465 377 400 312 327 282 c 1
 400 231 449 139 485 0 c 1
 367 0 l 1
 350 117 300 224 215 265 c 1
 147 265 l 1
 147 0 l 1
174 700 m 1
 318 817 l 1
 371 725 l 1
 197 660 l 1
 174 700 l 1
EndSplineSet
Fore
Refer: 281 57345 S 1 0 0 1 442 0 2
Refer: 59 82 N 1 0 0 1 0 0 2
Validated: 1
EndChar

StartChar: Rcaron
Encoding: 344 344 61
Width: 513
VWidth: 0
UnlinkRmOvrlpSave: 1
Flags: W
HStem: 0 21<40 147 358.5 485> 265 86<147 248.076> 555 85<147 321.758> 591 226
VStem: 40 107<0 265 351 555> 114 235 358 107<397.319 521.818> 367 118<0 69.5898>
LayerCount: 2
Back
SplineSet
114 786 m 1
 150 816 l 1
 232 746 l 1
 314 817 l 1
 349 787 l 1
 261 640 l 1
 358 638 465 580 465 451 c 0
 465 377 400 312 327 282 c 1
 400 231 449 139 485 0 c 1
 367 0 l 1
 350 117 300 224 215 265 c 1
 147 265 l 1
 147 0 l 1
 40 0 l 1
 40 640 l 1
 202 640 l 1
 114 786 l 1
242 555 m 2
 147 555 l 1
 147 351 l 1
 228 351 l 2
 301 351 358 398 358 455 c 0
 358 522 319 555 242 555 c 2
EndSplineSet
Fore
Refer: 275 780 S 1 0 0 1 477 110 2
Refer: 59 82 N 1 0 0 1 0 0 2
Validated: 5
EndChar

StartChar: S
Encoding: 83 83 62
Width: 522
VWidth: 0
Flags: W
HStem: -9 82<154.215 350.845> 562 85<193.668 352.944>
VStem: 57 107<414.212 534.105> 384 107<105.981 218.94>
LayerCount: 2
Fore
SplineSet
253 279 m 0
 162 303 57 358 57 466 c 0
 57 604 176 647 256 647 c 0
 370 647 434 581 468 542 c 1
 415 493 l 1
 391 525 332 562 261 562 c 0
 202 562 164 534 164 462 c 0
 164 406 232 378 284 362 c 0
 368 336 491 272 491 176 c 0
 491 62 406 -9 267 -9 c 0
 135 -9 55 53 29 95 c 1
 88 148 l 1
 114 105 182 73 260 73 c 0
 359 73 384 116 384 168 c 0
 384 224 318 262 253 279 c 0
EndSplineSet
Validated: 1
EndChar

StartChar: Sacute
Encoding: 346 346 63
Width: 522
VWidth: 0
Flags: W
HStem: -9 82<154.215 350.845> 562 85<193.668 352.944> 660 157
VStem: 57 107<414.212 534.105> 195 197 384 107<105.981 218.94>
LayerCount: 2
Back
SplineSet
253 279 m 0
 162 303 57 358 57 466 c 0
 57 604 176 647 256 647 c 0
 370 647 434 581 468 542 c 1
 415 493 l 1
 391 525 332 562 261 562 c 0
 202 562 164 534 164 462 c 0
 164 406 232 378 284 362 c 0
 368 336 491 272 491 176 c 0
 491 62 406 -9 267 -9 c 0
 135 -9 55 53 29 95 c 1
 88 148 l 1
 114 105 182 73 260 73 c 0
 359 73 384 116 384 168 c 0
 384 224 318 262 253 279 c 0
195 700 m 1
 339 817 l 1
 392 725 l 1
 218 660 l 1
 195 700 l 1
EndSplineSet
Fore
Refer: 281 57345 N 1 0 0 1 463 0 2
Refer: 62 83 N 1 0 0 1 0 0 2
Validated: 1
EndChar

StartChar: Scaron
Encoding: 352 352 64
Width: 522
VWidth: 0
UnlinkRmOvrlpSave: 1
Flags: W
HStem: -9 82<154.215 350.845> 562 85<193.668 352.944> 591 226
VStem: 57 107<414.212 534.105> 143 235 384 107<105.981 218.94>
LayerCount: 2
Back
SplineSet
143 786 m 1
 179 816 l 1
 261 746 l 1
 343 817 l 1
 378 787 l 1
 293 645 l 1
 384 633 438 577 468 542 c 1
 415 493 l 1
 391 525 332 562 261 562 c 0
 202 562 164 534 164 462 c 0
 164 406 232 378 284 362 c 0
 368 336 491 272 491 176 c 0
 491 62 406 -9 267 -9 c 0
 135 -9 55 53 29 95 c 1
 88 148 l 1
 114 105 182 73 260 73 c 0
 359 73 384 116 384 168 c 0
 384 224 318 262 253 279 c 0
 162 303 57 358 57 466 c 0
 57 589 151 636 228 645 c 1
 143 786 l 1
EndSplineSet
Fore
Refer: 275 780 S 1 0 0 1 506 110 2
Refer: 62 83 N 1 0 0 1 0 0 2
Validated: 5
EndChar

StartChar: Scedilla
Encoding: 350 350 65
Width: 522
VWidth: 0
UnlinkRmOvrlpSave: 1
Flags: W
HStem: -200 37<178.891 263.714> -158 20<154 177> -9 82<154.215 350.845> 562 85<193.668 352.944>
VStem: 57 107<414.212 534.105> 272 82<-158.129 -92.8418> 384 107<105.981 218.94>
LayerCount: 2
Back
SplineSet
253 279 m 0
 162 303 57 358 57 466 c 0
 57 604 176 647 256 647 c 0
 370 647 434 581 468 542 c 1
 415 493 l 1
 391 525 332 562 261 562 c 0
 202 562 164 534 164 462 c 0
 164 406 232 378 284 362 c 0
 368 336 491 272 491 176 c 0
 491 76 426 9 317 -6 c 1
 270 -53 l 1
 322 -61 354 -86 354 -122 c 0
 354 -166 320 -200 246 -200 c 0
 204 -200 171 -180 152 -162 c 1
 164 -138 l 1
 190 -157 206 -163 231 -163 c 0
 255 -163 272 -144 272 -120 c 0
 272 -92 217 -76 173 -72 c 1
 227 -7 l 1
 119 4 52 57 29 95 c 1
 88 148 l 1
 114 105 182 73 260 73 c 0
 359 73 384 116 384 168 c 0
 384 224 318 262 253 279 c 0
EndSplineSet
Fore
Refer: 278 807 N 1 0 0 1 524 0 2
Refer: 62 83 N 1 0 0 1 0 0 2
Validated: 5
EndChar

StartChar: T
Encoding: 84 84 66
Width: 496
VWidth: 0
Flags: W
HStem: 0 21G<195 302> 555 85<22 195 302 474>
VStem: 195 107<0 555>
LayerCount: 2
Fore
SplineSet
302 0 m 1
 195 0 l 1
 195 555 l 1
 22 555 l 1
 22 640 l 1
 474 640 l 1
 474 555 l 1
 302 555 l 1
 302 0 l 1
EndSplineSet
Validated: 1
EndChar

StartChar: Tcaron
Encoding: 356 356 67
Width: 496
VWidth: 0
UnlinkRmOvrlpSave: 1
Flags: W
HStem: 0 21<195 302> 555 85<22 195 302 474> 591 226
VStem: 133 235 195 107<0 555>
LayerCount: 2
Back
SplineSet
133 786 m 1
 169 816 l 1
 251 746 l 1
 333 817 l 1
 368 787 l 1
 280 640 l 1
 474 640 l 1
 474 555 l 1
 302 555 l 1
 302 0 l 1
 195 0 l 1
 195 555 l 1
 22 555 l 1
 22 640 l 1
 221 640 l 1
 133 786 l 1
EndSplineSet
Fore
Refer: 275 780 N 1 0 0 1 496 110 2
Refer: 66 84 N 1 0 0 1 0 0 2
Validated: 5
EndChar

StartChar: Thorn
Encoding: 222 222 68
Width: 494
VWidth: 0
Flags: W
HStem: 0 21G<40 147> 133 86<147 305.573> 423 85<147 321.758> 620 20G<40 147>
VStem: 40 107<0 133 219 423 508 640> 358 107<266.868 389.818>
LayerCount: 2
Fore
SplineSet
242 423 m 2
 147 423 l 1
 147 219 l 1
 228 219 l 2
 301 219 358 266 358 323 c 0
 358 390 319 423 242 423 c 2
147 133 m 1
 147 0 l 1
 40 0 l 1
 40 640 l 1
 147 640 l 1
 147 508 l 1
 257 508 l 2
 355 508 465 450 465 319 c 0
 465 218 342 133 244 133 c 2
 147 133 l 1
EndSplineSet
Validated: 1
EndChar

StartChar: U
Encoding: 85 85 69
Width: 540
VWidth: 0
Flags: W
HStem: -8 85<198.104 343.812> 620 20G<35 142 396 503>
VStem: 35 107<140.949 640> 396 107<140.5 640>
LayerCount: 2
Fore
SplineSet
396 264 m 2
 396 640 l 1
 503 640 l 1
 503 232 l 2
 503 104 412 -8 269 -8 c 0
 138 -8 35 84 35 216 c 2
 35 640 l 1
 142 640 l 1
 142 252 l 2
 142 153 174 77 269 77 c 0
 378 77 396 168 396 264 c 2
EndSplineSet
Validated: 1
EndChar

StartChar: Uacute
Encoding: 218 218 70
Width: 540
VWidth: 0
Flags: W
HStem: -8 85<198.104 343.812> 620 20<35 142 396 503> 660 157
VStem: 35 107<140.949 640> 216 197 396 107<140.5 640>
LayerCount: 2
Back
SplineSet
396 264 m 2
 396 640 l 1
 503 640 l 1
 503 232 l 2
 503 104 412 -8 269 -8 c 0
 138 -8 35 84 35 216 c 2
 35 640 l 1
 142 640 l 1
 142 252 l 2
 142 153 174 77 269 77 c 0
 378 77 396 168 396 264 c 2
217 700 m 1
 361 817 l 1
 414 725 l 1
 240 660 l 1
 217 700 l 1
EndSplineSet
Fore
Refer: 281 57345 N 1 0 0 1 484 0 2
Refer: 69 85 N 1 0 0 1 0 0 2
Validated: 1
EndChar

StartChar: Ucircumflex
Encoding: 219 219 71
Width: 540
VWidth: 0
Flags: W
HStem: -8 85<198.104 343.812> 620 20<35 142 396 503> 660 157
VStem: 35 107<140.949 640> 124 288 396 107<140.5 640>
LayerCount: 2
Back
SplineSet
396 264 m 2
 396 640 l 1
 503 640 l 1
 503 232 l 2
 503 104 412 -8 269 -8 c 0
 138 -8 35 84 35 216 c 2
 35 640 l 1
 142 640 l 1
 142 252 l 2
 142 153 174 77 269 77 c 0
 378 77 396 168 396 264 c 2
413 700 m 1
 390 660 l 1
 269 705 l 1
 148 660 l 1
 125 700 l 1
 269 817 l 1
 413 700 l 1
EndSplineSet
Fore
Refer: 267 770 N 1 0 0 1 513 97 2
Refer: 69 85 N 1 0 0 1 0 0 2
Validated: 1
EndChar

StartChar: Udieresis
Encoding: 220 220 72
Width: 540
VWidth: 0
Flags: W
HStem: -8 85<198.104 343.812> 620 20<35 142 396 503> 688 118<126.662 217.338 318.662 409.338>
VStem: 35 107<140.949 640> 113 118<701.662 792.338> 305 118<701.662 792.338> 396 107<140.5 640>
LayerCount: 2
Back
SplineSet
396 264 m 2
 396 640 l 1
 503 640 l 1
 503 232 l 2
 503 104 412 -8 269 -8 c 0
 138 -8 35 84 35 216 c 2
 35 640 l 1
 142 640 l 1
 142 252 l 2
 142 153 174 77 269 77 c 0
 378 77 396 168 396 264 c 2
114 747 m 0
 114 779 141 806 173 806 c 0
 205 806 232 779 232 747 c 0
 232 715 205 688 173 688 c 0
 141 688 114 715 114 747 c 0
306 747 m 0
 306 779 333 806 365 806 c 0
 397 806 424 779 424 747 c 0
 424 715 397 688 365 688 c 0
 333 688 306 715 306 747 c 0
EndSplineSet
Fore
Refer: 272 776 S 1 0 0 1 514 125 2
Refer: 69 85 N 1 0 0 1 0 0 2
Validated: 1
EndChar

StartChar: Ugrave
Encoding: 217 217 73
Width: 540
VWidth: 0
Flags: W
HStem: -8 85<198.104 343.812> 620 20<35 142 396 503> 660 157
VStem: 35 107<140.949 640> 116 197 396 107<140.5 640>
LayerCount: 2
Back
SplineSet
396 264 m 2
 396 640 l 1
 503 640 l 1
 503 232 l 2
 503 104 412 -8 269 -8 c 0
 138 -8 35 84 35 216 c 2
 35 640 l 1
 142 640 l 1
 142 252 l 2
 142 153 174 77 269 77 c 0
 378 77 396 168 396 264 c 2
313 700 m 1
 290 660 l 1
 116 725 l 1
 169 817 l 1
 313 700 l 1
EndSplineSet
Fore
Refer: 280 57344 N 1 0 0 1 535 0 2
Refer: 69 85 N 1 0 0 1 0 0 2
Validated: 1
EndChar

StartChar: Uhungarumlaut
Encoding: 368 368 74
Width: 540
VWidth: 0
Flags: W
HStem: -8 85<198.104 343.812> 620 20<35 142 396 503> 645 180
VStem: 35 107<140.949 640> 162 290 396 107<140.5 640>
LayerCount: 2
Back
SplineSet
396 264 m 2
 396 640 l 1
 503 640 l 1
 503 232 l 2
 503 104 412 -8 269 -8 c 0
 138 -8 35 84 35 216 c 2
 35 640 l 1
 142 640 l 1
 142 252 l 2
 142 153 174 77 269 77 c 0
 378 77 396 168 396 264 c 2
302 654 m 1
 368 819 l 1
 452 774 l 1
 342 639 l 1
 302 654 l 1
162 654 m 1
 228 819 l 1
 312 774 l 1
 202 639 l 1
 162 654 l 1
EndSplineSet
Fore
Refer: 274 779 N 1 0 0 1 508 80 2
Refer: 69 85 N 1 0 0 1 0 0 2
Validated: 1
EndChar

StartChar: Uring
Encoding: 366 366 75
Width: 540
VWidth: 0
Flags: W
HStem: -8 85<198.104 343.812> 616 50<230.069 301.931> 620 20<35 142 396 503> 750 50<230.069 301.931>
VStem: 35 107<140.949 640> 174 50<672.069 743.931> 308 50<672.069 743.931> 396 107<140.5 640>
LayerCount: 2
Back
SplineSet
396 264 m 2
 396 640 l 1
 503 640 l 1
 503 232 l 2
 503 104 412 -8 269 -8 c 0
 138 -8 35 84 35 216 c 2
 35 640 l 1
 142 640 l 1
 142 252 l 2
 142 153 174 77 269 77 c 0
 378 77 396 168 396 264 c 2
224 708 m 0
 224 685 243 666 266 666 c 0
 289 666 308 685 308 708 c 0
 308 731 289 750 266 750 c 0
 243 750 224 731 224 708 c 0
174 708 m 0
 174 758 216 800 266 800 c 0
 316 800 358 758 358 708 c 0
 358 658 316 616 266 616 c 0
 216 616 174 658 174 708 c 0
EndSplineSet
Fore
Refer: 273 778 N 1 0 0 1 511 64 2
Refer: 69 85 N 1 0 0 1 0 0 2
Validated: 1
EndChar

StartChar: V
Encoding: 86 86 76
Width: 604
VWidth: 0
Flags: W
HStem: 0 21G<243.719 358.312> 620 20G<18 139.28 472.72 585>
LayerCount: 2
Fore
SplineSet
306 162 m 1
 480 640 l 1
 585 640 l 1
 351 0 l 1
 251 0 l 1
 18 640 l 1
 132 640 l 1
 306 162 l 1
EndSplineSet
Validated: 1
EndChar

StartChar: W
Encoding: 87 87 77
Width: 789
VWidth: 0
Flags: W
HStem: 0 21G<185.625 294.398 492.653 601.406> 620 20G<19 135.349 354.651 442.336 661.664 769>
LayerCount: 2
Fore
SplineSet
394 389 m 1
 289 0 l 1
 191 0 l 1
 19 640 l 1
 130 640 l 1
 245 210 l 1
 360 640 l 1
 437 640 l 1
 552 209 l 1
 667 640 l 1
 769 640 l 1
 596 0 l 1
 498 0 l 1
 394 389 l 1
EndSplineSet
Validated: 1
EndChar

StartChar: X
Encoding: 88 88 78
Width: 542
VWidth: 0
Flags: W
HStem: 0 21G<26 148.073 384.841 519> 620 20G<40 174.122 368.98 492>
LayerCount: 2
Fore
SplineSet
519 0 m 1
 396 0 l 1
 266 233 l 1
 137 0 l 1
 26 0 l 1
 210 334 l 1
 40 640 l 1
 163 640 l 1
 272 444 l 1
 380 640 l 1
 492 640 l 1
 328 344 l 1
 519 0 l 1
EndSplineSet
Validated: 1
EndChar

StartChar: Y
Encoding: 89 89 79
Width: 526
VWidth: 0
Flags: W
HStem: 0 21G<211 318> 620 20G<16 150.159 386.927 509>
VStem: 211 107<0 289>
LayerCount: 2
Fore
SplineSet
16 640 m 1
 139 640 l 1
 269 407 l 1
 398 640 l 1
 509 640 l 1
 318 295 l 1
 318 0 l 1
 211 0 l 1
 211 289 l 1
 16 640 l 1
EndSplineSet
Validated: 1
EndChar

StartChar: Yacute
Encoding: 221 221 80
Width: 526
VWidth: 0
Flags: W
HStem: 0 21<211 318> 620 20<16 150.159 386.927 509> 660 157
VStem: 211 107<0 289> 236 197
LayerCount: 2
Back
SplineSet
16 640 m 1
 139 640 l 1
 269 407 l 1
 398 640 l 1
 509 640 l 1
 318 295 l 1
 318 0 l 1
 211 0 l 1
 211 289 l 1
 16 640 l 1
235 700 m 1
 379 817 l 1
 432 725 l 1
 258 660 l 1
 235 700 l 1
EndSplineSet
Fore
Refer: 281 57345 N 1 0 0 1 504 0 2
Refer: 79 89 N 1 0 0 1 0 0 2
Validated: 1
EndChar

StartChar: Ydieresis
Encoding: 376 376 81
Width: 526
VWidth: 0
Flags: W
HStem: 0 21<211 318> 620 20<16 150.159 386.927 509> 688 118<129.662 220.338 321.662 412.338>
VStem: 116 118<701.662 792.338> 211 107<0 289> 308 118<701.662 792.338>
LayerCount: 2
Back
SplineSet
16 640 m 1
 139 640 l 1
 269 407 l 1
 398 640 l 1
 509 640 l 1
 318 295 l 1
 318 0 l 1
 211 0 l 1
 211 289 l 1
 16 640 l 1
116 747 m 0
 116 779 143 806 175 806 c 0
 207 806 234 779 234 747 c 0
 234 715 207 688 175 688 c 0
 143 688 116 715 116 747 c 0
308 747 m 0
 308 779 335 806 367 806 c 0
 399 806 426 779 426 747 c 0
 426 715 399 688 367 688 c 0
 335 688 308 715 308 747 c 0
EndSplineSet
Fore
Refer: 272 776 N 1 0 0 1 517 125 2
Refer: 79 89 N 1 0 0 1 0 0 2
Validated: 1
EndChar

StartChar: Z
Encoding: 90 90 82
Width: 543
VWidth: 0
Flags: W
HStem: 0 85<181 498> 555 85<55 361>
LayerCount: 2
Fore
SplineSet
361 555 m 1
 55 555 l 1
 55 640 l 1
 516 640 l 1
 181 85 l 1
 498 85 l 1
 498 0 l 1
 26 0 l 1
 361 555 l 1
EndSplineSet
Validated: 1
EndChar

StartChar: Zacute
Encoding: 377 377 83
Width: 543
VWidth: 0
Flags: W
HStem: 0 85<181 498> 555 85<55 361> 660 157
VStem: 222 197
LayerCount: 2
Back
SplineSet
361 555 m 1
 55 555 l 1
 55 640 l 1
 516 640 l 1
 181 85 l 1
 498 85 l 1
 498 0 l 1
 26 0 l 1
 361 555 l 1
222 700 m 1
 366 817 l 1
 419 725 l 1
 245 660 l 1
 222 700 l 1
EndSplineSet
Fore
Refer: 281 57345 N 1 0 0 1 490 0 2
Refer: 82 90 N 1 0 0 1 0 0 2
Validated: 1
EndChar

StartChar: Zcaron
Encoding: 381 381 84
Width: 543
VWidth: 0
UnlinkRmOvrlpSave: 1
Flags: W
HStem: 0 85<181 498> 555 85<55 361> 591 226
VStem: 166 235
LayerCount: 2
Back
SplineSet
166 786 m 1
 202 816 l 1
 284 746 l 1
 366 817 l 1
 401 787 l 1
 313 640 l 1
 516 640 l 1
 181 85 l 1
 498 85 l 1
 498 0 l 1
 26 0 l 1
 361 555 l 1
 55 555 l 1
 55 640 l 1
 254 640 l 1
 166 786 l 1
EndSplineSet
Fore
Refer: 275 780 N 1 0 0 1 529 110 2
Refer: 82 90 N 1 0 0 1 0 0 2
Validated: 5
EndChar

StartChar: Zdotaccent
Encoding: 379 379 85
Width: 543
VWidth: 0
Flags: W
HStem: 0 85<181 498> 555 85<55 361> 688 118<244.662 335.338>
VStem: 231 118<701.662 792.338>
LayerCount: 2
Back
SplineSet
361 555 m 1
 55 555 l 1
 55 640 l 1
 516 640 l 1
 181 85 l 1
 498 85 l 1
 498 0 l 1
 26 0 l 1
 361 555 l 1
231 747 m 0
 231 779 258 806 290 806 c 0
 322 806 349 779 349 747 c 0
 349 715 322 688 290 688 c 0
 258 688 231 715 231 747 c 0
EndSplineSet
Fore
Refer: 271 775 N 1 0 0 1 535 125 2
Refer: 82 90 N 1 0 0 1 0 0 2
Validated: 1
EndChar

StartChar: a
Encoding: 97 97 86
Width: 522
VWidth: 0
Flags: W
HStem: -6 58<428.016 492> -3 85<156.829 283.815> 14 38<446.112 492> 245 85<158.951 298.172> 413 85<75 285.723>
VStem: 30 107<102.099 224.164> 314 107<106.668 233.266 299 385.026>
LayerCount: 2
Fore
SplineSet
234 413 m 2x5e
 75 413 l 1
 75 498 l 1
 254 498 l 2
 327 498 421 444 421 342 c 2
 421 98 l 2
 421 56 464 52 483 52 c 2
 492 52 l 1x9e
 498 14 l 1x3e
 480 5 462 -6 428 -6 c 0x9e
 371 -6 335 11 321 49 c 1
 296 22 259 -3 205 -3 c 0
 66 -3 30 71 30 174 c 0
 30 260 92 330 206 330 c 0
 255 330 290 315 314 299 c 1
 314 308 l 2
 314 364 292 413 234 413 c 2x5e
314 138 m 1
 314 218 l 1
 306 227 286 245 224 245 c 0
 176 245 137 226 137 166 c 0
 137 120 156 82 214 82 c 0x5e
 287 82 309 123 314 138 c 1
EndSplineSet
Validated: 1
EndChar

StartChar: aacute
Encoding: 225 225 87
Width: 522
VWidth: 0
Flags: W
HStem: -6 58<428.016 492> -3 85<156.829 283.815> 14 38<446.112 492> 245 85<158.951 298.172> 413 85<75 285.723> 563 199
VStem: 30 107<102.099 224.164> 143 212 314 107<106.668 233.266 299 385.026>
LayerCount: 2
Back
SplineSet
234 413 m 2
 75 413 l 1
 75 498 l 1
 254 498 l 2
 327 498 421 444 421 342 c 2
 421 98 l 2
 421 56 464 52 483 52 c 2
 492 52 l 1
 498 14 l 1
 480 5 462 -6 428 -6 c 0
 371 -6 335 11 321 49 c 1
 296 22 259 -3 205 -3 c 0
 66 -3 30 71 30 174 c 0
 30 260 92 330 206 330 c 0
 255 330 290 315 314 299 c 1
 314 308 l 2
 314 364 292 413 234 413 c 2
314 138 m 1
 314 218 l 1
 306 227 286 245 224 245 c 0
 176 245 137 226 137 166 c 0
 137 120 156 82 214 82 c 0
 287 82 309 123 314 138 c 1
143 610 m 5
 287 762 l 5
 355 681 l 5
 183 563 l 5
 143 610 l 5
EndSplineSet
Fore
Refer: 266 769 S 1 0 0 1 428 0 2
Refer: 86 97 N 1 0 0 1 0 0 2
Validated: 1
EndChar

StartChar: abreve
Encoding: 259 259 88
Width: 522
VWidth: 0
Flags: W
HStem: -6 58<428.016 492> -3 85<156.829 283.815> 14 38<446.112 492> 245 85<158.951 298.172> 413 85<75 285.723> 559 82<180.82 291.18>
VStem: 30 107<102.099 224.164> 113 246 314 107<106.668 233.266 299 385.026>
LayerCount: 2
Back
SplineSet
234 413 m 2
 75 413 l 1
 75 498 l 1
 254 498 l 2
 327 498 421 444 421 342 c 2
 421 98 l 2
 421 56 464 52 483 52 c 2
 492 52 l 1
 498 14 l 1
 480 5 462 -6 428 -6 c 0
 371 -6 335 11 321 49 c 1
 296 22 259 -3 205 -3 c 0
 65 -3 30 71 30 174 c 0
 30 260 92 330 206 330 c 0
 255 330 290 315 314 299 c 1
 314 308 l 2
 314 364 292 413 234 413 c 2
314 138 m 1
 314 218 l 1
 306 227 286 245 224 245 c 0
 176 245 137 226 137 166 c 0
 137 120 156 82 214 82 c 0
 287 82 309 123 314 138 c 1
236 559 m 0
 157 559 116 634 113 691 c 1
 162 691 l 1
 175 657 204 641 236 641 c 0
 268 641 297 657 310 691 c 1
 359 691 l 1
 356 634 315 559 236 559 c 0
EndSplineSet
Fore
Refer: 270 774 S 1 0 0 1 481 0 2
Refer: 86 97 N 1 0 0 1 0 0 2
Validated: 1
EndChar

StartChar: acircumflex
Encoding: 226 226 89
Width: 522
VWidth: 0
Flags: W
HStem: -6 58<428.016 492> -3 85<156.829 283.815> 14 38<446.112 492> 245 85<158.951 298.172> 413 85<75 285.723> 563 157
VStem: 30 107<102.099 224.164> 83 288 314 107<106.668 233.266 299 385.026>
LayerCount: 2
Back
SplineSet
234 413 m 2
 75 413 l 1
 75 498 l 1
 254 498 l 2
 327 498 421 444 421 342 c 2
 421 98 l 2
 421 56 464 52 483 52 c 2
 492 52 l 1
 498 14 l 1
 480 5 462 -6 428 -6 c 0
 371 -6 335 11 321 49 c 1
 296 22 259 -3 205 -3 c 0
 65 -3 30 71 30 174 c 0
 30 260 92 330 206 330 c 0
 255 330 290 315 314 299 c 1
 314 308 l 2
 314 364 292 413 234 413 c 2
314 138 m 1
 314 218 l 1
 306 227 286 245 224 245 c 0
 176 245 137 226 137 166 c 0
 137 120 156 82 214 82 c 0
 287 82 309 123 314 138 c 1
371 603 m 5
 348 563 l 5
 227 608 l 5
 106 563 l 5
 83 603 l 5
 227 720 l 5
 371 603 l 5
EndSplineSet
Fore
Refer: 267 770 S 1 0 0 1 472 0 2
Refer: 86 97 N 1 0 0 1 0 0 2
Validated: 1
EndChar

StartChar: acute
Encoding: 180 180 90
Width: 232
VWidth: 0
Flags: W
HStem: 563 199
VStem: 10 212
LayerCount: 2
Fore
SplineSet
222 681 m 1
 50 563 l 1
 10 610 l 1
 154 762 l 1
 222 681 l 1
EndSplineSet
Validated: 1
EndChar

StartChar: adieresis
Encoding: 228 228 91
Width: 522
VWidth: 0
Flags: W
HStem: -6 58<428.016 492> -3 85<156.829 283.815> 14 38<446.112 492> 245 85<158.951 298.172> 413 85<75 285.723> 563 118<87.6616 178.338 279.662 370.338>
VStem: 30 107<102.099 224.164> 74 118<576.662 667.338> 266 118<576.662 667.338> 314 107<106.668 233.266 299 385.026>
LayerCount: 2
Back
SplineSet
235 413 m 2
 76 413 l 1
 76 498 l 1
 255 498 l 2
 328 498 422 444 422 342 c 2
 422 98 l 2
 422 56 465 52 484 52 c 2
 493 52 l 1
 499 14 l 1
 481 5 463 -6 429 -6 c 0
 372 -6 336 11 322 49 c 1
 297 22 260 -3 206 -3 c 0
 67 -3 31 71 31 174 c 0
 31 260 93 330 207 330 c 0
 256 330 291 315 315 299 c 1
 315 308 l 2
 315 364 293 413 235 413 c 2
315 138 m 1
 315 218 l 1
 307 227 287 245 225 245 c 0
 177 245 138 226 138 166 c 0
 138 120 157 82 215 82 c 0
 288 82 310 123 315 138 c 1
74 622 m 4
 74 654 101 681 133 681 c 4
 165 681 192 654 192 622 c 4
 192 590 165 563 133 563 c 4
 101 563 74 590 74 622 c 4
266 622 m 4
 266 654 293 681 325 681 c 4
 357 681 384 654 384 622 c 4
 384 590 357 563 325 563 c 4
 293 563 266 590 266 622 c 4
EndSplineSet
Fore
Refer: 272 776 S 1 0 0 1 475 0 2
Refer: 86 97 N 1 0 0 1 0 0 2
Validated: 1
EndChar

StartChar: ae
Encoding: 230 230 92
Width: 770
VWidth: 0
Flags: W
HStem: -6 85<160.522 282.513 469.929 643.806> 245 85<156.349 298.172> 413 85<74 287.203 460.468 598.004>
VStem: 30 106<102.753 224.164> 314 107<131.892 227 300 364.263> 628 107<313 381.018>
LayerCount: 2
Fore
SplineSet
424 300 m 1
 628 313 l 1
 628 379 589 419 530 419 c 0
 460 419 433 366 424 300 c 1
314 299 m 1
 314 308 l 2
 314 364 292 413 234 413 c 2
 74 413 l 1
 74 498 l 1
 254 498 l 2
 297 498 347 479 381 443 c 1
 422 484 476 504 530 504 c 0
 689 504 735 390 735 248 c 1
 421 227 l 1
 425 130 459 79 549 79 c 0
 629 79 681 119 698 139 c 1
 737 90 l 1
 711 55 673 -6 539 -6 c 0
 454 -6 394 23 357 79 c 1
 335 49 284 -3 204 -3 c 0
 63 -3 30 71 30 174 c 0
 30 260 92 330 206 330 c 0
 255 330 290 315 314 299 c 1
314 142 m 1
 314 218 l 1
 306 227 286 245 224 245 c 0
 176 245 136 226 136 166 c 0
 136 120 156 82 214 82 c 0
 296 82 313 134 314 142 c 1
EndSplineSet
Validated: 1
EndChar

StartChar: agrave
Encoding: 224 224 93
Width: 522
VWidth: 0
Flags: W
HStem: -6 58<428.016 492> -3 85<156.829 283.815> 14 38<446.112 492> 245 85<158.951 298.172> 413 85<75 285.723> 563 199
VStem: 30 107<102.099 224.164> 86 212 314 107<106.668 233.266 299 385.026>
LayerCount: 2
Back
SplineSet
234 413 m 2
 75 413 l 1
 75 498 l 1
 254 498 l 2
 327 498 421 444 421 342 c 2
 421 98 l 2
 421 56 464 52 483 52 c 2
 492 52 l 1
 498 14 l 1
 480 5 462 -6 428 -6 c 0
 371 -6 335 11 321 49 c 1
 296 22 259 -3 205 -3 c 0
 66 -3 30 71 30 174 c 0
 30 260 92 330 206 330 c 0
 255 330 290 315 314 299 c 1
 314 308 l 2
 314 364 292 413 234 413 c 2
314 138 m 1
 314 218 l 1
 306 227 286 245 224 245 c 0
 176 245 137 226 137 166 c 0
 137 120 156 82 214 82 c 0
 287 82 309 123 314 138 c 1
298 610 m 1
 258 563 l 1
 86 681 l 1
 154 762 l 1
 298 610 l 1
EndSplineSet
Fore
Refer: 265 768 S 1 0 0 1 503 0 2
Refer: 86 97 N 1 0 0 1 0 0 2
Validated: 1
EndChar

StartChar: ampersand
Encoding: 38 38 94
Width: 573
VWidth: 0
Flags: W
HStem: -14 86<174.907 318.215> 498 21G<334 423> 562 85<204.645 322.225>
VStem: 30 102<113.134 236.969> 88 100<423.446 546.495> 334 89<498 547.569>
LayerCount: 2
Fore
SplineSet
471 116 m 1xec
 540 40 l 1
 482 -16 l 1
 417 54 l 1
 374 15 321 -14 260 -14 c 0
 147 -14 30 20 30 172 c 0xf4
 30 241 77 311 142 363 c 1
 109 409 88 449 88 482 c 0
 88 580 132 647 253 647 c 0
 362 647 423 568 423 498 c 1
 334 498 l 1
 334 536 322 562 258 562 c 0
 199 562 188 524 188 480 c 0
 188 440 253 356 302 302 c 2
 408 186 l 1
 439 229 462 271 472 286 c 1
 540 242 l 1
 531 215 508 165 471 116 c 1xec
354 122 m 1
 261 222 l 2
 239 246 218 268 199 291 c 1
 160 256 132 213 132 172 c 0
 132 120 168 72 256 72 c 0
 291 72 324 93 354 122 c 1
EndSplineSet
Validated: 1
EndChar

StartChar: aogonek
Encoding: 261 261 95
Width: 522
VWidth: 0
UnlinkRmOvrlpSave: 1
Flags: W
HStem: -194 48<328.049 431.723> -6 58<428.016 492> -3 85<156.829 283.815> 0 42<377.499 447> 14 38<446.112 492> 245 85<158.951 298.172> 413 85<75 285.723>
VStem: 30 107<102.099 224.164> 217 100<-135.513 -43.7122> 314 107<106.668 233.266 299 385.026>
LayerCount: 2
Back
SplineSet
314 138 m 1
 314 218 l 1
 306 227 286 245 224 245 c 0
 176 245 137 226 137 166 c 0
 137 120 156 82 214 82 c 0
 287 82 309 123 314 138 c 1
234 413 m 2
 75 413 l 1
 75 498 l 1
 254 498 l 2
 327 498 421 444 421 342 c 2
 421 98 l 2
 421 56 464 52 483 52 c 2
 492 52 l 1
 498 14 l 1
 480 5 462 -6 428 -6 c 2
 421 -6 l 1
 349 -24 317 -53 317 -86 c 0
 317 -131 343 -146 379 -146 c 0
 411 -146 457 -118 457 -118 c 1
 473 -140 l 1
 473 -140 421 -194 364 -194 c 0
 264 -194 217 -156 217 -86 c 0
 217 -46 270 -6 341 19 c 1
 332 27 325 37 321 49 c 1
 296 22 259 -3 205 -3 c 0
 66 -3 30 71 30 174 c 0
 30 260 92 330 206 330 c 0
 255 330 290 315 314 299 c 1
 314 308 l 2
 314 364 292 413 234 413 c 2
EndSplineSet
Fore
Refer: 279 808 N 1 0 0 1 581 0 2
Refer: 86 97 N 1 0 0 1 0 0 2
Validated: 5
EndChar

StartChar: aring
Encoding: 229 229 96
Width: 522
VWidth: 0
UnlinkRmOvrlpSave: 1
Flags: W
HStem: -6 58<428.016 492> -3 85<156.829 283.815> 14 38<446.112 492> 245 85<158.951 298.172> 413 85<75 285.723> 488 50<193.069 264.931> 622 50<193.069 264.931>
VStem: 30 107<102.099 224.164> 137 50<544.069 615.931> 271 50<544.069 615.931> 314 107<106.668 233.266 299 385.026>
LayerCount: 2
Back
SplineSet
137 580 m 0
 137 630 179 672 229 672 c 0
 279 672 321 630 321 580 c 0
 321 544 300 512 269 497 c 1
 339 490 421 437 421 342 c 2
 421 98 l 2
 421 56 464 52 483 52 c 2
 492 52 l 1
 498 14 l 1
 480 5 462 -6 428 -6 c 0
 371 -6 335 11 321 49 c 1
 296 22 259 -3 205 -3 c 0
 67 -3 30 71 30 174 c 0
 30 260 92 330 206 330 c 0
 255 330 290 315 314 299 c 1
 314 308 l 2
 314 364 292 413 234 413 c 2
 75 413 l 1
 75 498 l 1
 188 498 l 1
 158 513 137 545 137 580 c 0
187 580 m 0
 187 557 206 538 229 538 c 0
 252 538 271 557 271 580 c 0
 271 603 252 622 229 622 c 0
 206 622 187 603 187 580 c 0
314 138 m 1
 314 218 l 1
 306 227 286 245 224 245 c 0
 176 245 137 226 137 166 c 0
 137 120 156 82 214 82 c 0
 287 82 309 123 314 138 c 1
EndSplineSet
Fore
Refer: 273 778 N 1 0 0 1 474 -64 2
Refer: 86 97 N 1 0 0 1 0 0 2
Validated: 5
EndChar

StartChar: asciitilde
Encoding: 126 126 97
Width: 445
VWidth: 0
Flags: W
HStem: 258 92<243.974 335.378> 319 92<105.622 197.026>
LayerCount: 2
Fore
SplineSet
127 319 m 0x40
 115 319 109 304 90 268 c 1
 25 292 l 1
 59 386 84 411 112 411 c 0x40
 182 411 267 350 314 350 c 0
 326 350 332 365 351 401 c 1
 416 376 l 1
 382 282 357 258 329 258 c 0x80
 259 258 174 319 127 319 c 0x40
EndSplineSet
Validated: 1
EndChar

StartChar: asterisk
Encoding: 42 42 98
Width: 447
VWidth: 0
Flags: W
HStem: 620 20G<169 275>
LayerCount: 2
Fore
SplineSet
58 559 m 1
 199 482 l 1
 169 640 l 1
 275 640 l 1
 245 482 l 1
 386 559 l 1
 419 459 l 1
 259 438 l 1
 376 328 l 1
 291 266 l 1
 222 411 l 1
 153 266 l 1
 68 328 l 1
 185 438 l 1
 25 459 l 1
 58 559 l 1
EndSplineSet
Validated: 1
EndChar

StartChar: at
Encoding: 64 64 99
Width: 562
VWidth: 0
Flags: W
HStem: -8 85<201.167 385.532> 182 85<265.428 294.803 388.112 421.921> 376 84<266.528 297.656> 563 85<200.616 369.198>
VStem: 31 107<153.075 489.049> 178 85<267.446 374.437> 299 85<271.228 375.767> 431 99<272.1 496.136>
LayerCount: 2
Fore
SplineSet
370 97 m 1
 432 27 l 1
 389 4 334 -8 280 -8 c 0
 171 -8 31 46 31 242 c 2
 31 392 l 2
 31 572 146 648 280 648 c 0
 458 648 530 550 530 396 c 0
 530 256 492 186 396 186 c 0
 371 186 352 194 338 207 c 1
 324 191 304 182 281 182 c 0
 213 182 178 239 178 321 c 0
 178 400 221 460 281 460 c 0
 355 460 384 424 384 358 c 2
 384 334 l 2
 384 308 386 271 403 271 c 0
 421 271 431 290 431 392 c 0
 431 502 388 563 280 563 c 0
 180 563 138 498 138 360 c 2
 138 278 l 2
 138 122 198 77 280 77 c 0
 315 77 346 84 370 97 c 1
299 336 m 0
 299 358 295 376 281 376 c 0
 270 376 263 357 263 321 c 0
 263 289 267 267 281 267 c 0
 295 267 299 304 299 336 c 0
EndSplineSet
Validated: 1
EndChar

StartChar: atilde
Encoding: 227 227 100
Width: 524
VWidth: 0
Flags: W
HStem: -6 58<430.016 494> -3 85<158.829 285.815> 14 38<448.112 494> 245 85<160.951 300.172> 413 85<77 287.723> 563 92<245.516 323.378> 624 92<133.622 211.484>
VStem: 32 107<102.099 224.164> 316 107<106.668 233.266 299 385.026>
LayerCount: 2
Back
SplineSet
236 413 m 2
 77 413 l 1
 77 498 l 1
 256 498 l 2
 329 498 423 444 423 342 c 2
 423 98 l 2
 423 56 466 52 485 52 c 2
 494 52 l 1
 500 14 l 1
 482 5 464 -6 430 -6 c 0
 373 -6 337 11 323 49 c 1
 298 22 261 -3 207 -3 c 0
 68 -3 32 71 32 174 c 0
 32 260 94 330 208 330 c 0
 257 330 292 315 316 299 c 1
 316 308 l 2
 316 364 294 413 236 413 c 2
316 138 m 1
 316 218 l 1
 308 227 288 245 226 245 c 0
 178 245 139 226 139 166 c 0
 139 120 158 82 216 82 c 0
 289 82 311 123 316 138 c 1
155 624 m 4
 143 624 137 609 118 573 c 5
 53 597 l 5
 87 691 112 716 140 716 c 4
 210 716 255 655 302 655 c 4
 314 655 320 670 339 706 c 5
 404 681 l 5
 370 587 345 563 317 563 c 4
 247 563 202 624 155 624 c 4
EndSplineSet
Fore
Refer: 268 771 S 1 0 0 1 480 0 2
Refer: 86 97 N 1 0 0 1 2 0 2
Validated: 1
EndChar

StartChar: b
Encoding: 98 98 101
Width: 492
VWidth: 0
Flags: W
HStem: -6 85<184.376 319.436> 418 85<191.686 312.423> 636 20G<83.0588 146>
VStem: 39 107<108.433 389.767 446 622> 353 107<116.636 378.667>
LayerCount: 2
Fore
SplineSet
134 57 m 1
 110 0 l 1
 39 0 l 1
 39 622 l 1
 146 656 l 1
 146 446 l 1
 175 475 216 503 269 503 c 0
 371 503 460 438 460 307 c 2
 460 192 l 2
 460 52 367 -6 282 -6 c 0
 203 -6 164 23 134 57 c 1
146 349 m 1
 146 136 l 1
 163 109 184 79 267 79 c 0
 320 79 353 126 353 200 c 2
 353 303 l 2
 353 393 292 418 253 418 c 0
 173 418 164 389 146 349 c 1
EndSplineSet
Validated: 1
EndChar

StartChar: backslash
Encoding: 92 92 102
Width: 519
VWidth: 0
Flags: W
HStem: 0 21G<377.469 496> 620 20G<20 137.562>
LayerCount: 2
Fore
SplineSet
20 640 m 1
 126 640 l 1
 496 0 l 1
 389 0 l 1
 20 640 l 1
EndSplineSet
Validated: 1
EndChar

StartChar: bar
Encoding: 124 124 103
Width: 164
VWidth: 0
Flags: W
VStem: 40 84<-45 685>
LayerCount: 2
Fore
SplineSet
40 685 m 1
 124 685 l 1
 124 -45 l 1
 40 -45 l 1
 40 685 l 1
EndSplineSet
Validated: 1
EndChar

StartChar: braceleft
Encoding: 123 123 104
Width: 288
VWidth: 0
Flags: W
HStem: -35 82<192.81 256> 593 82<192.81 256>
VStem: 66 119<21 140.947 498.954 619> 106 107<128.786 269.534 370.753 510.846>
LayerCount: 2
Fore
SplineSet
26 320 m 1xd0
 26 320 106 383 106 399 c 0xd0
 106 473 66 543 66 594 c 0xe0
 66 644 104 675 256 675 c 1
 257 593 l 1
 200 586 184 575 184 553 c 0
 184 523 213 474 213 390 c 0
 213 368 142 320 142 320 c 1
 142 320 213 271 213 249 c 0xd0
 213 171 185 113 185 86 c 0
 185 65 201 54 257 47 c 1
 256 -35 l 1
 104 -35 66 -4 66 46 c 0xe0
 66 97 106 167 106 241 c 0
 106 257 26 320 26 320 c 1xd0
EndSplineSet
Validated: 1
EndChar

StartChar: braceright
Encoding: 125 125 105
Width: 294
VWidth: 0
Flags: W
HStem: -35 82<34 97.1903> 593 82<34 97.1903>
VStem: 77 107<128.786 269.534 370.753 510.846> 105 119<21 140.947 498.954 619>
LayerCount: 2
Fore
SplineSet
264 320 m 1xe0
 264 320 184 257 184 241 c 0xe0
 184 167 224 97 224 46 c 0
 224 -4 186 -35 34 -35 c 1
 33 47 l 1
 89 54 105 65 105 86 c 0xd0
 105 113 77 171 77 249 c 0
 77 271 148 320 148 320 c 1
 148 320 77 368 77 390 c 0xe0
 77 474 106 523 106 553 c 0
 106 575 90 586 33 593 c 1
 34 675 l 1
 186 675 224 644 224 594 c 0xd0
 224 543 184 473 184 399 c 0
 184 383 264 320 264 320 c 1xe0
EndSplineSet
Validated: 1
EndChar

StartChar: bracketleft
Encoding: 91 91 106
Width: 273
VWidth: 0
Flags: W
HStem: -45 98<124 242> 587 98<124 242>
VStem: 40 202<-45 53 587 685> 40 84<53 587>
LayerCount: 2
Fore
SplineSet
242 53 m 1xe0
 242 -45 l 1
 40 -45 l 1
 40 685 l 1
 242 685 l 1
 242 587 l 1xe0
 124 587 l 1
 124 53 l 1xd0
 242 53 l 1xe0
EndSplineSet
Validated: 1
EndChar

StartChar: bracketright
Encoding: 93 93 107
Width: 275
VWidth: 0
Flags: W
HStem: -45 98<33 151> 587 98<33 151>
VStem: 33 202<-45 53 587 685> 151 84<53 587>
LayerCount: 2
Fore
SplineSet
33 587 m 1xe0
 33 685 l 1
 235 685 l 1
 235 -45 l 1
 33 -45 l 1
 33 53 l 1xe0
 151 53 l 1
 151 587 l 1xd0
 33 587 l 1xe0
EndSplineSet
Validated: 1
EndChar

StartChar: brokenbar
Encoding: 166 166 108
Width: 164
VWidth: 0
Flags: W
VStem: 40 84<-45 280 360 685>
LayerCount: 2
Fore
SplineSet
124 685 m 1
 124 360 l 1
 40 360 l 1
 40 685 l 1
 124 685 l 1
40 -45 m 1
 40 280 l 1
 124 280 l 1
 124 -45 l 1
 40 -45 l 1
EndSplineSet
Validated: 1
EndChar

StartChar: bullet
Encoding: 8226 8226 109
Width: 334
VWidth: 0
Flags: W
HStem: 144 278<93.2643 236.736>
VStem: 26 278<211.264 354.736>
LayerCount: 2
Fore
SplineSet
26 283 m 0
 26 359 89 422 165 422 c 0
 241 422 304 359 304 283 c 0
 304 207 241 144 165 144 c 0
 89 144 26 207 26 283 c 0
EndSplineSet
Validated: 1
EndChar

StartChar: c
Encoding: 99 99 110
Width: 462
VWidth: 0
Flags: W
HStem: -6 85<178.993 345.034> 421 85<177.233 328.432>
VStem: 30 107<123.407 380.281>
LayerCount: 2
Fore
SplineSet
417 394 m 1
 365 360 l 1
 343 392 315 421 255 421 c 0
 165 421 137 367 137 300 c 2
 137 219 l 2
 137 138 163 79 249 79 c 0
 355 79 375 119 390 137 c 1
 433 92 l 1
 409 54 355 -6 237 -6 c 0
 107 -6 30 68 30 202 c 2
 30 286 l 2
 30 428 105 506 241 506 c 0
 337 506 387 464 417 394 c 1
EndSplineSet
Validated: 1
EndChar

StartChar: cacute
Encoding: 263 263 111
Width: 462
VWidth: 0
Flags: W
HStem: -6 85<178.993 345.034> 421 85<177.233 328.432> 563 199
VStem: 30 107<123.407 380.281> 162 212
LayerCount: 2
Back
SplineSet
417 394 m 1
 365 360 l 1
 343 392 315 421 255 421 c 0
 165 421 137 367 137 300 c 2
 137 219 l 2
 137 138 163 79 249 79 c 0
 355 79 375 119 390 137 c 1
 433 92 l 1
 409 54 355 -6 237 -6 c 0
 107 -6 30 68 30 202 c 2
 30 286 l 2
 30 428 105 506 241 506 c 0
 337 506 387 464 417 394 c 1
162 610 m 1
 306 762 l 1
 374 681 l 1
 202 563 l 1
 162 610 l 1
EndSplineSet
Fore
Refer: 266 769 S 1 0 0 1 447 0 2
Refer: 110 99 N 1 0 0 1 0 0 2
Validated: 1
EndChar

StartChar: ccaron
Encoding: 269 269 112
Width: 462
VWidth: 0
UnlinkRmOvrlpSave: 1
Flags: W
HStem: -6 85<178.993 345.034> 421 85<177.233 328.432> 491 226
VStem: 30 107<123.407 380.281> 123 235
LayerCount: 2
Back
SplineSet
123 676 m 1
 159 706 l 1
 241 636 l 1
 323 707 l 1
 358 677 l 1
 256 506 l 1
 342 502 389 460 417 394 c 1
 365 360 l 1
 343 392 315 421 255 421 c 0
 165 421 137 367 137 300 c 2
 137 219 l 2
 137 138 163 79 249 79 c 0
 355 79 375 119 390 137 c 1
 433 92 l 1
 409 54 355 -6 237 -6 c 0
 107 -6 30 68 30 202 c 2
 30 286 l 2
 30 423 99 500 226 506 c 1
 123 676 l 1
EndSplineSet
Fore
Refer: 275 780 S 1 0 0 1 486 10 2
Refer: 110 99 N 1 0 0 1 0 0 2
Validated: 5
EndChar

StartChar: ccedilla
Encoding: 231 231 113
Width: 462
VWidth: 0
UnlinkRmOvrlpSave: 1
Flags: W
HStem: -200 37<140.891 225.714> -158 20<116 139> -6 85<178.993 345.034> 421 85<177.233 328.432>
VStem: 30 107<123.407 380.281> 234 82<-158.129 -92.8418>
LayerCount: 2
Back
SplineSet
417 394 m 1
 365 360 l 1
 343 392 315 421 255 421 c 0
 165 421 137 367 137 300 c 2
 137 219 l 2
 137 138 163 79 249 79 c 0
 355 79 375 119 390 137 c 1
 433 92 l 1
 412 59 369 10 281 -3 c 1
 232 -53 l 1
 284 -61 316 -86 316 -122 c 0
 316 -166 282 -200 208 -200 c 0
 166 -200 133 -180 114 -162 c 1
 126 -138 l 1
 152 -157 168 -163 193 -163 c 0
 217 -163 234 -144 234 -120 c 0
 234 -92 179 -76 135 -72 c 1
 192 -3 l 1
 89 13 30 84 30 202 c 2
 30 286 l 2
 30 428 105 506 241 506 c 0
 337 506 387 464 417 394 c 1
EndSplineSet
Fore
Refer: 278 807 N 1 0 0 1 486 0 2
Refer: 110 99 N 1 0 0 1 0 0 2
Validated: 5
EndChar

StartChar: cedilla
Encoding: 184 184 114
Width: 222
VWidth: 0
Flags: W
HStem: -200 37<36.8914 121.714> -158 20G<12 35>
VStem: 130 82<-158.129 -92.8418>
LayerCount: 2
Fore
SplineSet
106 19 m 1
 199 19 l 1
 128 -53 l 1
 180 -61 212 -86 212 -122 c 0
 212 -166 178 -200 104 -200 c 0
 62 -200 29 -180 10 -162 c 1
 22 -138 l 1
 48 -157 64 -163 89 -163 c 0
 113 -163 130 -144 130 -120 c 0
 130 -92 75 -76 31 -72 c 1
 106 19 l 1
EndSplineSet
Validated: 1
EndChar

StartChar: cent
Encoding: 162 162 115
Width: 460
VWidth: 0
Flags: W
HStem: 0 21G<201 273> 109 83<175.87 201 273 348.497> 454 83<175.472 201 273 325.321> 620 20G<201 273>
VStem: 27 107<235.774 412.334> 201 72<0 111.963 533.827 640>
LayerCount: 2
Fore
SplineSet
414 427 m 1
 362 393 l 1
 340 425 312 454 252 454 c 0
 161 454 134 400 134 332 c 0
 134 251 160 192 246 192 c 0
 352 192 372 232 387 250 c 1
 430 205 l 1
 409 171 364 120 273 109 c 1
 273 0 l 1
 201 0 l 1
 201 109 l 1
 90 121 27 194 27 319 c 0
 27 448 88 524 201 537 c 1
 201 640 l 1
 273 640 l 1
 273 537 l 1
 347 528 388 488 414 427 c 1
EndSplineSet
Validated: 1
EndChar

StartChar: colon
Encoding: 58 58 116
Width: 200
VWidth: 0
Flags: W
HStem: -6 132<51.3035 148.697> 306 132<51.3035 148.697>
VStem: 34 132<11.3035 108.697 323.303 420.697>
LayerCount: 2
Fore
SplineSet
34 372 m 0
 34 408 64 438 100 438 c 0
 136 438 166 408 166 372 c 0
 166 336 136 306 100 306 c 0
 64 306 34 336 34 372 c 0
34 60 m 0
 34 96 64 126 100 126 c 0
 136 126 166 96 166 60 c 0
 166 24 136 -6 100 -6 c 0
 64 -6 34 24 34 60 c 0
EndSplineSet
Validated: 1
EndChar

StartChar: comma
Encoding: 44 44 117
Width: 191
VWidth: 0
Flags: W
HStem: -142 253
VStem: 87 77<-43.6407 39>
LayerCount: 2
Fore
SplineSet
29 52 m 0
 29 94 55 111 99 111 c 0
 147 111 164 61 164 17 c 0
 164 -42 74 -130 53 -142 c 1
 33 -113 l 1
 62 -85 87 -57 87 -27 c 0
 87 9 29 -12 29 52 c 0
EndSplineSet
Validated: 1
EndChar

StartChar: copyright
Encoding: 169 169 118
Width: 714
VWidth: 0
Flags: W
HStem: -8 86<257.033 452.967> 156 81<308.598 432.544> 409 81<306.794 418.036> 562 86<257.033 452.967>
VStem: 27 86<222.033 417.967> 189 98<257.792 389.127> 597 86<222.033 417.967>
LayerCount: 2
Fore
SplineSet
113 320 m 0
 113 189 224 78 355 78 c 0
 486 78 597 189 597 320 c 0
 597 451 486 562 355 562 c 0
 224 562 113 451 113 320 c 0
27 320 m 0
 27 501 174 648 355 648 c 0
 536 648 683 501 683 320 c 0
 683 139 536 -8 355 -8 c 0
 174 -8 27 139 27 320 c 0
494 395 m 1
 441 360 l 1
 423 386 404 409 364 409 c 0
 309 409 287 375 287 329 c 0
 287 272 311 237 359 237 c 0
 421 237 441 264 455 284 c 1
 506 238 l 1
 484 204 445 156 350 156 c 0
 249 156 189 216 189 320 c 0
 189 428 249 490 353 490 c 0
 431 490 469 453 494 395 c 1
EndSplineSet
Validated: 1
EndChar

StartChar: currency
Encoding: 164 164 119
Width: 431
VWidth: 0
Flags: W
HStem: 144 77<166.145 259.884> 345 77<166.145 259.884>
VStem: 74 77<236.116 329.884> 275 77<236.145 329.855>
LayerCount: 2
Fore
SplineSet
151 283 m 0
 151 249 179 221 213 221 c 0
 247 221 275 249 275 283 c 0
 275 317 247 345 213 345 c 0
 179 345 151 317 151 283 c 0
400 162 m 1
 335 97 l 1
 274 158 l 1
 256 149 235 144 213 144 c 0
 192 144 172 149 154 158 c 1
 93 97 l 1
 28 162 l 1
 88 222 l 1
 79 240 74 261 74 283 c 0
 74 305 79 326 88 344 c 1
 28 404 l 1
 93 469 l 1
 154 408 l 1
 172 417 192 422 213 422 c 0
 235 422 256 417 274 408 c 1
 335 469 l 1
 400 404 l 1
 338 342 l 1
 347 324 352 304 352 283 c 0
 352 262 347 242 338 224 c 1
 400 162 l 1
EndSplineSet
Validated: 1
EndChar

StartChar: d
Encoding: 100 100 120
Width: 552
VWidth: 0
Flags: W
HStem: -6 85<170.564 305.628> -6 58<458.016 522> 418 85<177.577 298.314> 636 20G<388.059 451>
VStem: 30 107<116.636 378.667> 344 107<108.433 389.767 446 622>
LayerCount: 2
Fore
SplineSet
344 446 m 1xbc
 344 622 l 1
 451 656 l 1
 451 98 l 2
 451 56 494 52 513 52 c 2
 522 52 l 1
 528 14 l 1
 510 2 492 -6 458 -6 c 0x7c
 400 -6 365 11 351 51 c 1
 322 20 282 -6 208 -6 c 0
 123 -6 30 52 30 192 c 2
 30 307 l 2
 30 438 119 503 221 503 c 0
 274 503 315 475 344 446 c 1xbc
344 136 m 1
 344 349 l 1
 326 389 317 418 237 418 c 0
 198 418 137 393 137 303 c 2
 137 200 l 2
 137 126 170 79 223 79 c 0xbc
 306 79 327 109 344 136 c 1
EndSplineSet
Validated: 1
EndChar

StartChar: dagger
Encoding: 8224 8224 121
Width: 285
VWidth: 0
Flags: W
HStem: 498 48<26 111 173 258> 620 20G<111 173>
VStem: 111 62<78 498 546 640>
LayerCount: 2
Fore
SplineSet
26 546 m 1
 111 546 l 1
 111 640 l 1
 173 640 l 1
 173 546 l 1
 258 546 l 1
 258 498 l 1
 173 498 l 1
 173 78 l 1
 111 78 l 1
 111 498 l 1
 26 498 l 1
 26 546 l 1
EndSplineSet
Validated: 1
EndChar

StartChar: daggerdbl
Encoding: 8225 8225 122
Width: 298
VWidth: 0
Flags: W
HStem: 172 48<32 117 179 264> 498 48<32 117 179 264> 620 20G<117 179>
VStem: 117 62<78 172 220 498 546 640>
LayerCount: 2
Fore
SplineSet
32 498 m 1
 32 546 l 1
 117 546 l 1
 117 640 l 1
 179 640 l 1
 179 546 l 1
 264 546 l 1
 264 498 l 1
 179 498 l 1
 179 220 l 1
 264 220 l 1
 264 172 l 1
 179 172 l 1
 179 78 l 1
 117 78 l 1
 117 172 l 1
 32 172 l 1
 32 220 l 1
 117 220 l 1
 117 498 l 1
 32 498 l 1
EndSplineSet
Validated: 1
EndChar

StartChar: dcaron
Encoding: 271 271 123
Width: 636
VWidth: 0
Flags: W
HStem: -6 58<458.016 522> -6 85<170.564 305.628> 418 85<177.577 298.314> 458 250 636 20<388.059 451>
VStem: 30 107<116.636 378.667> 344 107<108.433 389.767 446 622> 548 67<534.461 638>
LayerCount: 2
Back
SplineSet
344 446 m 1
 344 622 l 1
 451 656 l 1
 451 98 l 2
 451 56 494 52 513 52 c 2
 522 52 l 1
 528 14 l 1
 501 6 492 -6 458 -6 c 0
 400 -6 365 11 351 51 c 1
 322 20 282 -6 208 -6 c 0
 123 -6 30 52 30 192 c 2
 30 307 l 2
 30 438 119 503 221 503 c 0
 274 503 315 475 344 446 c 1
344 136 m 1
 344 349 l 1
 326 389 317 418 237 418 c 0
 198 418 137 393 137 303 c 2
 137 200 l 2
 137 126 170 79 223 79 c 0
 306 79 327 109 344 136 c 1
490 649 m 0
 490 687 515 708 553 708 c 0
 601 708 615 662 615 614 c 0
 615 547 558 476 540 458 c 1
 518 472 l 1
 533 501 548 530 548 568 c 0
 548 601 490 601 490 649 c 0
EndSplineSet
Fore
Refer: 282 787 S 1 0 0 1 773 -89 2
Refer: 120 100 N 1 0 0 1 0 0 2
Validated: 1
EndChar

StartChar: dcroat
Encoding: 273 273 124
Width: 558
VWidth: 0
UnlinkRmOvrlpSave: 1
Flags: W
HStem: -6 58<458.016 522> -6 85<170.564 305.628> 418 85<177.577 298.314> 532 60<271 517> 636 20<388.059 451>
VStem: 30 107<116.636 378.667> 344 107<108.433 389.767 446 622>
LayerCount: 2
Back
SplineSet
344 136 m 1
 344 349 l 1
 326 389 317 418 237 418 c 0
 198 418 137 393 137 303 c 2
 137 200 l 2
 137 126 170 79 223 79 c 0
 306 79 327 109 344 136 c 1
271 532 m 5
 271 592 l 5
 344 592 l 1
 344 622 l 1
 451 656 l 1
 451 592 l 1
 517 592 l 5
 517 532 l 5
 451 532 l 1
 451 98 l 2
 451 56 494 52 513 52 c 2
 522 52 l 1
 528 14 l 1
 501 6 492 -6 458 -6 c 0
 400 -6 365 11 351 51 c 1
 322 20 282 -6 208 -6 c 0
 123 -6 30 52 30 192 c 2
 30 307 l 2
 30 438 119 503 221 503 c 0
 274 503 315 475 344 446 c 1
 344 532 l 1
 271 532 l 5
EndSplineSet
Fore
SplineSet
271 532 m 5x3e
 271 592 l 5
 517 592 l 5
 517 532 l 5
 271 532 l 5x3e
EndSplineSet
Refer: 120 100 N 1 0 0 1 0 0 2
Validated: 5
EndChar

StartChar: degree
Encoding: 176 176 125
Width: 229
VWidth: 0
Flags: W
HStem: 552 50<78.0691 149.931> 686 50<78.0691 149.931>
VStem: 22 50<608.069 679.931> 156 50<608.069 679.931>
LayerCount: 2
Fore
SplineSet
72 644 m 0
 72 621 91 602 114 602 c 0
 137 602 156 621 156 644 c 0
 156 667 137 686 114 686 c 0
 91 686 72 667 72 644 c 0
22 644 m 0
 22 694 64 736 114 736 c 0
 164 736 206 694 206 644 c 0
 206 594 164 552 114 552 c 0
 64 552 22 594 22 644 c 0
EndSplineSet
Validated: 1
EndChar

StartChar: dieresis
Encoding: 168 168 126
Width: 418
VWidth: 0
Flags: W
HStem: 688 118<67.6616 158.338 259.662 350.338>
VStem: 54 118<701.662 792.338> 246 118<701.662 792.338>
LayerCount: 2
Fore
SplineSet
54 747 m 0
 54 779 81 806 113 806 c 0
 145 806 172 779 172 747 c 0
 172 715 145 688 113 688 c 0
 81 688 54 715 54 747 c 0
246 747 m 0
 246 779 273 806 305 806 c 0
 337 806 364 779 364 747 c 0
 364 715 337 688 305 688 c 0
 273 688 246 715 246 747 c 0
EndSplineSet
Validated: 1
EndChar

StartChar: divide
Encoding: 247 247 127
Width: 441
VWidth: 0
Flags: W
HStem: 67 132<170.303 267.697> 237 92<26 411> 367 132<170.303 267.697>
VStem: 153 132<84.3035 181.697 384.303 481.697>
CounterMasks: 1 e0
LayerCount: 2
Fore
SplineSet
153 433 m 0
 153 469 183 499 219 499 c 0
 255 499 285 469 285 433 c 0
 285 397 255 367 219 367 c 0
 183 367 153 397 153 433 c 0
411 237 m 1
 26 237 l 1
 26 329 l 1
 411 329 l 1
 411 237 l 1
153 133 m 0
 153 169 183 199 219 199 c 0
 255 199 285 169 285 133 c 0
 285 97 255 67 219 67 c 0
 183 67 153 97 153 133 c 0
EndSplineSet
Validated: 1
EndChar

StartChar: dollar
Encoding: 36 36 128
Width: 461
VWidth: 0
Flags: W
HStem: 64 80<136.515 192 276 289> 493 82<186.018 192 276 327.475>
VStem: 56 107<382.935 468.936> 192 84<-45 66.1567 572.084 685> 323 107<170.103 253.488>
LayerCount: 2
Fore
SplineSet
225 278 m 0
 131 284 56 340 56 423 c 0
 56 508 122 562 192 575 c 1
 192 685 l 1
 276 685 l 1
 276 575 l 1
 349 566 376 535 409 508 c 1
 363 444 l 1
 334 471 301 493 241 493 c 0
 202 493 163 464 163 419 c 0
 163 378 222 363 256 361 c 0
 335 356 430 302 430 213 c 0
 430 122 368 73 276 64 c 1
 276 -45 l 1
 192 -45 l 1
 192 64 l 1
 95 73 56 111 27 143 c 1
 82 208 l 1
 112 176 158 144 217 144 c 0
 289 144 323 178 323 221 c 0
 323 254 274 275 225 278 c 0
EndSplineSet
Validated: 1
EndChar

StartChar: dotlessi
Encoding: 305 305 129
Width: 182
VWidth: 0
Flags: W
HStem: 0 21G<37 144>
VStem: 37 107<0 482>
LayerCount: 2
Fore
SplineSet
144 516 m 1
 144 0 l 1
 37 0 l 1
 37 482 l 1
 144 516 l 1
EndSplineSet
Validated: 1
EndChar

StartChar: e
Encoding: 101 101 130
Width: 483
VWidth: 0
Flags: W
HStem: -6 85<185.092 356.806> 419 85<181.062 305.461>
VStem: 27 107<131.892 227 300 364.263> 341 107<313 381.018>
LayerCount: 2
Fore
SplineSet
252 -6 m 0
 102 -6 27 87 27 255 c 0
 27 426 135 504 243 504 c 0
 402 504 448 390 448 248 c 1
 134 227 l 1
 138 130 172 79 262 79 c 0
 342 79 394 119 411 139 c 1
 450 90 l 1
 424 55 386 -6 252 -6 c 0
137 300 m 1
 341 313 l 1
 341 379 302 419 243 419 c 0
 173 419 146 366 137 300 c 1
EndSplineSet
Validated: 1
EndChar

StartChar: eacute
Encoding: 233 233 131
Width: 483
VWidth: 0
Flags: W
HStem: -6 85<185.092 356.806> 419 85<181.062 305.461> 563 199
VStem: 27 107<131.892 227 300 364.263> 155 212 341 107<313 381.018>
LayerCount: 2
Back
SplineSet
252 -6 m 0
 102 -6 27 87 27 255 c 0
 27 426 135 504 243 504 c 0
 402 504 448 390 448 248 c 1
 134 227 l 1
 138 130 172 79 262 79 c 0
 342 79 394 119 411 139 c 1
 450 90 l 1
 424 55 386 -6 252 -6 c 0
137 300 m 1
 341 313 l 1
 341 379 302 419 243 419 c 0
 173 419 146 366 137 300 c 1
155 610 m 1
 299 762 l 1
 367 681 l 1
 195 563 l 1
 155 610 l 1
EndSplineSet
Fore
Refer: 266 769 S 1 0 0 1 440 0 2
Refer: 130 101 N 1 0 0 1 0 0 2
Validated: 1
EndChar

StartChar: ecaron
Encoding: 283 283 132
Width: 483
VWidth: 0
UnlinkRmOvrlpSave: 1
Flags: W
HStem: -6 85<185.092 356.806> 419 85<181.062 305.461> 491 226
VStem: 27 107<131.892 227 300 364.263> 126 235 341 107<313 381.018>
LayerCount: 2
Back
SplineSet
126 676 m 1
 162 706 l 1
 244 636 l 1
 326 707 l 1
 361 677 l 1
 258 504 l 1
 405 497 448 386 448 248 c 1
 134 227 l 1
 138 130 172 79 262 79 c 0
 342 79 394 119 411 139 c 1
 450 90 l 1
 424 55 386 -6 252 -6 c 0
 102 -6 27 87 27 255 c 0
 27 419 126 498 230 504 c 1
 126 676 l 1
137 300 m 1
 341 313 l 1
 341 379 302 419 243 419 c 0
 173 419 146 366 137 300 c 1
EndSplineSet
Fore
Refer: 275 780 N 1 0 0 1 489 10 2
Refer: 130 101 N 1 0 0 1 0 0 2
Validated: 5
EndChar

StartChar: ecircumflex
Encoding: 234 234 133
Width: 483
VWidth: 0
Flags: W
HStem: -6 85<185.092 356.806> 419 85<181.062 305.461> 563 157
VStem: 27 107<131.892 227 300 364.263> 100 288 341 107<313 381.018>
LayerCount: 2
Back
SplineSet
252 -6 m 0
 102 -6 27 87 27 255 c 0
 27 426 135 504 243 504 c 0
 402 504 448 390 448 248 c 1
 134 227 l 1
 138 130 172 79 262 79 c 0
 342 79 394 119 411 139 c 1
 450 90 l 1
 424 55 386 -6 252 -6 c 0
137 300 m 1
 341 313 l 1
 341 379 302 419 243 419 c 0
 173 419 146 366 137 300 c 1
388 603 m 1
 365 563 l 1
 244 608 l 1
 123 563 l 1
 100 603 l 1
 244 720 l 1
 388 603 l 1
EndSplineSet
Fore
Refer: 267 770 S 1 0 0 1 489 0 2
Refer: 130 101 N 1 0 0 1 0 0 2
Validated: 1
EndChar

StartChar: edieresis
Encoding: 235 235 134
Width: 483
VWidth: 0
Flags: W
HStem: -6 85<185.092 356.806> 419 85<181.062 305.461> 563 118<103.662 194.338 295.662 386.338>
VStem: 27 107<131.892 227 300 364.263> 90 118<576.662 667.338> 282 118<576.662 667.338> 341 107<313 381.018>
LayerCount: 2
Back
SplineSet
253 -6 m 0
 103 -6 28 87 28 255 c 0
 28 426 136 504 244 504 c 0
 403 504 449 390 449 248 c 1
 135 227 l 1
 139 130 173 79 263 79 c 0
 343 79 395 119 412 139 c 1
 451 90 l 1
 425 55 387 -6 253 -6 c 0
138 300 m 1
 342 313 l 1
 342 379 303 419 244 419 c 0
 174 419 147 366 138 300 c 1
90 622 m 0
 90 654 117 681 149 681 c 0
 181 681 208 654 208 622 c 0
 208 590 181 563 149 563 c 0
 117 563 90 590 90 622 c 0
282 622 m 0
 282 654 309 681 341 681 c 0
 373 681 400 654 400 622 c 0
 400 590 373 563 341 563 c 0
 309 563 282 590 282 622 c 0
EndSplineSet
Fore
Refer: 272 776 S 1 0 0 1 491 0 2
Refer: 130 101 N 1 0 0 1 0 0 2
Validated: 1
EndChar

StartChar: egrave
Encoding: 232 232 135
Width: 483
VWidth: 0
Flags: W
HStem: -6 85<185.092 356.806> 419 85<181.062 305.461> 563 199
VStem: 27 107<131.892 227 300 364.263> 109 212 341 107<313 381.018>
LayerCount: 2
Back
SplineSet
252 -6 m 0
 102 -6 27 87 27 255 c 0
 27 426 135 504 243 504 c 0
 402 504 448 390 448 248 c 1
 134 227 l 1
 138 130 172 79 262 79 c 0
 342 79 394 119 411 139 c 1
 450 90 l 1
 424 55 386 -6 252 -6 c 0
137 300 m 1
 341 313 l 1
 341 379 302 419 243 419 c 0
 173 419 146 366 137 300 c 1
321 610 m 1
 281 563 l 1
 109 681 l 1
 177 762 l 1
 321 610 l 1
EndSplineSet
Fore
Refer: 265 768 S 1 0 0 1 526 0 2
Refer: 130 101 N 1 0 0 1 0 0 2
Validated: 1
EndChar

StartChar: eight
Encoding: 56 56 136
Width: 489
VWidth: 0
Flags: W
HStem: -8 85<177.76 317.799> 303 85<185.393 306.006> 571 77<181.671 298.561>
VStem: 29 107<121.69 268.689> 61 96<416.972 548.272> 329 96<409.745 539.978> 350 107<110.518 258.097>
LayerCount: 2
Fore
SplineSet
243 -8 m 0xe2
 107 -8 29 79 29 195 c 0xf2
 29 267 58 324 113 357 c 1
 79 388 61 432 61 484 c 0
 61 584 127 648 243 648 c 0
 346 648 425 580 425 485 c 0xec
 425 425 406 380 373 351 c 1
 424 317 457 262 457 196 c 0
 457 59 378 -8 243 -8 c 0xe2
243 303 m 0
 169 303 136 260 136 197 c 0
 136 118 185 77 243 77 c 0
 313 77 350 106 350 194 c 0
 350 254 301 303 243 303 c 0
243 571 m 0
 183 571 157 536 157 485 c 0
 157 421 196 388 243 388 c 0
 300 388 329 412 329 483 c 0xec
 329 532 290 571 243 571 c 0
EndSplineSet
Validated: 1
EndChar

StartChar: ellipsis
Encoding: 8230 8230 137
Width: 550
VWidth: 0
Flags: W
HStem: -6 132<46.3035 143.697 226.303 323.697 406.303 503.697>
VStem: 29 132<11.3035 108.697> 209 132<11.3035 108.697> 389 132<11.3035 108.697>
CounterMasks: 1 70
LayerCount: 2
Fore
SplineSet
389 60 m 0
 389 96 419 126 455 126 c 0
 491 126 521 96 521 60 c 0
 521 24 491 -6 455 -6 c 0
 419 -6 389 24 389 60 c 0
209 60 m 0
 209 96 239 126 275 126 c 0
 311 126 341 96 341 60 c 0
 341 24 311 -6 275 -6 c 0
 239 -6 209 24 209 60 c 0
29 60 m 0
 29 96 59 126 95 126 c 0
 131 126 161 96 161 60 c 0
 161 24 131 -6 95 -6 c 0
 59 -6 29 24 29 60 c 0
EndSplineSet
Validated: 1
EndChar

StartChar: emdash
Encoding: 8212 8212 138
Width: 696
VWidth: 0
Flags: W
HStem: 237 92<26 666>
LayerCount: 2
Fore
SplineSet
666 237 m 1
 26 237 l 1
 26 329 l 1
 666 329 l 1
 666 237 l 1
EndSplineSet
Validated: 1
EndChar

StartChar: endash
Encoding: 8211 8211 139
Width: 496
VWidth: 0
Flags: W
HStem: 237 92<26 466>
LayerCount: 2
Fore
SplineSet
466 237 m 1
 26 237 l 1
 26 329 l 1
 466 329 l 1
 466 237 l 1
EndSplineSet
Validated: 1
EndChar

StartChar: eogonek
Encoding: 281 281 140
Width: 483
VWidth: 0
UnlinkRmOvrlpSave: 1
Flags: W
HStem: -194 48<198.049 301.723> -6 85<185.092 356.806> 0 42<247.499 317> 419 85<181.062 305.461>
VStem: 27 107<131.892 227 300 364.263> 87 100<-135.513 -43.7122> 341 107<313 381.018>
LayerCount: 2
Back
SplineSet
137 300 m 1
 341 313 l 1
 341 379 302 419 243 419 c 0
 173 419 146 366 137 300 c 1
308 -2 m 1
 224 -20 187 -50 187 -86 c 0
 187 -131 213 -146 249 -146 c 0
 281 -146 327 -118 327 -118 c 1
 343 -140 l 1
 343 -140 291 -194 234 -194 c 0
 134 -194 87 -156 87 -86 c 0
 87 -53 123 -21 175 4 c 1
 76 32 27 119 27 255 c 0
 27 426 135 504 243 504 c 0
 402 504 448 390 448 248 c 1
 134 227 l 1
 138 130 172 79 262 79 c 0
 342 79 394 119 411 139 c 1
 450 90 l 1
 428 60 398 12 308 -2 c 1
EndSplineSet
Fore
Refer: 279 808 N 1 0 0 1 451 0 2
Refer: 130 101 N 1 0 0 1 0 0 2
Validated: 5
EndChar

StartChar: equal
Encoding: 61 61 141
Width: 419
VWidth: 0
Flags: W
HStem: 145 92<31 385> 329 92<31 385>
LayerCount: 2
Fore
SplineSet
385 237 m 1
 385 145 l 1
 31 145 l 1
 31 237 l 1
 385 237 l 1
385 421 m 1
 385 329 l 1
 31 329 l 1
 31 421 l 1
 385 421 l 1
EndSplineSet
Validated: 1
EndChar

StartChar: eth
Encoding: 240 240 142
Width: 485
VWidth: 0
Flags: W
HStem: -8 85<181.291 291.508> 373 85<191.139 300.649>
VStem: 27 107<130.562 305.231> 348 107<142.987 316.997>
LayerCount: 2
Fore
SplineSet
241 -8 m 0
 106 -8 27 94 27 231 c 0
 27 343 120 458 241 458 c 0
 264 458 285 455 304 449 c 1
 286 477 266 502 246 525 c 1
 168 471 l 1
 130 526 l 1
 198 573 l 1
 179 590 161 604 146 612 c 1
 192 685 l 1
 220 671 248 652 276 628 c 1
 349 679 l 1
 388 624 l 1
 325 580 l 1
 398 497 455 376 455 230 c 0
 455 114 377 -8 241 -8 c 0
241 373 m 0
 183 373 134 289 134 229 c 0
 134 141 171 77 241 77 c 0
 299 77 348 153 348 232 c 0
 348 295 315 373 241 373 c 0
EndSplineSet
Validated: 1
EndChar

StartChar: exclam
Encoding: 33 33 143
Width: 203
VWidth: 0
Flags: W
HStem: -6 132<53.3035 150.697> 620 20G<48 155>
VStem: 36 132<11.3035 108.697> 48 107<191 640>
LayerCount: 2
Fore
SplineSet
36 60 m 0xe0
 36 96 66 126 102 126 c 0
 138 126 168 96 168 60 c 0
 168 24 138 -6 102 -6 c 0
 66 -6 36 24 36 60 c 0xe0
48 191 m 1xd0
 48 640 l 1
 155 640 l 1
 155 191 l 1
 48 191 l 1xd0
EndSplineSet
Validated: 1
EndChar

StartChar: exclamdown
Encoding: 161 161 144
Width: 201
VWidth: 0
Flags: W
HStem: 408 132<51.3035 148.697>
VStem: 34 132<425.303 522.697> 47 107<-106 343>
LayerCount: 2
Fore
SplineSet
166 474 m 0xc0
 166 438 136 408 100 408 c 0
 64 408 34 438 34 474 c 0
 34 510 64 540 100 540 c 0
 136 540 166 510 166 474 c 0xc0
154 343 m 1xa0
 154 -106 l 1
 47 -106 l 1
 47 343 l 1
 154 343 l 1xa0
EndSplineSet
Validated: 1
EndChar

StartChar: f
Encoding: 102 102 145
Width: 287
VWidth: 0
Flags: W
HStem: 0 21G<73 180> 429 69<27 73 180 255> 588 58<187.016 251>
VStem: 73 107<0 429 498 577.464>
LayerCount: 2
Fore
SplineSet
255 429 m 1
 180 429 l 1
 180 0 l 1
 73 0 l 1
 73 429 l 1
 27 429 l 1
 27 498 l 1
 73 498 l 1
 73 544 l 2
 73 616 111 646 187 646 c 0
 221 646 240 638 257 626 c 1
 251 588 l 1
 242 588 l 2
 223 588 180 584 180 542 c 2
 180 498 l 1
 255 498 l 1
 255 429 l 1
EndSplineSet
Validated: 1
EndChar

StartChar: five
Encoding: 53 53 146
Width: 461
VWidth: 0
Flags: W
HStem: -8 90<152.276 278.866> 346 90<159 270.896> 555 85<169 386>
VStem: 30 98<109.131 164> 328 102<131.941 290.432>
LayerCount: 2
Fore
SplineSet
204 346 m 2
 55 346 l 1
 81 640 l 1
 386 640 l 1
 386 555 l 1
 169 555 l 1
 159 436 l 1
 209 436 l 2
 335 436 430 354 430 220 c 0
 430 70 345 -8 224 -8 c 0
 115 -8 30 47 30 164 c 1
 128 164 l 1
 128 115 159 82 219 82 c 0
 274 82 328 126 328 218 c 0
 328 304 259 346 204 346 c 2
EndSplineSet
Validated: 1
EndChar

StartChar: florin
Encoding: 402 402 147
Width: 360
VWidth: 0
Flags: W
HStem: -139 57<13.1063 82.0034> 429 69<85 131 244 319> 588 58<257.328 323>
VStem: 6 327
LayerCount: 2
Fore
SplineSet
319 429 m 1
 238 429 l 1
 198 -37 l 2
 192 -109 151 -139 75 -139 c 0
 41 -139 24 -129 6 -119 c 1
 16 -81 l 1
 16 -81 21 -82 27 -82 c 0
 46 -82 87 -77 91 -35 c 2
 131 429 l 1
 85 429 l 1
 85 498 l 1
 137 498 l 1
 141 544 l 2
 147 616 188 646 264 646 c 0
 298 646 317 638 333 626 c 1
 323 588 l 1
 314 588 l 2
 295 588 252 584 248 542 c 2
 244 498 l 1
 319 498 l 1
 319 429 l 1
EndSplineSet
Validated: 1
EndChar

StartChar: four
Encoding: 52 52 148
Width: 474
VWidth: 0
Flags: W
HStem: 0 21G<268 375> 124 85<131 268 375 444> 620 20G<275.254 375>
VStem: 268 107<0 124 209 440>
LayerCount: 2
Fore
SplineSet
268 0 m 1
 268 124 l 1
 28 124 l 1
 28 199 l 1
 287 640 l 1
 375 640 l 1
 375 209 l 1
 444 209 l 1
 444 124 l 1
 375 124 l 1
 375 0 l 1
 268 0 l 1
268 209 m 1
 268 440 l 1
 131 209 l 1
 268 209 l 1
EndSplineSet
Validated: 1
EndChar

StartChar: g
Encoding: 103 103 149
Width: 489
VWidth: 0
Flags: W
HStem: -200 91<139 257.366> 0 85<170.564 306.236> 418 85<177.577 298.97>
VStem: 30 107<122.636 378.667> 344 107<114.433 380.556 446 482>
LayerCount: 2
Fore
SplineSet
344 482 m 1
 451 516 l 1
 451 85 l 2
 451 -119 339 -200 139 -200 c 1
 139 -109 l 1
 292 -109 335 -44 343 49 c 1
 315 21 276 0 208 0 c 0
 123 0 30 58 30 198 c 2
 30 307 l 2
 30 438 119 503 221 503 c 0
 274 503 315 475 344 446 c 1
 344 482 l 1
344 142 m 1
 344 349 l 1
 338 361 309 418 237 418 c 0
 198 418 137 393 137 303 c 2
 137 206 l 2
 137 132 170 85 223 85 c 0
 306 85 327 115 344 142 c 1
EndSplineSet
Validated: 1
EndChar

StartChar: gbreve
Encoding: 287 287 150
Width: 489
VWidth: 0
Flags: W
HStem: -200 91<139 257.366> 0 85<170.564 306.236> 418 85<177.577 298.97> 559 82<178.82 289.18>
VStem: 30 107<122.636 378.667> 111 246 344 107<114.433 380.556 446 482>
LayerCount: 2
Back
SplineSet
344 482 m 1
 451 516 l 1
 451 85 l 2
 451 -119 339 -200 139 -200 c 1
 139 -109 l 1
 292 -109 335 -44 343 49 c 1
 315 21 276 0 208 0 c 0
 123 0 30 58 30 198 c 2
 30 307 l 2
 30 438 119 503 221 503 c 0
 274 503 315 475 344 446 c 1
 344 482 l 1
344 142 m 1
 344 349 l 1
 338 361 309 418 237 418 c 0
 198 418 137 393 137 303 c 2
 137 206 l 2
 137 132 170 85 223 85 c 0
 306 85 327 115 344 142 c 1
234 559 m 4
 155 559 114 634 111 691 c 5
 160 691 l 5
 173 657 202 641 234 641 c 4
 266 641 295 657 308 691 c 5
 357 691 l 5
 354 634 313 559 234 559 c 4
EndSplineSet
Fore
Refer: 270 774 N 1 0 0 1 479 0 2
Refer: 149 103 N 1 0 0 1 0 0 2
Validated: 1
EndChar

StartChar: germandbls
Encoding: 223 223 151
Width: 477
VWidth: 0
Flags: W
HStem: -8 96<202.798 329.319> 0 21G<38 145> 314 89<191 252.217> 568 78<169.306 280.223>
VStem: 38 107<0 542.96> 297 88<445.53 548.494> 350 96<107.557 263.794>
LayerCount: 2
Fore
SplineSet
307 -8 m 0xba
 203 -8 168 32 168 32 c 1
 211 107 l 1
 211 107 243 88 290 88 c 0
 320 88 350 116 350 189 c 0xba
 350 292 269 314 191 314 c 1
 191 403 l 1
 238 403 297 442 297 507 c 0
 297 548 258 568 214 568 c 0
 195 568 145 556 145 462 c 2
 145 0 l 1
 38 0 l 1
 38 482 l 2
 38 618 146 646 222 646 c 0
 292 646 385 604 385 498 c 0x7c
 385 450 364 410 331 380 c 1
 415 346 446 277 446 204 c 0
 446 64 385 -8 307 -8 c 0xba
EndSplineSet
Validated: 1
EndChar

StartChar: grave
Encoding: 96 96 152
Width: 232
VWidth: 0
Flags: W
HStem: 563 199
VStem: 10 212
LayerCount: 2
Fore
SplineSet
10 681 m 1
 78 762 l 1
 222 610 l 1
 182 563 l 1
 10 681 l 1
EndSplineSet
Validated: 1
EndChar

StartChar: greater
Encoding: 62 62 153
Width: 502
VWidth: 0
Flags: W
LayerCount: 2
Fore
SplineSet
33 479 m 1
 86 555 l 1
 473 283 l 1
 86 11 l 1
 33 87 l 1
 313 283 l 1
 33 479 l 1
EndSplineSet
Validated: 1
EndChar

StartChar: guillemotleft
Encoding: 171 171 154
Width: 439
VWidth: 0
Flags: W
LayerCount: 2
Fore
SplineSet
367 467 m 1
 407 435 l 1
 331 283 l 1
 407 133 l 1
 367 99 l 1
 219 283 l 1
 367 467 l 1
173 467 m 1
 213 435 l 1
 137 283 l 1
 213 133 l 1
 173 99 l 1
 25 283 l 1
 173 467 l 1
EndSplineSet
Validated: 1
EndChar

StartChar: guillemotright
Encoding: 187 187 155
Width: 441
VWidth: 0
Flags: W
LayerCount: 2
Fore
SplineSet
264 99 m 1
 224 131 l 1
 300 283 l 1
 224 433 l 1
 264 467 l 1
 412 283 l 1
 264 99 l 1
70 99 m 1
 30 131 l 1
 106 283 l 1
 30 433 l 1
 70 467 l 1
 218 283 l 1
 70 99 l 1
EndSplineSet
Validated: 1
EndChar

StartChar: guilsinglleft
Encoding: 8249 8249 156
Width: 245
VWidth: 0
Flags: W
VStem: 25 188
LayerCount: 2
Fore
SplineSet
173 467 m 1
 213 435 l 1
 137 283 l 1
 213 133 l 1
 173 99 l 1
 25 283 l 1
 173 467 l 1
EndSplineSet
Validated: 1
EndChar

StartChar: guilsinglright
Encoding: 8250 8250 157
Width: 247
VWidth: 0
Flags: W
VStem: 30 188
LayerCount: 2
Fore
SplineSet
70 99 m 1
 30 131 l 1
 106 283 l 1
 30 433 l 1
 70 467 l 1
 218 283 l 1
 70 99 l 1
EndSplineSet
Validated: 1
EndChar

StartChar: h
Encoding: 104 104 158
Width: 496
VWidth: 0
Flags: W
HStem: 0 21G<39 146 353 460> 413 85<190.098 338.546> 638 20G<83.0588 146>
VStem: 39 107<0 367.498 442 624> 353 107<0 396.66>
LayerCount: 2
Fore
SplineSet
146 318 m 1
 146 0 l 1
 39 0 l 1
 39 624 l 1
 146 658 l 1
 146 442 l 1
 173 472 215 498 283 498 c 2
 323 498 l 2
 408 498 460 462 460 356 c 2
 460 0 l 1
 353 0 l 1
 353 348 l 2
 353 389 332 413 279 413 c 2
 245 413 l 2
 197 413 157 371 146 318 c 1
EndSplineSet
Validated: 1
EndChar

StartChar: hyphen
Encoding: 45 45 159
Width: 321
VWidth: 0
Flags: W
HStem: 237 92<26 291>
VStem: 26 265<237 329>
LayerCount: 2
Fore
SplineSet
291 237 m 1
 26 237 l 1
 26 329 l 1
 291 329 l 1
 291 237 l 1
EndSplineSet
Validated: 1
EndChar

StartChar: i
Encoding: 105 105 160
Width: 202
VWidth: 0
Flags: W
HStem: 0 21G<48 155> 578 132<52.3035 149.697>
VStem: 35 132<595.303 692.697> 48 107<0 482>
LayerCount: 2
Fore
SplineSet
35 644 m 0xe0
 35 680 65 710 101 710 c 0
 137 710 167 680 167 644 c 0
 167 608 137 578 101 578 c 0
 65 578 35 608 35 644 c 0xe0
155 516 m 1xd0
 155 0 l 1
 48 0 l 1
 48 482 l 1
 155 516 l 1xd0
EndSplineSet
Validated: 1
EndChar

StartChar: iacute
Encoding: 237 237 161
Width: 264
VWidth: 0
Flags: W
HStem: 0 21<39 146> 563 199
VStem: 39 107<0 482> 39 212
LayerCount: 2
Back
SplineSet
39 610 m 1
 183 762 l 1
 251 681 l 1
 79 563 l 1
 39 610 l 1
146 516 m 1
 146 0 l 1
 39 0 l 1
 39 482 l 1
 146 516 l 1
EndSplineSet
Fore
Refer: 266 769 N 1 0 0 1 324 0 2
Refer: 129 305 N 1 0 0 1 2 0 2
Validated: 1
EndChar

StartChar: icircumflex
Encoding: 238 238 162
Width: 324
VWidth: 0
Flags: W
HStem: 0 21<108 215> 563 157
VStem: 18 288 108 107<0 482>
LayerCount: 2
Back
SplineSet
306 603 m 1
 283 563 l 1
 162 608 l 1
 41 563 l 1
 18 603 l 1
 162 720 l 1
 306 603 l 1
216 516 m 1
 216 0 l 1
 109 0 l 1
 109 482 l 1
 216 516 l 1
EndSplineSet
Fore
Refer: 267 770 S 1 0 0 1 407 0 2
Refer: 129 305 N 1 0 0 1 71 0 2
Validated: 1
EndChar

StartChar: idieresis
Encoding: 239 239 163
Width: 345
VWidth: 0
Flags: W
HStem: 0 21<119 226> 563 118<30.6616 121.338 222.662 313.338>
VStem: 17 118<576.662 667.338> 119 107<0 482> 209 118<576.662 667.338>
LayerCount: 2
Back
SplineSet
17 622 m 0
 17 654 44 681 76 681 c 0
 108 681 135 654 135 622 c 0
 135 590 108 563 76 563 c 0
 44 563 17 590 17 622 c 0
209 622 m 0
 209 654 236 681 268 681 c 0
 300 681 327 654 327 622 c 0
 327 590 300 563 268 563 c 0
 236 563 209 590 209 622 c 0
226 516 m 1
 226 0 l 1
 119 0 l 1
 119 482 l 1
 226 516 l 1
EndSplineSet
Fore
Refer: 272 776 N 1 0 0 1 418 0 2
Refer: 129 305 N 1 0 0 1 82 0 2
Validated: 1
EndChar

StartChar: igrave
Encoding: 236 236 164
Width: 264
VWidth: 0
Flags: W
HStem: 0 21<118 225> 563 199
VStem: 11 212 118 107<0 482>
LayerCount: 2
Back
SplineSet
225 610 m 1
 185 563 l 1
 13 681 l 1
 81 762 l 1
 225 610 l 1
225 516 m 1
 225 0 l 1
 118 0 l 1
 118 482 l 1
 225 516 l 1
EndSplineSet
Fore
Refer: 265 768 N 1 0 0 1 428 0 2
Refer: 129 305 N 1 0 0 1 81 0 2
Validated: 1
EndChar

StartChar: j
Encoding: 106 106 165
Width: 249
VWidth: 0
Flags: W
HStem: -139 57<22.3321 126.148> 578 132<98.3035 195.697>
VStem: 81 132<595.303 692.697> 95 107<-73.1494 482>
LayerCount: 2
Fore
SplineSet
81 644 m 0xe0
 81 680 111 710 147 710 c 0
 183 710 213 680 213 644 c 0
 213 608 183 578 147 578 c 0
 111 578 81 608 81 644 c 0xe0
95 -35 m 2xd0
 95 482 l 1
 202 516 l 1
 202 -37 l 2
 202 -109 164 -139 88 -139 c 0
 54 -139 37 -129 18 -119 c 1
 24 -81 l 1
 24 -81 29 -82 35 -82 c 0
 54 -82 95 -77 95 -35 c 2xd0
EndSplineSet
Validated: 1
EndChar

StartChar: k
Encoding: 107 107 166
Width: 458
VWidth: 0
Flags: W
HStem: 0 21G<39 146 307.583 432> 478 20G<276 418> 638 20G<83.0588 146>
VStem: 39 107<0 226 348 624>
LayerCount: 2
Fore
SplineSet
146 226 m 1
 146 0 l 1
 39 0 l 1
 39 624 l 1
 146 658 l 1
 146 348 l 1
 296 498 l 1
 418 498 l 1
 244 324 l 1
 432 0 l 1
 319 0 l 1
 174 254 l 1
 146 226 l 1
EndSplineSet
Validated: 1
EndChar

StartChar: l
Encoding: 108 108 167
Width: 246
VWidth: 0
Flags: W
HStem: -6 57<114 217.796> 636 20G<82.0588 145>
VStem: 38 107<60.0312 622>
LayerCount: 2
Fore
SplineSet
38 96 m 2
 38 622 l 1
 145 656 l 1
 145 98 l 2
 145 56 188 51 207 51 c 0
 213 51 216 52 216 52 c 1
 222 14 l 1
 205 3 186 -6 152 -6 c 0
 76 -6 38 24 38 96 c 2
EndSplineSet
Validated: 1
EndChar

StartChar: lacute
Encoding: 314 314 168
Width: 292
VWidth: 0
Flags: W
HStem: -6 57<114 217.796> 636 20<82.0588 145> 679 157
VStem: 38 107<60.0312 622> 88 197
LayerCount: 2
Back
SplineSet
38 96 m 2
 38 622 l 1
 145 656 l 1
 145 98 l 2
 145 56 188 51 207 51 c 0
 213 51 216 52 216 52 c 1
 222 14 l 1
 205 3 186 -6 152 -6 c 0
 76 -6 38 24 38 96 c 2
88 719 m 1
 232 836 l 1
 285 744 l 1
 111 679 l 1
 88 719 l 1
EndSplineSet
Fore
Refer: 281 57345 N 1 0 0 1 356 19 2
Refer: 167 108 N 1 0 0 1 0 0 2
Validated: 1
EndChar

StartChar: lcaron
Encoding: 318 318 169
Width: 317
VWidth: 0
Flags: W
HStem: -6 57<114 217.796> 458 250 636 20<82.0588 145>
VStem: 38 107<60.0312 622> 229 67<534.461 638>
LayerCount: 2
Back
SplineSet
38 96 m 2
 38 622 l 1
 145 656 l 1
 145 98 l 2
 145 56 188 51 207 51 c 0
 213 51 216 52 216 52 c 1
 222 14 l 1
 205 3 186 -6 152 -6 c 0
 76 -6 38 24 38 96 c 2
171 649 m 0
 171 687 196 708 234 708 c 0
 282 708 296 662 296 614 c 0
 296 547 239 476 221 458 c 1
 199 472 l 1
 214 501 229 530 229 568 c 0
 229 601 171 601 171 649 c 0
EndSplineSet
Fore
Refer: 282 787 N 1 0 0 1 454 -89 2
Refer: 167 108 N 1 0 0 1 0 0 2
Validated: 1
EndChar

StartChar: less
Encoding: 60 60 170
Width: 497
VWidth: 0
Flags: W
LayerCount: 2
Fore
SplineSet
465 87 m 1
 412 11 l 1
 25 283 l 1
 412 555 l 1
 465 479 l 1
 185 283 l 1
 465 87 l 1
EndSplineSet
Validated: 1
EndChar

StartChar: logicalnot
Encoding: 172 172 171
Width: 498
VWidth: 0
Flags: W
HStem: 237 92<26 374>
VStem: 374 92<145 237>
LayerCount: 2
Fore
SplineSet
374 237 m 1
 26 237 l 1
 26 329 l 1
 466 329 l 1
 466 145 l 1
 374 145 l 1
 374 237 l 1
EndSplineSet
Validated: 1
EndChar

StartChar: lslash
Encoding: 322 322 172
Width: 353
VWidth: 0
UnlinkRmOvrlpSave: 1
Flags: W
HStem: -6 57<192 295.796> 636 20<160.059 223>
VStem: 20 304 116 107<60.0312 622>
LayerCount: 2
Back
SplineSet
62 241 m 5
 20 300 l 5
 116 367 l 1
 116 622 l 1
 223 656 l 1
 223 442 l 1
 283 484 l 5
 324 425 l 5
 223 354 l 1
 223 98 l 2
 223 56 266 51 285 51 c 0
 291 51 294 52 294 52 c 1
 300 14 l 1
 283 3 264 -6 230 -6 c 0
 154 -6 116 24 116 96 c 2
 116 279 l 1
 62 241 l 5
EndSplineSet
Fore
SplineSet
283 484 m 1xe0
 324 425 l 1
 62 241 l 1
 20 300 l 1
 283 484 l 1xe0
EndSplineSet
Refer: 167 108 N 1 0 0 1 78 0 2
Validated: 5
EndChar

StartChar: m
Encoding: 109 109 173
Width: 808
VWidth: 0
Flags: W
HStem: 0 21G<37 144 351 458 665 772> 413 85<188.098 337.958 502.098 650.546>
VStem: 37 107<0 367.498 442 464> 351 107<0 367.498> 665 107<0 396.66>
CounterMasks: 1 38
LayerCount: 2
Fore
SplineSet
144 318 m 1
 144 0 l 1
 37 0 l 1
 37 464 l 1
 144 498 l 1
 144 442 l 1
 171 472 213 498 281 498 c 2
 321 498 l 2
 383 498 427 479 447 428 c 1
 472 463 517 498 595 498 c 2
 635 498 l 2
 720 498 772 462 772 356 c 2
 772 0 l 1
 665 0 l 1
 665 348 l 2
 665 389 644 413 591 413 c 2
 557 413 l 2
 509 413 469 371 458 318 c 1
 458 0 l 1
 351 0 l 1
 351 348 l 2
 351 389 330 413 277 413 c 2
 243 413 l 2
 195 413 155 371 144 318 c 1
EndSplineSet
Validated: 1
EndChar

StartChar: macron
Encoding: 175 175 174
Width: 315
VWidth: 0
Flags: W
HStem: 587 62<25 290>
VStem: 25 265<587 649>
LayerCount: 2
Fore
SplineSet
25 649 m 1
 290 649 l 1
 290 587 l 1
 25 587 l 1
 25 649 l 1
EndSplineSet
Validated: 1
EndChar

StartChar: multiply
Encoding: 215 215 175
Width: 431
VWidth: 0
Flags: W
LayerCount: 2
Fore
SplineSet
93 97 m 1
 28 162 l 1
 149 283 l 1
 28 404 l 1
 93 469 l 1
 214 348 l 1
 335 469 l 1
 400 404 l 1
 279 283 l 1
 400 162 l 1
 335 97 l 1
 214 218 l 1
 93 97 l 1
EndSplineSet
Validated: 1
EndChar

StartChar: n
Encoding: 110 110 176
Width: 494
VWidth: 0
Flags: W
HStem: 0 21G<37 144 351 458> 413 85<188.098 336.546>
VStem: 37 107<0 367.498 442 464> 351 107<0 396.66>
LayerCount: 2
Fore
SplineSet
144 318 m 1
 144 0 l 1
 37 0 l 1
 37 464 l 1
 144 498 l 1
 144 442 l 1
 171 472 213 498 281 498 c 2
 321 498 l 2
 406 498 458 462 458 356 c 2
 458 0 l 1
 351 0 l 1
 351 348 l 2
 351 389 330 413 277 413 c 2
 243 413 l 2
 195 413 155 371 144 318 c 1
EndSplineSet
Validated: 1
EndChar

StartChar: nacute
Encoding: 324 324 177
Width: 494
VWidth: 0
Flags: W
HStem: 0 21<37 144 351 458> 413 85<188.098 336.546> 563 199
VStem: 37 107<0 367.498 442 464> 201 212 351 107<0 396.66>
LayerCount: 2
Back
SplineSet
143 318 m 1
 143 0 l 1
 36 0 l 1
 36 464 l 1
 143 498 l 1
 143 442 l 1
 170 472 212 498 280 498 c 2
 320 498 l 2
 405 498 457 462 457 356 c 2
 457 0 l 1
 350 0 l 1
 350 348 l 2
 350 389 329 413 276 413 c 2
 242 413 l 2
 194 413 154 371 143 318 c 1
201 610 m 1
 345 762 l 1
 413 681 l 1
 241 563 l 1
 201 610 l 1
EndSplineSet
Fore
Refer: 266 769 N 1 0 0 1 486 0 2
Refer: 176 110 N 1 0 0 1 0 0 2
Validated: 1
EndChar

StartChar: ncaron
Encoding: 328 328 178
Width: 494
VWidth: 0
UnlinkRmOvrlpSave: 1
Flags: W
HStem: 0 21<37 144 351 458> 413 85<188.098 336.546> 491 226
VStem: 37 107<0 367.498 442 464> 127 235 351 107<0 396.66>
LayerCount: 2
Back
SplineSet
128 676 m 1
 164 706 l 1
 246 636 l 1
 328 707 l 1
 363 677 l 1
 255 497 l 1
 263 498 271 498 280 498 c 2
 320 498 l 2
 405 498 457 462 457 356 c 2
 457 0 l 1
 350 0 l 1
 350 348 l 2
 350 389 329 413 276 413 c 2
 242 413 l 2
 194 413 154 371 143 318 c 1
 143 0 l 1
 36 0 l 1
 36 464 l 1
 143 498 l 1
 143 442 l 1
 164 465 194 486 238 494 c 1
 128 676 l 1
EndSplineSet
Fore
Refer: 275 780 S 1 0 0 1 490 10 2
Refer: 176 110 N 1 0 0 1 0 0 2
Validated: 5
EndChar

StartChar: nine
Encoding: 57 57 179
Width: 485
VWidth: 0
Flags: W
HStem: 253 85<178.436 312.563> 564 85<165.201 305.24>
VStem: 26 107<383.78 530.482> 347 107<372.635 519.31>
LayerCount: 2
Fore
SplineSet
240 338 m 0
 314 338 347 381 347 444 c 0
 347 523 298 564 240 564 c 0
 170 564 133 535 133 447 c 0
 133 387 182 338 240 338 c 0
454 446 m 0
 454 216 314 37 192 -23 c 1
 143 51 l 1
 191 78 273 164 326 265 c 1
 301 257 272 253 240 253 c 0
 119 253 26 333 26 445 c 0
 26 582 105 649 240 649 c 0
 376 649 454 562 454 446 c 0
EndSplineSet
Validated: 1
EndChar

StartChar: ntilde
Encoding: 241 241 180
Width: 494
VWidth: 0
Flags: W
HStem: 0 21<37 144 351 458> 413 85<188.098 336.546> 563 92<278.516 356.378> 624 92<166.622 244.484>
VStem: 37 107<0 367.498 442 464> 351 107<0 396.66>
LayerCount: 2
Back
SplineSet
144 318 m 1
 144 0 l 1
 37 0 l 1
 37 464 l 1
 144 498 l 1
 144 442 l 1
 171 472 213 498 281 498 c 2
 321 498 l 2
 406 498 458 462 458 356 c 2
 458 0 l 1
 351 0 l 1
 351 348 l 2
 351 389 330 413 277 413 c 2
 243 413 l 2
 195 413 155 371 144 318 c 1
188 624 m 0
 176 624 170 609 151 573 c 1
 86 597 l 1
 120 691 145 716 173 716 c 0
 243 716 288 655 335 655 c 0
 347 655 353 670 372 706 c 1
 437 681 l 1
 403 587 378 563 350 563 c 0
 280 563 235 624 188 624 c 0
EndSplineSet
Fore
Refer: 268 771 N 1 0 0 1 513 0 2
Refer: 176 110 N 1 0 0 1 0 0 2
Validated: 1
EndChar

StartChar: numbersign
Encoding: 35 35 181
Width: 544
VWidth: 0
Flags: W
HStem: 0 21G<108 202.059 306 400.059> 170 78<33 117 214 315 412 488> 392 78<53 129 225 327 424 508> 620 20G<140.941 234 339.941 433>
VStem: 121 93<248 374> 327 93<266 392>
LayerCount: 2
Fore
SplineSet
399 0 m 1
 306 0 l 1
 315 170 l 1
 210 170 l 1
 201 0 l 1
 108 0 l 1
 117 170 l 1
 28 170 l 1
 33 248 l 1
 121 248 l 1
 129 392 l 1
 48 392 l 1
 53 470 l 1
 133 470 l 1
 142 640 l 1
 234 640 l 1
 225 470 l 1
 332 470 l 1
 341 640 l 1
 433 640 l 1
 424 470 l 1
 513 470 l 1
 508 392 l 1
 420 392 l 1
 412 248 l 1
 493 248 l 1
 488 170 l 1
 408 170 l 1
 399 0 l 1
221 392 m 1
 214 248 l 1
 320 248 l 1
 327 392 l 1
 221 392 l 1
EndSplineSet
Validated: 1
EndChar

StartChar: o
Encoding: 111 111 182
Width: 490
VWidth: 0
Flags: W
HStem: 0 82<166.277 322.667> 413 85<168.62 321.723>
VStem: 31 102<120.012 380.492> 355 102<113.349 376.748>
LayerCount: 2
Fore
SplineSet
212 498 m 2
 290 498 l 2
 363 498 457 444 457 342 c 2
 457 172 l 2
 457 68 384 0 276 0 c 2
 198 0 l 2
 125 0 31 54 31 156 c 2
 31 326 l 2
 31 430 104 498 212 498 c 2
250 413 m 0
 177 413 133 384 133 319 c 0
 133 265 140 211 144 157 c 0
 148 102 181 82 232 82 c 0
 320 82 355 114 355 175 c 0
 355 231 348 286 344 341 c 0
 340 395 301 413 250 413 c 0
EndSplineSet
Validated: 1
EndChar

StartChar: oacute
Encoding: 243 243 183
Width: 490
VWidth: 0
Flags: W
HStem: 0 82<166.277 322.667> 413 85<168.62 321.723> 563 199
VStem: 31 102<120.012 380.492> 200 212 355 102<113.349 376.748>
LayerCount: 2
Back
SplineSet
212 498 m 2
 290 498 l 2
 363 498 457 444 457 342 c 2
 457 172 l 2
 457 68 384 0 276 0 c 2
 198 0 l 2
 125 0 31 54 31 156 c 2
 31 326 l 2
 31 430 104 498 212 498 c 2
250 413 m 0
 177 413 133 384 133 319 c 0
 133 265 140 211 144 157 c 0
 148 102 181 82 232 82 c 0
 320 82 355 114 355 175 c 0
 355 231 348 286 344 341 c 0
 340 395 301 413 250 413 c 0
200 610 m 1
 344 762 l 1
 412 681 l 1
 240 563 l 1
 200 610 l 1
EndSplineSet
Fore
Refer: 266 769 S 1 0 0 1 485 0 2
Refer: 182 111 N 1 0 0 1 0 0 2
Validated: 1
EndChar

StartChar: ocircumflex
Encoding: 244 244 184
Width: 490
VWidth: 0
Flags: W
HStem: 0 82<166.277 322.667> 413 85<168.62 321.723> 563 157
VStem: 31 102<120.012 380.492> 103 288 355 102<113.349 376.748>
LayerCount: 2
Back
SplineSet
212 498 m 2
 290 498 l 2
 363 498 457 444 457 342 c 2
 457 172 l 2
 457 68 384 0 276 0 c 2
 198 0 l 2
 125 0 31 54 31 156 c 2
 31 326 l 2
 31 430 104 498 212 498 c 2
250 413 m 0
 177 413 133 384 133 319 c 0
 133 265 140 211 144 157 c 0
 148 102 181 82 232 82 c 0
 320 82 355 114 355 175 c 0
 355 231 348 286 344 341 c 0
 340 395 301 413 250 413 c 0
391 603 m 1
 368 563 l 1
 247 608 l 1
 126 563 l 1
 103 603 l 1
 247 720 l 1
 391 603 l 1
EndSplineSet
Fore
Refer: 267 770 S 1 0 0 1 492 0 2
Refer: 182 111 N 1 0 0 1 0 0 2
Validated: 1
EndChar

StartChar: odieresis
Encoding: 246 246 185
Width: 490
VWidth: 0
Flags: W
HStem: 0 82<166.277 322.667> 413 85<168.62 321.723> 563 118<108.662 199.338 300.662 391.338>
VStem: 31 102<120.012 380.492> 95 118<576.662 667.338> 287 118<576.662 667.338> 355 102<113.349 376.748>
LayerCount: 2
Back
SplineSet
213 498 m 2
 291 498 l 2
 364 498 458 444 458 342 c 2
 458 172 l 2
 458 68 385 0 277 0 c 2
 199 0 l 2
 126 0 32 54 32 156 c 2
 32 326 l 2
 32 430 105 498 213 498 c 2
251 413 m 0
 178 413 134 384 134 319 c 0
 134 265 141 211 145 157 c 0
 149 102 182 82 233 82 c 0
 321 82 356 114 356 175 c 0
 356 231 349 286 345 341 c 0
 341 395 302 413 251 413 c 0
95 622 m 0
 95 654 122 681 154 681 c 0
 186 681 213 654 213 622 c 0
 213 590 186 563 154 563 c 0
 122 563 95 590 95 622 c 0
287 622 m 0
 287 654 314 681 346 681 c 0
 378 681 405 654 405 622 c 0
 405 590 378 563 346 563 c 0
 314 563 287 590 287 622 c 0
EndSplineSet
Fore
Refer: 272 776 S 1 0 0 1 496 0 2
Refer: 182 111 N 1 0 0 1 0 0 2
Validated: 1
EndChar

StartChar: oe
Encoding: 339 339 186
Width: 726
VWidth: 0
Flags: W
HStem: 0 82<162.682 287.754 457.452 612.119> 419 85<168.62 279.572 454.232 556.43>
VStem: 31 102<115.833 384.651> 315 102<128.748 227 300 373.268> 584 107<313 391.402>
LayerCount: 2
Fore
SplineSet
230 413 m 0
 167 413 133 384 133 319 c 0
 133 265 139 220 144 157 c 0
 148 102 179 82 212 82 c 0
 287 82 315 114 315 175 c 0
 315 231 309 276 304 341 c 0
 300 395 269 413 230 413 c 0
370 50 m 1
 338 18 292 0 236 0 c 2
 198 0 l 2
 125 0 31 54 31 156 c 2
 31 326 l 2
 31 430 104 498 212 498 c 2
 250 498 l 2
 291 498 338 482 372 449 c 1
 407 487 454 504 506 504 c 0
 665 504 691 390 691 248 c 1
 417 227 l 1
 421 129 455 79 525 79 c 0
 593 79 637 119 654 139 c 1
 693 90 l 1
 673 55 649 -6 515 -6 c 0
 452 -6 404 13 370 50 c 1
420 300 m 1
 584 313 l 1
 584 379 558 419 506 419 c 0
 449 419 427 366 420 300 c 1
EndSplineSet
Validated: 1
EndChar

StartChar: ograve
Encoding: 242 242 187
Width: 490
VWidth: 0
Flags: W
HStem: 0 82<166.277 322.667> 413 85<168.62 321.723> 563 199
VStem: 31 102<120.012 380.492> 86 212 355 102<113.349 376.748>
LayerCount: 2
Back
SplineSet
213 498 m 2
 291 498 l 2
 364 498 458 444 458 342 c 2
 458 172 l 2
 458 68 385 0 277 0 c 2
 199 0 l 2
 126 0 32 54 32 156 c 2
 32 326 l 2
 32 430 105 498 213 498 c 2
251 413 m 0
 178 413 134 384 134 319 c 0
 134 265 141 211 145 157 c 0
 149 102 182 82 233 82 c 0
 321 82 356 114 356 175 c 0
 356 231 349 286 345 341 c 0
 341 395 302 413 251 413 c 0
298 610 m 1
 258 563 l 1
 86 681 l 1
 154 762 l 1
 298 610 l 1
EndSplineSet
Fore
Refer: 265 768 S 1 0 0 1 503 0 2
Refer: 182 111 N 1 0 0 1 0 0 2
Validated: 1
EndChar

StartChar: ohungarumlaut
Encoding: 337 337 188
Width: 490
VWidth: 0
Flags: W
HStem: 0 82<166.277 322.667> 413 85<168.62 321.723> 565 180
VStem: 31 102<120.012 380.492> 129 290 355 102<113.349 376.748>
LayerCount: 2
Back
SplineSet
212 498 m 2
 290 498 l 2
 363 498 457 444 457 342 c 2
 457 172 l 2
 457 68 384 0 276 0 c 2
 198 0 l 2
 125 0 31 54 31 156 c 2
 31 326 l 2
 31 430 104 498 212 498 c 2
250 413 m 0
 177 413 133 384 133 319 c 0
 133 265 140 211 144 157 c 0
 148 102 181 82 232 82 c 0
 320 82 355 114 355 175 c 0
 355 231 348 286 344 341 c 0
 340 395 301 413 250 413 c 0
269 580 m 5
 335 745 l 5
 419 700 l 5
 309 565 l 5
 269 580 l 5
129 580 m 5
 195 745 l 5
 279 700 l 5
 169 565 l 5
 129 580 l 5
EndSplineSet
Fore
Refer: 274 779 S 1 0 0 1 475 0 2
Refer: 182 111 N 1 0 0 1 0 0 2
Validated: 1
EndChar

StartChar: one
Encoding: 49 49 189
Width: 319
VWidth: 0
Flags: W
HStem: 0 21G<172 279> 620 20G<179.435 279>
VStem: 172 107<0 440>
LayerCount: 2
Fore
SplineSet
118 346 m 1
 21 346 l 1
 191 640 l 1
 279 640 l 1
 279 0 l 1
 172 0 l 1
 172 440 l 1
 118 346 l 1
EndSplineSet
Validated: 1
EndChar

StartChar: onehalf
Encoding: 189 189 190
Width: 706
VWidth: 0
Flags: W
HStem: -18 67<515 674> 0 21G<100 202.531> 285 70<493.261 583.534> 620 20G<458.438 560>
VStem: 117 81<283 494> 410 75<235 276.153> 591 78<193.755 276.224>
LayerCount: 2
Fore
SplineSet
98 460 m 1x3e
 21 460 l 1
 131 651 l 1
 198 651 l 1
 198 283 l 1
 117 283 l 1
 117 494 l 1
 98 460 l 1x3e
485 235 m 1
 410 235 l 1
 410 316 469 355 544 355 c 0
 628 355 669 301 669 239 c 0
 669 191 642 151 583 104 c 2
 515 49 l 1
 674 49 l 1
 674 -18 l 1
 406 -18 l 1xbe
 406 52 l 1
 544 168 l 2
 580 199 591 223 591 238 c 0
 591 259 575 285 541 285 c 0
 503 285 485 265 485 235 c 1
560 640 m 1
 191 0 l 1
 100 0 l 1x7e
 470 640 l 1
 560 640 l 1
EndSplineSet
Validated: 1
EndChar

StartChar: onequarter
Encoding: 188 188 191
Width: 659
VWidth: 0
Flags: W
HStem: 0 21G<100 202.531> 73 66<430 502 583 629> 620 20G<458.438 560>
VStem: 117 81<283 494> 502 81<-18 73 139 223>
LayerCount: 2
Fore
SplineSet
98 460 m 1
 21 460 l 1
 131 651 l 1
 198 651 l 1
 198 283 l 1
 117 283 l 1
 117 494 l 1
 98 460 l 1
560 640 m 1
 191 0 l 1
 100 0 l 1
 470 640 l 1
 560 640 l 1
502 223 m 1
 430 139 l 1
 502 139 l 1
 502 223 l 1
583 -18 m 1
 502 -18 l 1
 502 73 l 1
 349 73 l 1
 349 146 l 1
 530 358 l 1
 583 358 l 1
 583 139 l 1
 629 139 l 1
 629 73 l 1
 583 73 l 1
 583 -18 l 1
EndSplineSet
Validated: 1
EndChar

StartChar: ordfeminine
Encoding: 170 170 192
Width: 433
VWidth: 0
Flags: W
HStem: 290 70<122.428 237.769> 295 47<345.919 402> 311 31<361.125 402> 459 69<124.508 252.152> 571 69<62 239.358>
VStem: 26 88<368.791 447.146> 258 84<377.585 450.274>
LayerCount: 2
Fore
SplineSet
192 571 m 2x9e
 62 571 l 1
 62 640 l 1
 208 640 l 2
 267 640 342 597 342 514 c 2
 342 379 l 2
 342 346 376 342 393 342 c 2
 402 342 l 1x5e
 406 311 l 1x3e
 392 304 378 295 350 295 c 0x5e
 306 295 277 308 265 336 c 1
 245 313 213 290 168 290 c 0
 61 290 26 357 26 417 c 0
 26 469 77 528 170 528 c 0
 209 528 238 516 257 503 c 1
 253 540 233 571 192 571 c 2x9e
258 408 m 1
 258 434 l 1
 254 440 239 459 184 459 c 0
 145 459 114 443 114 411 c 0
 114 382 129 360 176 360 c 0x9e
 243 360 257 402 258 408 c 1
EndSplineSet
Validated: 1
EndChar

StartChar: ordmasculine
Encoding: 186 186 193
Width: 404
VWidth: 0
Flags: W
HStem: 292 67<131.544 267.75> 571 69<135.388 268.287>
VStem: 28 84<379.685 548.38> 288 85<381.188 549.965>
LayerCount: 2
Fore
SplineSet
174 640 m 2
 237 640 l 2
 296 640 373 597 373 514 c 2
 373 432 l 2
 373 348 313 292 226 292 c 2
 163 292 l 2
 104 292 28 336 28 419 c 2
 28 501 l 2
 28 585 87 640 174 640 c 2
192 359 m 0
 266 359 288 387 288 444 c 0
 288 478 285 483 283 511 c 0
 280 556 248 571 204 571 c 0
 141 571 112 545 112 486 c 0
 112 452 116 448 117 421 c 0
 120 374 148 359 192 359 c 0
EndSplineSet
Validated: 1
EndChar

StartChar: oslash
Encoding: 248 248 194
Width: 490
VWidth: 0
UnlinkRmOvrlpSave: 1
Flags: W
HStem: 0 82<166.277 322.667> 413 85<168.62 321.723>
VStem: 31 102<120.012 380.492> 355 102<113.349 376.748>
LayerCount: 2
Fore
SplineSet
159 -50 m 1
 96 -25 l 1
 328 548 l 1
 391 523 l 1
 159 -50 l 1
EndSplineSet
Refer: 182 111 N 1 0 0 1 0 0 2
Validated: 5
EndChar

StartChar: otilde
Encoding: 245 245 195
Width: 490
VWidth: 0
Flags: W
HStem: 0 82<166.277 322.667> 413 85<168.62 321.723> 563 92<273.516 351.378> 624 92<161.622 239.484>
VStem: 31 102<120.012 380.492> 355 102<113.349 376.748>
LayerCount: 2
Back
SplineSet
213 498 m 2
 291 498 l 2
 364 498 458 444 458 342 c 2
 458 172 l 2
 458 68 385 0 277 0 c 2
 199 0 l 2
 126 0 32 54 32 156 c 2
 32 326 l 2
 32 430 105 498 213 498 c 2
251 413 m 0
 178 413 134 384 134 319 c 0
 134 265 141 211 145 157 c 0
 149 102 182 82 233 82 c 0
 321 82 356 114 356 175 c 0
 356 231 349 286 345 341 c 0
 341 395 302 413 251 413 c 0
183 624 m 0
 171 624 165 609 146 573 c 1
 81 597 l 1
 115 691 140 716 168 716 c 0
 238 716 283 655 330 655 c 0
 342 655 348 670 367 706 c 1
 432 681 l 1
 398 587 373 563 345 563 c 0
 275 563 230 624 183 624 c 0
EndSplineSet
Fore
Refer: 268 771 S 1 0 0 1 508 0 2
Refer: 182 111 N 1 0 0 1 0 0 2
Validated: 1
EndChar

StartChar: p
Encoding: 112 112 196
Width: 490
VWidth: 0
Flags: W
HStem: -126 21G<37 144> -6 85<183.078 317.436> 418 85<189.246 310.423>
VStem: 37 107<-126 45 108.433 386.585 446 464> 351 107<116.636 378.667>
LayerCount: 2
Fore
SplineSet
144 -126 m 1
 37 -126 l 1
 37 464 l 1
 144 498 l 1
 144 446 l 1
 173 475 214 503 267 503 c 0
 369 503 458 438 458 307 c 2
 458 192 l 2
 458 52 365 -6 280 -6 c 0
 211 -6 172 17 144 45 c 1
 144 -126 l 1
144 349 m 1
 144 136 l 1
 161 109 182 79 265 79 c 0
 318 79 351 126 351 200 c 2
 351 303 l 2
 351 393 290 418 251 418 c 0
 171 418 166 388 144 349 c 1
EndSplineSet
Validated: 1
EndChar

StartChar: paragraph
Encoding: 182 182 197
Width: 479
VWidth: 0
Flags: W
HStem: 0 21G<233 313 359 439> 555 85<313 359>
VStem: 27 286<364.881 540.22> 233 80<0 265> 359 80<0 555>
LayerCount: 2
Fore
SplineSet
313 555 m 1xd8
 313 0 l 1
 233 0 l 1
 233 265 l 1xd8
 115 265 27 345 27 451 c 0xe8
 27 582 137 640 235 640 c 2
 439 640 l 1
 439 0 l 1
 359 0 l 1
 359 555 l 1
 313 555 l 1xd8
EndSplineSet
Validated: 1
EndChar

StartChar: parenleft
Encoding: 40 40 198
Width: 264
VWidth: 0
Flags: W
VStem: 32 107<132.451 507.549>
LayerCount: 2
Fore
SplineSet
139 365 m 2
 139 275 l 2
 139 108 194 71 235 47 c 1
 198 -35 l 1
 105 -7 32 92 32 239 c 2
 32 401 l 2
 32 548 105 647 198 675 c 1
 235 593 l 1
 194 569 139 533 139 365 c 2
EndSplineSet
Validated: 1
EndChar

StartChar: parenright
Encoding: 41 41 199
Width: 268
VWidth: 0
Flags: W
VStem: 127 107<132.451 507.549>
LayerCount: 2
Fore
SplineSet
127 275 m 2
 127 365 l 2
 127 532 72 569 31 593 c 1
 68 675 l 1
 161 647 234 548 234 401 c 2
 234 239 l 2
 234 92 161 -7 68 -35 c 1
 31 47 l 1
 72 71 127 107 127 275 c 2
EndSplineSet
Validated: 1
EndChar

StartChar: percent
Encoding: 37 37 200
Width: 496
VWidth: 0
Flags: W
HStem: -6 69<336.268 393.799> 124 69<336.373 393.656> 331 69<99.3439 156.627> 461 69<99.2007 156.732>
VStem: 28 69<402.476 459.53> 159 69<402.789 458.459> 265 69<65.5411 121.211> 396 69<64.4697 121.524>
LayerCount: 2
Fore
SplineSet
448 399 m 1
 110 60 l 1
 45 125 l 1
 383 464 l 1
 448 399 l 1
334 93 m 0
 334 76 350 63 365 63 c 0
 382 63 396 78 396 93 c 0
 396 110 381 124 366 124 c 0
 349 124 334 108 334 93 c 0
365 -6 m 0
 315 -6 265 35 265 92 c 0
 265 143 308 193 365 193 c 0
 415 193 465 152 465 95 c 0
 465 44 422 -6 365 -6 c 0
97 431 m 0
 97 414 112 400 127 400 c 0
 144 400 159 416 159 431 c 0
 159 448 143 461 128 461 c 0
 111 461 97 446 97 431 c 0
128 331 m 0
 78 331 28 372 28 429 c 0
 28 480 71 530 128 530 c 0
 178 530 228 489 228 432 c 0
 228 381 185 331 128 331 c 0
EndSplineSet
Validated: 1
EndChar

StartChar: period
Encoding: 46 46 201
Width: 190
VWidth: 0
Flags: W
HStem: -6 132<46.3035 143.697>
VStem: 29 132<11.3035 108.697>
LayerCount: 2
Fore
SplineSet
29 60 m 0
 29 96 59 126 95 126 c 0
 131 126 161 96 161 60 c 0
 161 24 131 -6 95 -6 c 0
 59 -6 29 24 29 60 c 0
EndSplineSet
Validated: 1
EndChar

StartChar: periodcentered
Encoding: 183 183 202
Width: 186
VWidth: 0
Flags: W
HStem: 217 132<42.3035 139.697>
VStem: 25 132<234.303 331.697>
LayerCount: 2
Fore
SplineSet
25 283 m 0
 25 319 55 349 91 349 c 0
 127 349 157 319 157 283 c 0
 157 247 127 217 91 217 c 0
 55 217 25 247 25 283 c 0
EndSplineSet
Validated: 1
EndChar

StartChar: perthousand
Encoding: 8240 8240 203
Width: 723
VWidth: 0
Flags: W
HStem: -6 69<336.268 393.799 564.268 621.799> 124 69<336.373 393.656 564.373 621.656> 331 69<99.3439 156.627> 461 69<99.2007 156.732>
VStem: 28 69<402.476 459.53> 159 69<402.789 458.459> 265 69<65.5411 121.211> 396 69<64.4697 121.524> 493 69<65.5411 121.211> 624 69<64.4697 121.524>
LayerCount: 2
Fore
SplineSet
562 93 m 0
 562 76 578 63 593 63 c 0
 610 63 624 78 624 93 c 0
 624 110 609 124 594 124 c 0
 577 124 562 108 562 93 c 0
593 -6 m 0
 543 -6 493 35 493 92 c 0
 493 143 536 193 593 193 c 0
 643 193 693 152 693 95 c 0
 693 44 650 -6 593 -6 c 0
448 399 m 1
 110 60 l 1
 45 125 l 1
 383 464 l 1
 448 399 l 1
334 93 m 0
 334 76 350 63 365 63 c 0
 382 63 396 78 396 93 c 0
 396 110 381 124 366 124 c 0
 349 124 334 108 334 93 c 0
365 -6 m 0
 315 -6 265 35 265 92 c 0
 265 143 308 193 365 193 c 0
 415 193 465 152 465 95 c 0
 465 44 422 -6 365 -6 c 0
97 431 m 0
 97 414 112 400 127 400 c 0
 144 400 159 416 159 431 c 0
 159 448 143 461 128 461 c 0
 111 461 97 446 97 431 c 0
128 331 m 0
 78 331 28 372 28 429 c 0
 28 480 71 530 128 530 c 0
 178 530 228 489 228 432 c 0
 228 381 185 331 128 331 c 0
EndSplineSet
Validated: 1
EndChar

StartChar: plus
Encoding: 43 43 204
Width: 410
VWidth: 0
Flags: W
HStem: 237 92<26 157 249 380>
VStem: 157 92<106 237 329 460>
LayerCount: 2
Fore
SplineSet
26 237 m 1
 26 329 l 1
 157 329 l 1
 157 460 l 1
 249 460 l 1
 249 329 l 1
 380 329 l 1
 380 237 l 1
 249 237 l 1
 249 106 l 1
 157 106 l 1
 157 237 l 1
 26 237 l 1
EndSplineSet
Validated: 1
EndChar

StartChar: plusminus
Encoding: 177 177 205
Width: 425
VWidth: 0
Flags: W
HStem: 26 92<35 389> 277 92<35 166 258 389>
VStem: 166 92<176 277 369 470>
LayerCount: 2
Fore
SplineSet
389 118 m 1
 389 26 l 1
 35 26 l 1
 35 118 l 1
 389 118 l 1
35 277 m 1
 35 369 l 1
 166 369 l 1
 166 470 l 1
 258 470 l 1
 258 369 l 1
 389 369 l 1
 389 277 l 1
 258 277 l 1
 258 176 l 1
 166 176 l 1
 166 277 l 1
 35 277 l 1
EndSplineSet
Validated: 1
EndChar

StartChar: q
Encoding: 113 113 206
Width: 536
VWidth: 0
Flags: W
HStem: -139 57<420 523.474> 0 85<170.564 304.922> 418 85<177.577 298.97>
VStem: 30 107<122.636 378.667> 344 107<-72.9688 51 114.433 380.556 446 464>
LayerCount: 2
Fore
SplineSet
344 464 m 1
 451 498 l 1
 451 -35 l 2
 451 -77 494 -82 513 -82 c 0
 519 -82 522 -81 522 -81 c 1
 528 -119 l 1
 512 -129 492 -139 458 -139 c 0
 382 -139 344 -109 344 -37 c 2
 344 51 l 1
 316 23 277 0 208 0 c 0
 123 0 30 58 30 198 c 2
 30 307 l 2
 30 438 119 503 221 503 c 0
 274 503 315 475 344 446 c 1
 344 464 l 1
344 142 m 1
 344 349 l 1
 338 361 309 418 237 418 c 0
 198 418 137 393 137 303 c 2
 137 206 l 2
 137 132 170 85 223 85 c 0
 306 85 327 115 344 142 c 1
EndSplineSet
Validated: 1
EndChar

StartChar: question
Encoding: 63 63 207
Width: 412
VWidth: 0
Flags: W
HStem: -6 132<154.303 251.697> 565 85<119.381 248.014>
VStem: 137 132<11.3035 108.697> 150 103<191 310.688> 274 109<414.815 537.131>
LayerCount: 2
Fore
SplineSet
137 60 m 0xe8
 137 96 167 126 203 126 c 0
 239 126 269 96 269 60 c 0
 269 24 239 -6 203 -6 c 0
 167 -6 137 24 137 60 c 0xe8
253 244 m 2xd8
 253 191 l 1
 150 191 l 1
 150 244 l 2
 150 381 274 384 274 467 c 0
 274 522 249 565 192 565 c 0
 129 565 94 525 79 507 c 1
 23 565 l 1
 47 603 101 650 189 650 c 0
 329 650 383 558 383 462 c 0
 383 376 253 350 253 244 c 2xd8
EndSplineSet
Validated: 1
EndChar

StartChar: questiondown
Encoding: 191 191 208
Width: 410
VWidth: 0
Flags: W
HStem: -106 85<163.986 292.619> 418 132<160.303 257.697>
VStem: 29 109<6.86943 129.185> 143 132<435.303 532.697> 159 103<233.312 353>
LayerCount: 2
Fore
SplineSet
275 484 m 0xf0
 275 448 245 418 209 418 c 0
 173 418 143 448 143 484 c 0
 143 520 173 550 209 550 c 0
 245 550 275 520 275 484 c 0xf0
159 300 m 2xe8
 159 353 l 1
 262 353 l 1
 262 300 l 2
 262 163 138 160 138 77 c 0
 138 22 163 -21 220 -21 c 0
 283 -21 318 19 333 37 c 1
 389 -21 l 1
 365 -59 311 -106 223 -106 c 0
 83 -106 29 -14 29 82 c 0
 29 168 159 194 159 300 c 2xe8
EndSplineSet
Validated: 1
EndChar

StartChar: quotedbl
Encoding: 34 34 209
Width: 336
VWidth: 0
Flags: W
HStem: 377 263<50 112 223 285>
VStem: 50 62<377 460.682> 223 62<377 460.682>
LayerCount: 2
Fore
SplineSet
112 377 m 1
 50 377 l 1
 28 640 l 1
 134 640 l 1
 112 377 l 1
285 377 m 1
 223 377 l 1
 201 640 l 1
 307 640 l 1
 285 377 l 1
EndSplineSet
Validated: 1
EndChar

StartChar: quotedblbase
Encoding: 8222 8222 210
Width: 353
VWidth: 0
Flags: W
HStem: -142 253
VStem: 87 77<-43.6407 39> 249 77<-43.6407 39>
LayerCount: 2
Fore
SplineSet
191 52 m 0
 191 94 217 111 261 111 c 0
 309 111 326 61 326 17 c 0
 326 -42 236 -130 215 -142 c 1
 195 -113 l 1
 224 -85 249 -57 249 -27 c 0
 249 9 191 -12 191 52 c 0
29 52 m 0
 29 94 55 111 99 111 c 0
 147 111 164 61 164 17 c 0
 164 -42 74 -130 53 -142 c 1
 33 -113 l 1
 62 -85 87 -57 87 -27 c 0
 87 9 29 -12 29 52 c 0
EndSplineSet
Validated: 1
EndChar

StartChar: quotedblleft
Encoding: 8220 8220 211
Width: 376
VWidth: 0
Flags: W
HStem: 455 253
VStem: 25 77<527 609.641> 213 77<527 609.641>
LayerCount: 2
Fore
SplineSet
160 514 m 0
 160 472 134 455 90 455 c 0
 42 455 25 505 25 549 c 0
 25 608 115 696 136 708 c 1
 156 679 l 1
 127 651 102 623 102 593 c 0
 102 557 160 578 160 514 c 0
348 514 m 0
 348 472 322 455 278 455 c 0
 230 455 213 505 213 549 c 0
 213 608 303 696 324 708 c 1
 344 679 l 1
 315 651 290 623 290 593 c 0
 290 557 348 578 348 514 c 0
EndSplineSet
Validated: 1
EndChar

StartChar: quotedblright
Encoding: 8221 8221 212
Width: 373
VWidth: 0
Flags: W
HStem: 455 253
VStem: 85 77<553.359 636> 273 77<553.359 636>
LayerCount: 2
Fore
SplineSet
215 649 m 0
 215 691 241 708 285 708 c 0
 333 708 350 658 350 614 c 0
 350 555 260 467 239 455 c 1
 219 484 l 1
 248 512 273 540 273 570 c 0
 273 606 215 585 215 649 c 0
27 649 m 0
 27 691 53 708 97 708 c 0
 145 708 162 658 162 614 c 0
 162 555 72 467 51 455 c 1
 31 484 l 1
 60 512 85 540 85 570 c 0
 85 606 27 585 27 649 c 0
EndSplineSet
Validated: 1
EndChar

StartChar: quoteleft
Encoding: 8216 8216 213
Width: 188
VWidth: 0
Flags: W
HStem: 455 253
VStem: 25 77<527 609.641>
LayerCount: 2
Fore
SplineSet
160 514 m 0
 160 472 134 455 90 455 c 0
 42 455 25 505 25 549 c 0
 25 608 115 696 136 708 c 1
 156 679 l 1
 127 651 102 623 102 593 c 0
 102 557 160 578 160 514 c 0
EndSplineSet
Validated: 1
EndChar

StartChar: quoteright
Encoding: 8217 8217 214
Width: 185
VWidth: 0
Flags: W
HStem: 455 253
VStem: 85 77<553.359 636>
LayerCount: 2
Fore
SplineSet
27 649 m 0
 27 691 53 708 97 708 c 0
 145 708 162 658 162 614 c 0
 162 555 72 467 51 455 c 1
 31 484 l 1
 60 512 85 540 85 570 c 0
 85 606 27 585 27 649 c 0
EndSplineSet
Validated: 1
EndChar

StartChar: quotesinglbase
Encoding: 8218 8218 215
Width: 191
VWidth: 0
Flags: W
HStem: -142 253
VStem: 87 77<-43.6407 39>
LayerCount: 2
Fore
SplineSet
29 52 m 0
 29 94 55 111 99 111 c 0
 147 111 164 61 164 17 c 0
 164 -42 74 -130 53 -142 c 1
 33 -113 l 1
 62 -85 87 -57 87 -27 c 0
 87 9 29 -12 29 52 c 0
EndSplineSet
Validated: 1
EndChar

StartChar: quotesingle
Encoding: 39 39 216
Width: 163
VWidth: 0
Flags: W
HStem: 377 263<50 112>
VStem: 50 62<377 460.682>
LayerCount: 2
Fore
SplineSet
112 377 m 1
 50 377 l 1
 28 640 l 1
 134 640 l 1
 112 377 l 1
EndSplineSet
Validated: 1
EndChar

StartChar: r
Encoding: 114 114 217
Width: 349
VWidth: 0
Flags: W
HStem: 0 21G<37 144> 413 85<188.098 309.199>
VStem: 37 107<0 367.498 442 464>
LayerCount: 2
Fore
SplineSet
144 318 m 1
 144 0 l 1
 37 0 l 1
 37 464 l 1
 144 498 l 1
 144 442 l 1
 171 472 213 498 281 498 c 2
 321 498 l 1
 310 394 l 1
 293 404 270 413 243 413 c 0
 195 413 155 371 144 318 c 1
EndSplineSet
Validated: 1
EndChar

StartChar: racute
Encoding: 341 341 218
Width: 349
VWidth: 0
Flags: W
HStem: 0 21<37 144> 413 85<188.098 309.199> 563 199
VStem: 37 107<0 367.498 442 464> 115 212
LayerCount: 2
Back
SplineSet
143 318 m 1
 143 0 l 1
 36 0 l 1
 36 464 l 1
 143 498 l 1
 143 442 l 1
 170 472 212 498 280 498 c 2
 320 498 l 1
 309 394 l 1
 292 404 269 413 242 413 c 0
 194 413 154 371 143 318 c 1
115 610 m 1
 259 762 l 1
 327 681 l 1
 155 563 l 1
 115 610 l 1
EndSplineSet
Fore
Refer: 266 769 S 1 0 0 1 400 0 2
Refer: 217 114 N 1 0 0 1 0 0 2
Validated: 1
EndChar

StartChar: rcaron
Encoding: 345 345 219
Width: 349
VWidth: 0
Flags: W
HStem: 0 21<37 144> 413 85<188.098 309.199> 491 226
VStem: 37 107<0 367.498 442 464> 91 235
LayerCount: 2
Back
SplineSet
91 676 m 1
 127 706 l 1
 209 636 l 1
 291 707 l 1
 326 677 l 1
 213 488 l 1
 232 495 255 498 281 498 c 2
 321 498 l 1
 310 394 l 1
 293 404 270 413 243 413 c 0
 195 413 155 371 144 318 c 1
 144 0 l 1
 37 0 l 1
 37 464 l 1
 144 498 l 1
 144 442 l 1
 159 459 179 475 206 485 c 1
 91 676 l 1
EndSplineSet
Fore
Refer: 275 780 S 1 0 0 1 454 10 2
Refer: 217 114 N 1 0 0 1 0 0 2
Validated: 1
EndChar

StartChar: registered
Encoding: 174 174 220
Width: 714
VWidth: 0
Flags: W
HStem: -8 86<257.033 452.967> 262 70<310 336.578> 417 69<310 390.766> 562 86<257.033 452.967>
VStem: 27 86<222.033 417.967> 223 87<160 262 332 417> 397 87<341.797 408.313> 402 89<160 213.321> 597 86<222.033 417.967>
LayerCount: 2
Fore
SplineSet
27 320 m 0xfc80
 27 501 174 648 355 648 c 0
 536 648 683 501 683 320 c 0
 683 139 536 -8 355 -8 c 0
 174 -8 27 139 27 320 c 0xfc80
113 320 m 0
 113 189 224 78 355 78 c 0
 486 78 597 189 597 320 c 0
 597 451 486 562 355 562 c 0
 224 562 113 451 113 320 c 0
310 417 m 1
 310 332 l 1
 369 332 397 342 397 376 c 0xfe80
 397 405 375 417 310 417 c 1
310 160 m 1
 223 160 l 1
 223 486 l 1
 334 486 l 2
 413 486 484 466 484 373 c 0xfe80
 484 328 459 300 423 283 c 1
 455 257 473 218 491 160 c 1
 402 160 l 1xfd80
 389 207 369 241 337 263 c 1
 328 262 319 262 310 262 c 1
 310 160 l 1
EndSplineSet
Validated: 1
EndChar

StartChar: s
Encoding: 115 115 221
Width: 453
VWidth: 0
Flags: W
HStem: -9 82<113.97 286.462> 422 85<178.617 317.271>
VStem: 48 107<312.427 399.106> 315 107<100.136 184.12>
LayerCount: 2
Fore
SplineSet
217 207 m 0
 123 213 48 289 48 352 c 0
 48 450 137 507 217 507 c 0
 331 507 358 451 398 418 c 1
 355 373 l 1
 326 400 293 422 233 422 c 0
 194 422 155 393 155 348 c 0
 155 307 214 292 248 290 c 0
 327 285 422 230 422 142 c 0
 422 36 343 -9 231 -9 c 0
 99 -9 63 41 30 78 c 1
 70 133 l 1
 103 95 131 73 209 73 c 0
 281 73 315 107 315 150 c 0
 315 183 266 204 217 207 c 0
EndSplineSet
Validated: 1
EndChar

StartChar: sacute
Encoding: 347 347 222
Width: 453
VWidth: 0
Flags: W
HStem: -9 82<113.97 286.462> 422 85<178.617 317.271> 563 199
VStem: 48 107<312.427 399.106> 159 212 315 107<100.136 184.12>
LayerCount: 2
Back
SplineSet
217 207 m 0
 123 213 48 289 48 352 c 0
 48 450 137 507 217 507 c 0
 331 507 358 451 398 418 c 1
 355 373 l 1
 326 400 293 422 233 422 c 0
 194 422 155 393 155 348 c 0
 155 307 214 292 248 290 c 0
 327 285 422 230 422 142 c 0
 422 36 343 -9 231 -9 c 0
 99 -9 63 41 30 78 c 1
 70 133 l 1
 103 95 131 73 209 73 c 0
 281 73 315 107 315 150 c 0
 315 183 266 204 217 207 c 0
159 610 m 1
 303 762 l 1
 371 681 l 1
 199 563 l 1
 159 610 l 1
EndSplineSet
Fore
Refer: 266 769 N 1 0 0 1 444 0 2
Refer: 221 115 N 1 0 0 1 0 0 2
Validated: 1
EndChar

StartChar: scaron
Encoding: 353 353 223
Width: 453
VWidth: 0
UnlinkRmOvrlpSave: 1
Flags: W
HStem: -9 82<113.97 286.462> 422 85<178.617 317.271> 491 226
VStem: 48 107<312.427 399.106> 102 235 315 107<100.136 184.12>
LayerCount: 2
Back
SplineSet
102 676 m 1
 138 706 l 1
 220 636 l 1
 302 707 l 1
 337 677 l 1
 235 506 l 1
 334 500 360 449 398 418 c 1
 355 373 l 1
 326 400 293 422 233 422 c 0
 194 422 155 393 155 348 c 0
 155 307 214 292 248 290 c 0
 327 285 422 230 422 142 c 0
 422 36 343 -9 231 -9 c 0
 99 -9 63 41 30 78 c 1
 70 133 l 1
 103 95 131 73 209 73 c 0
 281 73 315 107 315 150 c 0
 315 183 266 204 217 207 c 0
 123 213 48 289 48 352 c 0
 48 445 128 501 205 507 c 1
 102 676 l 1
EndSplineSet
Fore
Refer: 275 780 S 1 0 0 1 465 10 2
Refer: 221 115 N 1 0 0 1 0 0 2
Validated: 5
EndChar

StartChar: scedilla
Encoding: 351 351 224
Width: 453
VWidth: 0
UnlinkRmOvrlpSave: 1
Flags: W
HStem: -200 37<134.891 219.714> -158 20<110 133> -9 82<113.97 286.462> 422 85<178.617 317.271>
VStem: 48 107<312.427 399.106> 228 82<-158.129 -92.8418> 315 107<100.136 184.12>
LayerCount: 2
Back
SplineSet
217 207 m 0
 123 213 48 289 48 352 c 0
 48 450 137 507 217 507 c 0
 331 507 358 451 398 418 c 1
 355 373 l 1
 326 400 293 422 233 422 c 0
 194 422 155 393 155 348 c 0
 155 307 214 292 248 290 c 0
 327 285 422 230 422 142 c 0
 422 49 362 3 272 -7 c 1
 226 -53 l 1
 278 -61 310 -86 310 -122 c 0
 310 -166 276 -200 202 -200 c 0
 160 -200 127 -180 108 -162 c 1
 120 -138 l 1
 146 -157 162 -163 187 -163 c 0
 211 -163 228 -144 228 -120 c 0
 228 -92 173 -76 129 -72 c 1
 183 -6 l 1
 89 5 59 46 30 78 c 1
 70 133 l 1
 103 95 131 73 209 73 c 0
 281 73 315 107 315 150 c 0
 315 183 266 204 217 207 c 0
EndSplineSet
Fore
Refer: 278 807 N 1 0 0 1 480 0 2
Refer: 221 115 N 1 0 0 1 0 0 2
Validated: 5
EndChar

StartChar: section
Encoding: 167 167 225
Width: 492
VWidth: 0
Flags: W
HStem: -9 82<129.008 308.524> 499 21G<398.5 430.238> 567 82<185.476 364.992>
VStem: 51 107<469.919 540.838> 69 107<288.991 365.311> 318 107<274.689 351.009> 336 107<99.1623 170.081>
LayerCount: 2
Fore
SplineSet
392 228 m 1xf4
 423 205 443 174 443 132 c 0
 442 26 349 -9 237 -9 c 0
 105 -9 64 41 31 78 c 1
 79 141 l 1
 112 103 137 73 215 73 c 0
 287 73 336 97 336 140 c 0
 336 173 287 184 238 187 c 0
 144 193 69 259 69 322 c 0xea
 69 359 82 389 102 412 c 1
 72 435 51 466 51 508 c 0
 52 614 145 649 257 649 c 0
 389 649 430 599 463 562 c 1
 415 499 l 1
 382 537 357 567 279 567 c 0
 207 567 158 543 158 500 c 0
 158 467 207 456 256 453 c 0
 350 447 425 381 425 318 c 0
 425 281 412 251 392 228 c 1xf4
208 372 m 1
 189 362 176 344 176 318 c 0
 176 279 249 274 286 268 c 1
 305 278 318 296 318 322 c 0xec
 318 361 245 366 208 372 c 1
EndSplineSet
Validated: 1
EndChar

StartChar: semicolon
Encoding: 59 59 226
Width: 203
VWidth: 0
Flags: W
HStem: 306 132<51.3035 148.697>
VStem: 34 135<8.52278 89.9988 326.638 417.362> 92 77<-43.6407 39>
LayerCount: 2
Fore
SplineSet
34 372 m 0xc0
 34 408 64 438 100 438 c 0
 136 438 166 408 166 372 c 0
 166 336 136 306 100 306 c 0
 64 306 34 336 34 372 c 0xc0
34 52 m 0
 34 94 60 111 104 111 c 0
 152 111 169 61 169 17 c 0xc0
 169 -42 79 -130 58 -142 c 1
 38 -113 l 1
 67 -85 92 -57 92 -27 c 0xa0
 92 9 34 -12 34 52 c 0
EndSplineSet
Validated: 1
EndChar

StartChar: seven
Encoding: 55 55 227
Width: 452
VWidth: 0
Flags: W
HStem: 0 21G<137 253.75> 555 85<22 296>
LayerCount: 2
Fore
SplineSet
296 555 m 1
 22 555 l 1
 22 640 l 1
 432 640 l 1
 248 0 l 1
 137 0 l 1
 296 555 l 1
EndSplineSet
Validated: 1
EndChar

StartChar: six
Encoding: 54 54 228
Width: 486
VWidth: 0
Flags: W
HStem: -8 85<176.76 316.799> 303 85<169.437 303.564>
VStem: 28 107<121.69 268.365> 349 107<110.518 257.22>
LayerCount: 2
Fore
SplineSet
242 303 m 0
 168 303 135 260 135 197 c 0
 135 118 184 77 242 77 c 0
 312 77 349 106 349 194 c 0
 349 254 300 303 242 303 c 0
28 195 m 0
 28 425 168 604 290 664 c 1
 339 590 l 1
 291 563 209 477 156 376 c 1
 181 384 210 388 242 388 c 0
 363 388 456 308 456 196 c 0
 456 59 377 -8 242 -8 c 0
 106 -8 28 79 28 195 c 0
EndSplineSet
Validated: 1
EndChar

StartChar: slash
Encoding: 47 47 229
Width: 521
VWidth: 0
Flags: W
HStem: 0 21G<24 142.531> 620 20G<382.438 500>
LayerCount: 2
Fore
SplineSet
500 640 m 1
 131 0 l 1
 24 0 l 1
 394 640 l 1
 500 640 l 1
EndSplineSet
Validated: 1
EndChar

StartChar: sterling
Encoding: 163 163 231
Width: 481
VWidth: 0
Flags: W
HStem: 0 85<169 450> 0 53<35 61.6951> 325 58<35 78 185 274> 497 21G<354.5 385.137> 561 85<216.491 324.369>
VStem: 78 107<86.5081 325 383 527.031>
LayerCount: 2
Fore
SplineSet
450 0 m 1xbc
 35 0 l 1
 35 53 l 1x7c
 61 53 78 87 78 219 c 2
 78 325 l 1
 35 325 l 1
 35 383 l 1
 78 383 l 1
 78 438 l 2
 78 572 164 646 255 646 c 0
 356 646 397 586 421 548 c 1
 362 497 l 1
 347 515 322 561 267 561 c 0
 206 561 185 502 185 421 c 2
 185 383 l 1
 274 383 l 1
 274 325 l 1
 185 325 l 1
 185 219 l 2
 185 160 179 117 169 85 c 1
 450 85 l 1
 450 0 l 1xbc
EndSplineSet
Validated: 1
EndChar

StartChar: t
Encoding: 116 116 232
Width: 290
VWidth: 0
Flags: W
HStem: -6 57<149 252.804> 429 69<27 73 180 255>
VStem: 73 107<60.0312 429 498 577>
LayerCount: 2
Fore
SplineSet
255 498 m 1
 255 429 l 1
 180 429 l 1
 180 98 l 2
 180 56 223 51 242 51 c 0
 248 51 251 52 251 52 c 1
 257 14 l 1
 245 6 221 -6 187 -6 c 0
 111 -6 73 24 73 96 c 2
 73 429 l 1
 27 429 l 1
 27 498 l 1
 73 498 l 1
 73 577 l 1
 180 611 l 1
 180 498 l 1
 255 498 l 1
EndSplineSet
Validated: 1
EndChar

StartChar: tcaron
Encoding: 357 357 233
Width: 335
VWidth: 0
Flags: W
HStem: -6 57<149 252.804> 429 69<27 73 180 255> 522 250
VStem: 73 107<60.0312 429 498 577> 250 67<598.461 702>
LayerCount: 2
Back
SplineSet
255 498 m 1
 255 429 l 1
 180 429 l 1
 180 98 l 2
 180 56 223 51 242 51 c 0
 248 51 251 52 251 52 c 1
 257 14 l 1
 245 6 221 -6 187 -6 c 0
 111 -6 73 24 73 96 c 2
 73 429 l 1
 27 429 l 1
 27 498 l 1
 73 498 l 1
 73 577 l 1
 180 611 l 1
 180 498 l 1
 255 498 l 1
192 713 m 0
 192 751 217 772 255 772 c 0
 303 772 317 726 317 678 c 0
 317 611 260 540 242 522 c 1
 220 536 l 1
 235 565 250 594 250 632 c 0
 250 665 192 665 192 713 c 0
EndSplineSet
Fore
Refer: 282 787 N 1 0 0 1 475 -25 2
Refer: 232 116 N 1 0 0 1 0 0 2
Validated: 1
EndChar

StartChar: thorn
Encoding: 254 254 234
Width: 493
VWidth: 0
Flags: W
HStem: -126 21G<40 147> -6 85<186.078 320.436> 418 85<192.246 313.423> 636 20G<84.0588 147>
VStem: 40 107<-126 45 108.433 386.585 446 622> 354 107<116.636 378.667>
LayerCount: 2
Fore
SplineSet
147 -126 m 1
 40 -126 l 1
 40 622 l 1
 147 656 l 1
 147 446 l 1
 176 475 217 503 270 503 c 0
 372 503 461 438 461 307 c 2
 461 192 l 2
 461 52 368 -6 283 -6 c 0
 214 -6 175 17 147 45 c 1
 147 -126 l 1
147 349 m 1
 147 136 l 1
 164 109 185 79 268 79 c 0
 321 79 354 126 354 200 c 2
 354 303 l 2
 354 393 293 418 254 418 c 0
 174 418 169 388 147 349 c 1
EndSplineSet
Validated: 1
EndChar

StartChar: three
Encoding: 51 51 235
Width: 463
VWidth: 0
Flags: W
HStem: -8 90<153.276 294.496> 296 90<180 273.398> 560 90<163.3 283.37>
VStem: 31 98<109.131 164> 43 98<478 537.32> 303 102<417.103 541.301> 329 102<115.309 259.107>
LayerCount: 2
Fore
SplineSet
357 348 m 1xec
 403 317 431 267 431 195 c 0
 431 45 346 -8 225 -8 c 0
 116 -8 31 47 31 164 c 1
 129 164 l 1
 129 115 160 82 220 82 c 0
 275 82 329 101 329 193 c 0xf2
 329 279 260 296 205 296 c 2
 180 296 l 1
 180 386 l 1
 220 386 l 2
 275 386 303 438 303 482 c 0
 303 527 281 560 226 560 c 0
 166 560 141 527 141 478 c 1
 43 478 l 1
 43 595 122 650 231 650 c 0
 352 650 405 579 405 481 c 0
 405 430 389 382 357 348 c 1xec
EndSplineSet
Validated: 1
EndChar

StartChar: threequarters
Encoding: 190 190 236
Width: 731
VWidth: 0
Flags: W
HStem: 0 21G<172 274.531> 73 66<502 574 655 701> 272 70<112.047 215.804> 437 70<127 203.978> 583 70<117.775 205.876> 620 20G<530.438 632>
VStem: 28 75<352.87 387> 36 75<546 574.185> 209 78<512.913 577.801> 226 78<353.65 425.383> 574 81<-18 73 139 223>
LayerCount: 2
Fore
SplineSet
28 387 m 1xfa60
 103 387 l 1
 103 369 122 342 159 342 c 0
 195 342 226 359 226 392 c 0xfa60
 226 426 186 437 149 437 c 2
 127 437 l 1
 127 507 l 1
 159 507 l 2
 194 507 209 525 209 551 c 0
 209 563 198 583 163 583 c 0
 125 583 111 562 111 538 c 1
 36 546 l 1
 36 618 95 653 166 653 c 0
 241 653 287 618 287 550 c 0xf9a0
 287 522 279 498 264 479 c 1
 290 460 304 432 304 393 c 0
 304 308 244 272 162 272 c 0
 87 272 28 316 28 387 c 1xfa60
632 640 m 1xf420
 263 0 l 1
 172 0 l 1
 542 640 l 1
 632 640 l 1xf420
574 223 m 1
 502 139 l 1
 574 139 l 1
 574 223 l 1
655 -18 m 1
 574 -18 l 1
 574 73 l 1
 421 73 l 1
 421 146 l 1
 602 358 l 1
 655 358 l 1
 655 139 l 1
 701 139 l 1
 701 73 l 1
 655 73 l 1
 655 -18 l 1
EndSplineSet
Validated: 1
EndChar

StartChar: trademark
Encoding: 8482 8482 237
Width: 574
VWidth: 0
Flags: W
HStem: 582 58<23 99 167 243>
VStem: 99 68<336 582> 261 67<336 461> 471 68<336 461>
LayerCount: 2
Fore
SplineSet
167 336 m 1
 99 336 l 1
 99 582 l 1
 23 582 l 1
 23 640 l 1
 243 640 l 1
 243 582 l 1
 167 582 l 1
 167 336 l 1
471 461 m 1
 420 336 l 1
 380 336 l 1
 328 461 l 1
 328 336 l 1
 261 336 l 1
 261 640 l 1
 318 640 l 1
 400 445 l 1
 482 640 l 1
 539 640 l 1
 539 336 l 1
 471 336 l 1
 471 461 l 1
EndSplineSet
Validated: 1
EndChar

StartChar: two
Encoding: 50 50 238
Width: 454
VWidth: 0
Flags: W
HStem: 0 85<146 420> 560 90<161.276 289.358>
VStem: 39 98<478 532.869> 311 102<411.326 537.309>
LayerCount: 2
Fore
SplineSet
302 263 m 2
 146 85 l 1
 420 85 l 1
 420 0 l 1
 34 0 l 1
 34 95 l 1
 238 338 l 2
 285 394 311 443 311 483 c 0
 311 527 283 560 228 560 c 0
 168 560 137 527 137 478 c 1
 39 478 l 1
 39 595 124 650 233 650 c 0
 354 650 413 583 413 485 c 0
 413 421 393 366 302 263 c 2
EndSplineSet
Validated: 1
EndChar

StartChar: u
Encoding: 117 117 239
Width: 494
VWidth: 0
Flags: W
HStem: 0 85<156.454 304.902> 478 20G<35 142 349 456>
VStem: 35 107<101.34 498> 349 107<0 56 130.502 498>
LayerCount: 2
Fore
SplineSet
349 180 m 1
 349 498 l 1
 456 498 l 1
 456 0 l 1
 349 0 l 1
 349 56 l 1
 322 26 280 0 212 0 c 2
 172 0 l 2
 87 0 35 36 35 142 c 2
 35 498 l 1
 142 498 l 1
 142 150 l 2
 142 109 163 85 216 85 c 2
 250 85 l 2
 298 85 338 127 349 180 c 1
EndSplineSet
Validated: 1
EndChar

StartChar: uacute
Encoding: 250 250 240
Width: 494
VWidth: 0
Flags: W
HStem: 0 85<156.454 304.902> 478 20<35 142 349 456> 563 199
VStem: 35 107<101.34 498> 200 212 349 107<0 56 130.502 498>
LayerCount: 2
Back
SplineSet
349 180 m 1
 349 498 l 1
 456 498 l 1
 456 0 l 1
 349 0 l 1
 349 56 l 1
 322 26 280 0 212 0 c 2
 172 0 l 2
 87 0 35 36 35 142 c 2
 35 498 l 1
 142 498 l 1
 142 150 l 2
 142 109 163 85 216 85 c 2
 250 85 l 2
 298 85 338 127 349 180 c 1
201 610 m 1
 345 762 l 1
 413 681 l 1
 241 563 l 1
 201 610 l 1
EndSplineSet
Fore
Refer: 266 769 S 1 0 0 1 485 0 2
Refer: 239 117 N 1 0 0 1 0 0 2
Validated: 1
EndChar

StartChar: ucircumflex
Encoding: 251 251 241
Width: 494
VWidth: 0
Flags: W
HStem: 0 85<156.454 304.902> 478 20<35 142 349 456> 563 157
VStem: 35 107<101.34 498> 103 288 349 107<0 56 130.502 498>
LayerCount: 2
Back
SplineSet
349 180 m 1
 349 498 l 1
 456 498 l 1
 456 0 l 1
 349 0 l 1
 349 56 l 1
 322 26 280 0 212 0 c 2
 172 0 l 2
 87 0 35 36 35 142 c 2
 35 498 l 1
 142 498 l 1
 142 150 l 2
 142 109 163 85 216 85 c 2
 250 85 l 2
 298 85 338 127 349 180 c 1
392 603 m 1
 369 563 l 1
 248 608 l 1
 127 563 l 1
 104 603 l 1
 248 720 l 1
 392 603 l 1
EndSplineSet
Fore
Refer: 267 770 N 1 0 0 1 492 0 2
Refer: 239 117 N 1 0 0 1 0 0 2
Validated: 1
EndChar

StartChar: udieresis
Encoding: 252 252 242
Width: 494
VWidth: 0
Flags: W
HStem: 0 85<156.454 304.902> 478 20<35 142 349 456> 563 118<108.662 199.338 300.662 391.338>
VStem: 35 107<101.34 498> 95 118<576.662 667.338> 287 118<576.662 667.338> 349 107<0 56 130.502 498>
LayerCount: 2
Back
SplineSet
349 180 m 1
 349 498 l 1
 456 498 l 1
 456 0 l 1
 349 0 l 1
 349 56 l 1
 322 26 280 0 212 0 c 2
 172 0 l 2
 87 0 35 36 35 142 c 2
 35 498 l 1
 142 498 l 1
 142 150 l 2
 142 109 163 85 216 85 c 2
 250 85 l 2
 298 85 338 127 349 180 c 1
95 622 m 0
 95 654 122 681 154 681 c 0
 186 681 213 654 213 622 c 0
 213 590 186 563 154 563 c 0
 122 563 95 590 95 622 c 0
287 622 m 0
 287 654 314 681 346 681 c 0
 378 681 405 654 405 622 c 0
 405 590 378 563 346 563 c 0
 314 563 287 590 287 622 c 0
EndSplineSet
Fore
Refer: 272 776 S 1 0 0 1 496 0 2
Refer: 239 117 N 1 0 0 1 0 0 2
Validated: 1
EndChar

StartChar: ugrave
Encoding: 249 249 243
Width: 494
VWidth: 0
Flags: W
HStem: 0 85<156.454 304.902> 478 20<35 142 349 456> 563 199
VStem: 35 107<101.34 498> 86 212 349 107<0 56 130.502 498>
LayerCount: 2
Back
SplineSet
349 180 m 1
 349 498 l 1
 456 498 l 1
 456 0 l 1
 349 0 l 1
 349 56 l 1
 322 26 280 0 212 0 c 2
 172 0 l 2
 87 0 35 36 35 142 c 2
 35 498 l 1
 142 498 l 1
 142 150 l 2
 142 109 163 85 216 85 c 2
 250 85 l 2
 298 85 338 127 349 180 c 1
298 610 m 1
 258 563 l 1
 86 681 l 1
 154 762 l 1
 298 610 l 1
EndSplineSet
Fore
Refer: 265 768 N 1 0 0 1 503 0 2
Refer: 239 117 N 1 0 0 1 0 0 2
Validated: 1
EndChar

StartChar: uhungarumlaut
Encoding: 369 369 244
Width: 494
VWidth: 0
Flags: W
HStem: 0 85<156.454 304.902> 478 20<35 142 349 456> 565 180
VStem: 35 107<101.34 498> 118 290 349 107<0 56 130.502 498>
LayerCount: 2
Back
SplineSet
349 180 m 1
 349 498 l 1
 456 498 l 1
 456 0 l 1
 349 0 l 1
 349 56 l 1
 322 26 280 0 212 0 c 2
 172 0 l 2
 87 0 35 36 35 142 c 2
 35 498 l 1
 142 498 l 1
 142 150 l 2
 142 109 163 85 216 85 c 2
 250 85 l 2
 298 85 338 127 349 180 c 1
258 578 m 1
 324 743 l 1
 408 698 l 1
 298 563 l 1
 258 578 l 1
118 578 m 1
 184 743 l 1
 268 698 l 1
 158 563 l 1
 118 578 l 1
EndSplineSet
Fore
Refer: 274 779 N 1 0 0 1 464 0 2
Refer: 239 117 N 1 0 0 1 0 0 2
Validated: 1
EndChar

StartChar: underscore
Encoding: 95 95 245
Width: 392
VWidth: 0
Flags: W
HStem: -107 92<24 369>
LayerCount: 2
Fore
SplineSet
369 -107 m 1
 24 -107 l 1
 24 -15 l 1
 369 -15 l 1
 369 -107 l 1
EndSplineSet
Validated: 1
EndChar

StartChar: uni00AD
Encoding: 173 173 247
Width: 315
VWidth: 0
Flags: W
HStem: 237 92<25 290>
VStem: 25 265<237 329>
LayerCount: 2
Fore
SplineSet
25 329 m 1
 290 329 l 1
 290 237 l 1
 25 237 l 1
 25 329 l 1
EndSplineSet
Validated: 1
EndChar

StartChar: uni00B2
Encoding: 178 178 248
Width: 331
VWidth: 0
Flags: W
HStem: 277 67<139 298> 580 70<117.261 207.534>
VStem: 34 75<530 571.153> 215 78<488.755 571.224>
LayerCount: 2
Fore
SplineSet
109 530 m 1
 34 530 l 1
 34 611 93 650 168 650 c 0
 252 650 293 596 293 534 c 0
 293 486 266 446 207 399 c 2
 139 344 l 1
 298 344 l 1
 298 277 l 1
 30 277 l 1
 30 347 l 1
 168 463 l 2
 204 494 215 518 215 533 c 0
 215 554 199 580 165 580 c 0
 127 580 109 560 109 530 c 1
EndSplineSet
Validated: 1
EndChar

StartChar: uni00B3
Encoding: 179 179 249
Width: 335
VWidth: 0
Flags: W
HStem: 272 70<112.047 215.804> 437 70<127 203.978> 583 70<117.775 205.876>
VStem: 28 75<352.87 387> 36 75<546 574.185> 209 78<512.913 577.801> 226 78<353.65 425.383>
LayerCount: 2
Fore
SplineSet
28 387 m 1xf2
 103 387 l 1
 103 369 122 342 159 342 c 0
 195 342 226 359 226 392 c 0xf2
 226 426 186 437 149 437 c 2
 127 437 l 1
 127 507 l 1
 159 507 l 2
 194 507 209 525 209 551 c 0
 209 563 198 583 163 583 c 0
 125 583 111 562 111 538 c 1
 36 546 l 1
 36 618 95 653 166 653 c 0
 241 653 287 618 287 550 c 0xec
 287 522 279 498 264 479 c 1
 290 460 304 432 304 393 c 0
 304 308 244 272 162 272 c 0
 87 272 28 316 28 387 c 1xf2
EndSplineSet
Validated: 1
EndChar

StartChar: uni00B5
Encoding: 181 181 250
Width: 496
VWidth: 0
Flags: W
HStem: -205 57<112.852 216.668> 0 85<156.98 306.902> 478 20G<37 144 351 458>
VStem: 37 107<-139.149 2 98.1951 498> 351 107<0 56 130.502 498>
LayerCount: 2
Fore
SplineSet
351 180 m 1
 351 498 l 1
 458 498 l 1
 458 0 l 1
 351 0 l 1
 351 56 l 1
 324 26 282 0 214 0 c 2
 174 0 l 2
 163 0 153 1 144 2 c 1
 144 -101 l 2
 144 -143 185 -148 204 -148 c 0
 210 -148 215 -147 215 -147 c 1
 221 -185 l 1
 202 -195 185 -205 151 -205 c 0
 75 -205 37 -175 37 -103 c 2
 37 498 l 1
 144 498 l 1
 144 150 l 2
 144 109 165 85 218 85 c 2
 252 85 l 2
 300 85 340 127 351 180 c 1
EndSplineSet
Validated: 1
EndChar

StartChar: uni00B9
Encoding: 185 185 251
Width: 235
VWidth: 0
Flags: W
HStem: 625 20G<120.482 199>
VStem: 118 81<277 488>
LayerCount: 2
Fore
SplineSet
99 454 m 1
 22 454 l 1
 132 645 l 1
 199 645 l 1
 199 277 l 1
 118 277 l 1
 118 488 l 1
 99 454 l 1
EndSplineSet
Validated: 1
EndChar

StartChar: uring
Encoding: 367 367 252
Width: 494
VWidth: 0
Flags: W
HStem: 0 85<156.454 304.902> 478 20<35 142 349 456> 552 50<210.069 281.931> 686 50<210.069 281.931>
VStem: 35 107<101.34 498> 154 50<608.069 679.931> 288 50<608.069 679.931> 349 107<0 56 130.502 498>
LayerCount: 2
Back
SplineSet
349 180 m 1
 349 498 l 1
 456 498 l 1
 456 0 l 1
 349 0 l 1
 349 56 l 1
 322 26 280 0 212 0 c 2
 172 0 l 2
 87 0 35 36 35 142 c 2
 35 498 l 1
 142 498 l 1
 142 150 l 2
 142 109 163 85 216 85 c 2
 250 85 l 2
 298 85 338 127 349 180 c 1
204 644 m 4
 204 621 223 602 246 602 c 4
 269 602 288 621 288 644 c 4
 288 667 269 686 246 686 c 4
 223 686 204 667 204 644 c 4
154 644 m 4
 154 694 196 736 246 736 c 4
 296 736 338 694 338 644 c 4
 338 594 296 552 246 552 c 4
 196 552 154 594 154 644 c 4
EndSplineSet
Fore
Refer: 273 778 N 1 0 0 1 491 0 2
Refer: 239 117 N 1 0 0 1 0 0 2
Validated: 1
EndChar

StartChar: v
Encoding: 118 118 253
Width: 518
VWidth: 0
Flags: W
HStem: 0 21G<194.771 320.229> 478 20G<22 135.293 375.764 493>
LayerCount: 2
Fore
SplineSet
383 498 m 1
 493 498 l 1
 313 0 l 1
 202 0 l 1
 22 498 l 1
 128 498 l 1
 256 147 l 1
 383 498 l 1
EndSplineSet
Validated: 1
EndChar

StartChar: w
Encoding: 119 119 254
Width: 731
VWidth: 0
Flags: W
HStem: 0 20G<178 280.312 439.671 577.341> 478 20G<23 131.318 305.624 411.348 592.652 705>
LayerCount: 2
Fore
SplineSet
275 -1 m 1
 178 0 l 1
 155 0 l 1
 23 498 l 1
 126 498 l 1
 218 152 l 1
 311 498 l 1
 406 498 l 1
 502 139 l 1
 598 498 l 1
 705 498 l 1
 572 0 l 1
 445 0 l 1
 360 319 l 1
 275 -1 l 1
EndSplineSet
Validated: 1
EndChar

StartChar: x
Encoding: 120 120 255
Width: 539
VWidth: 0
Flags: W
HStem: 0 21G<29 155.023 370.092 515> 478 20G<36 180.04 363.96 490>
LayerCount: 2
Fore
SplineSet
36 498 m 1
 166 498 l 1
 272 347 l 1
 378 498 l 1
 490 498 l 1
 328 267 l 1
 515 0 l 1
 384 0 l 1
 263 174 l 1
 141 0 l 1
 29 0 l 1
 207 254 l 1
 36 498 l 1
EndSplineSet
Validated: 1
EndChar

StartChar: y
Encoding: 121 121 256
Width: 529
VWidth: 0
Flags: W
HStem: -200 87<72 145.102> 478 20G<22 135.268 386.732 504>
LayerCount: 2
Fore
SplineSet
22 498 m 1
 128 498 l 1
 261 132 l 1
 394 498 l 1
 504 498 l 1
 321 -7 l 2
 272 -141 192 -200 72 -200 c 1
 72 -113 l 1
 142 -113 178 -77 207 -13 c 1
 22 498 l 1
EndSplineSet
Validated: 1
EndChar

StartChar: yacute
Encoding: 253 253 257
Width: 529
VWidth: 0
Flags: W
HStem: -200 87<72 145.102> 478 20<22 135.268 386.732 504> 563 199
VStem: 200 212
LayerCount: 2
Back
SplineSet
22 498 m 1
 128 498 l 1
 261 132 l 1
 394 498 l 1
 504 498 l 1
 321 -7 l 2
 272 -141 192 -200 72 -200 c 1
 72 -113 l 1
 142 -113 178 -77 207 -13 c 1
 22 498 l 1
199 610 m 1
 343 762 l 1
 411 681 l 1
 239 563 l 1
 199 610 l 1
EndSplineSet
Fore
Refer: 266 769 N 1 0 0 1 485 0 2
Refer: 256 121 N 1 0 0 1 0 0 2
Validated: 1
EndChar

StartChar: ydieresis
Encoding: 255 255 258
Width: 529
VWidth: 0
Flags: W
HStem: -200 87<72 145.102> 478 20<22 135.268 386.732 504> 563 118<136.662 227.338 328.662 419.338>
VStem: 123 118<576.662 667.338> 315 118<576.662 667.338>
LayerCount: 2
Back
SplineSet
22 498 m 1
 128 498 l 1
 261 132 l 1
 394 498 l 1
 504 498 l 1
 321 -7 l 2
 272 -141 192 -200 72 -200 c 1
 72 -113 l 1
 142 -113 178 -77 207 -13 c 1
 22 498 l 1
123 622 m 0
 123 654 150 681 182 681 c 0
 214 681 241 654 241 622 c 0
 241 590 214 563 182 563 c 0
 150 563 123 590 123 622 c 0
315 622 m 0
 315 654 342 681 374 681 c 0
 406 681 433 654 433 622 c 0
 433 590 406 563 374 563 c 0
 342 563 315 590 315 622 c 0
EndSplineSet
Fore
Refer: 272 776 N 1 0 0 1 524 0 2
Refer: 256 121 N 1 0 0 1 0 0 2
Validated: 1
EndChar

StartChar: yen
Encoding: 165 165 259
Width: 534
VWidth: 0
Flags: W
HStem: 0 21G<215 322> 186 58<89 215 322 443> 320 58<89 166 368 443> 620 20G<20 154.159 390.927 513>
VStem: 215 107<0 186 244 289>
LayerCount: 2
Fore
SplineSet
215 289 m 1
 198 320 l 1
 89 320 l 1
 89 378 l 1
 166 378 l 1
 20 640 l 1
 143 640 l 1
 273 407 l 1
 402 640 l 1
 513 640 l 1
 368 378 l 1
 443 378 l 1
 443 320 l 1
 336 320 l 1
 322 295 l 1
 322 244 l 1
 443 244 l 1
 443 186 l 1
 322 186 l 1
 322 0 l 1
 215 0 l 1
 215 186 l 1
 89 186 l 1
 89 244 l 1
 215 244 l 1
 215 289 l 1
EndSplineSet
Validated: 1
EndChar

StartChar: z
Encoding: 122 122 260
Width: 517
VWidth: 0
Flags: W
HStem: 0 85<199 468> 413 85<56 316>
LayerCount: 2
Fore
SplineSet
316 413 m 1
 56 413 l 1
 56 498 l 1
 488 498 l 1
 199 85 l 1
 468 85 l 1
 468 0 l 1
 27 0 l 1
 316 413 l 1
EndSplineSet
Validated: 1
EndChar

StartChar: zacute
Encoding: 378 378 261
Width: 517
VWidth: 0
Flags: W
HStem: 0 85<199 468> 413 85<56 316> 563 199
VStem: 213 212
LayerCount: 2
Back
SplineSet
315 413 m 1
 55 413 l 1
 55 498 l 1
 487 498 l 1
 198 85 l 1
 467 85 l 1
 467 0 l 1
 26 0 l 1
 315 413 l 1
213 610 m 1
 357 762 l 1
 425 681 l 1
 253 563 l 1
 213 610 l 1
EndSplineSet
Fore
Refer: 266 769 N 1 0 0 1 498 0 2
Refer: 260 122 N 1 0 0 1 0 0 2
Validated: 1
EndChar

StartChar: zcaron
Encoding: 382 382 262
Width: 517
VWidth: 0
UnlinkRmOvrlpSave: 1
Flags: W
HStem: 0 85<199 468> 413 85<56 316> 491 226
VStem: 145 235
LayerCount: 2
Back
SplineSet
145 676 m 1
 181 706 l 1
 263 636 l 1
 345 707 l 1
 380 677 l 1
 273 498 l 1
 487 498 l 1
 198 85 l 1
 467 85 l 1
 467 0 l 1
 26 0 l 1
 315 413 l 1
 55 413 l 1
 55 498 l 1
 253 498 l 1
 145 676 l 1
EndSplineSet
Fore
Refer: 275 780 N 1 0 0 1 508 10 2
Refer: 260 122 N 1 0 0 1 0 0 2
Validated: 5
EndChar

StartChar: zdotaccent
Encoding: 380 380 263
Width: 517
VWidth: 0
Flags: W
HStem: 0 85<199 468> 413 85<56 316> 563 118<214.662 305.338>
VStem: 201 118<576.662 667.338>
LayerCount: 2
Back
SplineSet
315 413 m 1
 55 413 l 1
 55 498 l 1
 487 498 l 1
 198 85 l 1
 467 85 l 1
 467 0 l 1
 26 0 l 1
 315 413 l 1
201 623 m 0
 201 655 228 682 260 682 c 0
 292 682 319 655 319 623 c 0
 319 591 292 564 260 564 c 0
 228 564 201 591 201 623 c 0
EndSplineSet
Fore
Refer: 271 775 S 1 0 0 1 505 0 2
Refer: 260 122 N 1 0 0 1 0 0 2
Validated: 1
EndChar

StartChar: zero
Encoding: 48 48 264
Width: 493
VWidth: 0
Flags: W
HStem: -8 85<188.528 303.002> 563 85<186.998 301.472>
VStem: 31 107<137.66 501.16> 352 107<138.84 502.34>
LayerCount: 2
Fore
SplineSet
352 266 m 2
 352 386 l 2
 352 485 319 563 245 563 c 0
 161 563 138 470 138 374 c 2
 138 254 l 2
 138 155 171 77 245 77 c 0
 329 77 352 170 352 266 c 2
459 422 m 2
 459 234 l 2
 459 106 379 -8 245 -8 c 0
 136 -8 31 86 31 218 c 2
 31 406 l 2
 31 534 111 648 245 648 c 0
 354 648 459 554 459 422 c 2
EndSplineSet
Validated: 1
EndChar

StartChar: gravecomb
Encoding: 768 768 265
Width: 0
VWidth: 0
Flags: W
HStem: 563 199
VStem: -417 212
LayerCount: 2
Fore
SplineSet
-205 610 m 1
 -245 563 l 1
 -417 681 l 1
 -349 762 l 1
 -205 610 l 1
EndSplineSet
Validated: 1
EndChar

StartChar: acutecomb
Encoding: 769 769 266
Width: 0
VWidth: 0
Flags: W
HStem: 563 199
VStem: -285 212
LayerCount: 2
Fore
SplineSet
-285 610 m 1
 -141 762 l 1
 -73 681 l 1
 -245 563 l 1
 -285 610 l 1
EndSplineSet
Validated: 1
EndChar

StartChar: uni0302
Encoding: 770 770 267
Width: 0
VWidth: 0
Flags: W
HStem: 563 157
VStem: -389 288
LayerCount: 2
Fore
SplineSet
-101 603 m 1
 -124 563 l 1
 -245 608 l 1
 -366 563 l 1
 -389 603 l 1
 -245 720 l 1
 -101 603 l 1
EndSplineSet
Validated: 1
EndChar

StartChar: tildecomb
Encoding: 771 771 268
Width: 0
VWidth: 0
Flags: W
HStem: 563 92<-234.484 -156.622> 624 92<-346.378 -268.516>
LayerCount: 2
Fore
SplineSet
-325 624 m 0x40
 -337 624 -343 609 -362 573 c 1
 -427 597 l 1
 -393 691 -368 716 -340 716 c 0x40
 -270 716 -225 655 -178 655 c 0
 -166 655 -160 670 -141 706 c 1
 -76 681 l 1
 -110 587 -135 563 -163 563 c 0x80
 -233 563 -278 624 -325 624 c 0x40
EndSplineSet
Validated: 1
EndChar

StartChar: uni0306
Encoding: 774 774 270
Width: 0
VWidth: 0
Flags: W
HStem: 559 82<-300.18 -189.82>
VStem: -368 246
LayerCount: 2
Fore
SplineSet
-245 559 m 0
 -324 559 -365 634 -368 691 c 1
 -319 691 l 1
 -306 657 -277 641 -245 641 c 0
 -213 641 -184 657 -171 691 c 1
 -122 691 l 1
 -125 634 -166 559 -245 559 c 0
EndSplineSet
Validated: 1
EndChar

StartChar: uni0307
Encoding: 775 775 271
Width: 0
VWidth: 0
Flags: W
HStem: 563 118<-290.338 -199.662>
VStem: -304 118<576.662 667.338>
LayerCount: 2
Fore
SplineSet
-304 622 m 0
 -304 654 -277 681 -245 681 c 0
 -213 681 -186 654 -186 622 c 0
 -186 590 -213 563 -245 563 c 0
 -277 563 -304 590 -304 622 c 0
EndSplineSet
Validated: 1
EndChar

StartChar: uni0308
Encoding: 776 776 272
Width: 0
VWidth: 0
Flags: W
HStem: 563 118<-387.338 -296.662 -195.338 -104.662>
VStem: -401 118<576.662 667.338> -209 118<576.662 667.338>
LayerCount: 2
Fore
SplineSet
-401 622 m 0
 -401 654 -374 681 -342 681 c 0
 -310 681 -283 654 -283 622 c 0
 -283 590 -310 563 -342 563 c 0
 -374 563 -401 590 -401 622 c 0
-209 622 m 0
 -209 654 -182 681 -150 681 c 0
 -118 681 -91 654 -91 622 c 0
 -91 590 -118 563 -150 563 c 0
 -182 563 -209 590 -209 622 c 0
EndSplineSet
Validated: 1
EndChar

StartChar: uni030A
Encoding: 778 778 273
Width: 0
VWidth: 0
Flags: W
HStem: 552 50<-280.931 -209.069> 686 50<-280.931 -209.069>
VStem: -337 50<608.069 679.931> -203 50<608.069 679.931>
LayerCount: 2
Fore
SplineSet
-287 644 m 0
 -287 621 -268 602 -245 602 c 0
 -222 602 -203 621 -203 644 c 0
 -203 667 -222 686 -245 686 c 0
 -268 686 -287 667 -287 644 c 0
-337 644 m 0
 -337 694 -295 736 -245 736 c 0
 -195 736 -153 694 -153 644 c 0
 -153 594 -195 552 -245 552 c 0
 -295 552 -337 594 -337 644 c 0
EndSplineSet
Validated: 1
EndChar

StartChar: uni030B
Encoding: 779 779 274
Width: 0
VWidth: 0
Flags: W
HStem: 565 180
VStem: -346 290
LayerCount: 2
Fore
SplineSet
-206 580 m 1
 -140 745 l 1
 -56 700 l 1
 -166 565 l 1
 -206 580 l 1
-346 580 m 1
 -280 745 l 1
 -196 700 l 1
 -306 565 l 1
 -346 580 l 1
EndSplineSet
Validated: 1
EndChar

StartChar: uni030C
Encoding: 780 780 275
Width: 0
VWidth: 0
Flags: W
HStem: 481 226
VStem: -363 235
LayerCount: 2
Fore
SplineSet
-245 636 m 25
 -163 707 l 25
 -128 677 l 25
 -245 481 l 25
 -363 676 l 25
 -327 706 l 25
 -245 636 l 25
EndSplineSet
Validated: 1
EndChar

StartChar: dotbelowcomb
Encoding: 803 803 276
Width: 0
VWidth: 0
Flags: W
HStem: -184 118<-290.338 -199.662>
VStem: -304 118<-170.338 -79.6616>
LayerCount: 2
Fore
SplineSet
-304 -125 m 0
 -304 -93 -277 -66 -245 -66 c 0
 -213 -66 -186 -93 -186 -125 c 0
 -186 -157 -213 -184 -245 -184 c 0
 -277 -184 -304 -157 -304 -125 c 0
EndSplineSet
Validated: 1
EndChar

StartChar: uni0326
Encoding: 806 806 277
Width: 0
VWidth: 0
Flags: W
HStem: -286 250
VStem: -249 67<-209.539 -106>
LayerCount: 2
Back
SplineSet
-315 -125 m 0
 -315 -83 -289 -66 -245 -66 c 0
 -197 -66 -180 -116 -180 -160 c 0
 -180 -219 -270 -307 -291 -319 c 1
 -311 -290 l 1
 -282 -262 -257 -234 -257 -204 c 0
 -257 -168 -315 -189 -315 -125 c 0
EndSplineSet
Fore
Refer: 282 787 N 1 0 0 1 -24 -833 2
Validated: 1
EndChar

StartChar: uni0327
Encoding: 807 807 278
Width: 460
VWidth: 0
Flags: W
HStem: -200 37<-345.109 -260.286> -158 20G<-370 -347>
VStem: -252 82<-158.129 -92.8418>
LayerCount: 2
Fore
SplineSet
-276 19 m 25
 -183 19 l 25
 -254 -53 l 17
 -202 -61 -170 -86 -170 -122 c 0
 -170 -166 -204 -200 -278 -200 c 0
 -320 -200 -353 -180 -372 -162 c 9
 -360 -138 l 17
 -334 -157 -318 -163 -293 -163 c 0
 -269 -163 -252 -144 -252 -120 c 0
 -252 -92 -307 -76 -351 -72 c 9
 -276 19 l 25
EndSplineSet
Validated: 1
EndChar

StartChar: uni0328
Encoding: 808 808 279
Width: 0
VWidth: 0
Flags: W
HStem: -194 48<-252.951 -149.277> 0 42<-203.501 -134>
VStem: -364 100<-135.513 -43.7122>
LayerCount: 2
Fore
SplineSet
-134 42 m 1
 -134 0 l 17
 -224 -18 -264 -49 -264 -86 c 1
 -264 -131 -238 -146 -202 -146 c 1
 -170 -146 -124 -118 -124 -118 c 25
 -108 -140 l 25
 -108 -140 -160 -194 -217 -194 c 1
 -317 -194 -364 -156 -364 -86 c 1
 -364 -28 -250 31 -134 42 c 1
EndSplineSet
Validated: 1
EndChar

StartChar: uniE000
Encoding: 57344 57344 280
Width: 0
VWidth: 0
Flags: W
HStem: 660 157
VStem: -419 197
LayerCount: 2
Fore
SplineSet
-222 700 m 1
 -245 660 l 1
 -419 725 l 1
 -366 817 l 1
 -222 700 l 1
EndSplineSet
Validated: 1
EndChar

StartChar: uniE001
Encoding: 57345 57345 281
Width: 0
VWidth: 0
Flags: W
HStem: 660 157
VStem: -268 197
LayerCount: 2
Fore
SplineSet
-268 700 m 1
 -124 817 l 1
 -71 725 l 1
 -245 660 l 1
 -268 700 l 1
EndSplineSet
Validated: 1
EndChar

StartChar: uni0313
Encoding: 787 787 282
Width: 0
VWidth: 0
Flags: W
HStem: 547 250
VStem: -225 67<623.461 727>
LayerCount: 2
Fore
SplineSet
-283 738 m 0
 -283 776 -258 797 -220 797 c 0
 -172 797 -158 751 -158 703 c 0
 -158 636 -215 565 -233 547 c 1
 -255 561 l 1
 -240 590 -225 619 -225 657 c 0
 -225 690 -283 690 -283 738 c 0
EndSplineSet
Validated: 1
EndChar

StartChar: uni0237
Encoding: 567 567 287
Width: 239
VWidth: 0
Flags: W
HStem: -139 57<12.3321 116.148>
VStem: 85 107<-73.1494 482>
LayerCount: 2
Fore
SplineSet
85 -35 m 2
 85 482 l 1
 192 516 l 1
 192 -37 l 2
 192 -109 154 -139 78 -139 c 0
 44 -139 27 -129 8 -119 c 1
 14 -81 l 1
 14 -81 19 -82 25 -82 c 0
 44 -82 85 -77 85 -35 c 2
EndSplineSet
Validated: 1
EndChar

StartChar: Hbar
Encoding: 294 294 289
Width: 602
VWidth: 0
UnlinkRmOvrlpSave: 1
Flags: W
HStem: 0 21<79 186 420 527> 290 85<186 420> 532 60<18 586> 620 20<79 186 420 527>
VStem: 79 107<0 290 375 640> 420 107<0 290 375 640>
LayerCount: 2
Fore
SplineSet
18 532 m 1
 18 592 l 1
 586 592 l 1
 586 532 l 1
 18 532 l 1
EndSplineSet
Refer: 30 72 N 1 0 0 1 39 0 2
Validated: 5
EndChar

StartChar: hbar
Encoding: 295 295 290
Width: 526
VWidth: 0
UnlinkRmOvrlpSave: 1
Flags: W
HStem: 0 21<69 176 383 490> 413 85<220.098 368.546> 532 60<30 276> 638 20<113.059 176>
VStem: 69 107<0 367.498 442 624> 383 107<0 396.66>
LayerCount: 2
Fore
SplineSet
30 532 m 1
 30 592 l 1
 276 592 l 1
 276 532 l 1
 30 532 l 1
EndSplineSet
Refer: 158 104 N 1 0 0 1 30 0 2
Validated: 5
EndChar

StartChar: uni0312
Encoding: 786 786 313
Width: -25
VWidth: 0
Flags: W
HStem: 547 250
VStem: -308 67<617 720.539>
LayerCount: 2
Fore
SplineSet
-183 606 m 0
 -183 568 -208 547 -246 547 c 0
 -294 547 -308 593 -308 641 c 0
 -308 708 -251 779 -233 797 c 1
 -211 783 l 1
 -226 754 -241 725 -241 687 c 0
 -241 654 -183 654 -183 606 c 0
EndSplineSet
Validated: 1
EndChar

